/* XPM */
static char *result[] = {
/* columns rows colors chars-per-pixel */
"64 64 122 2 ",
"   c #000000",
".  c #030D01",
"X  c #0B0B08",
"o  c #061301",
"O  c #0B1D03",
"+  c gray9",
"@  c #1C1D1C",
"#  c #0E2304",
"$  c #102704",
"%  c #122B05",
"&  c #172F0A",
"*  c #173207",
"=  c #183607",
"-  c #193708",
";  c #1C3C0A",
":  c #1C2C16",
">  c #1C2519",
",  c #1E2A1A",
"<  c #1D3413",
"1  c #243C1B",
"2  c #232323",
"3  c #2C2C2C",
"4  c #313025",
"5  c #33322A",
"6  c #333333",
"7  c #3E3E3E",
"8  c #1F410B",
"9  c #21440D",
"0  c #254C0E",
"q  c #264B11",
"w  c #2C4E1C",
"e  c #295310",
"r  c #2E5C14",
"t  c #2C5319",
"y  c #305F14",
"u  c #325D1B",
"i  c #336516",
"p  c #356817",
"a  c #366A18",
"s  c #38691D",
"d  c #3C731B",
"f  c #3E791C",
"g  c #305022",
"h  c #345924",
"j  c #3A6526",
"k  c #3C612D",
"l  c #406D2B",
"z  c #464646",
"x  c #4C4C4C",
"c  c #545352",
"v  c #5A5A5A",
"b  c #64614E",
"n  c #6F6C57",
"m  c #716E59",
"M  c #626262",
"N  c #6D6D6D",
"B  c #7C7B61",
"V  c #7D7B6A",
"C  c #717171",
"Z  c #7B7B7B",
"A  c #43811F",
"S  c #458420",
"D  c #498B22",
"F  c #4E9425",
"G  c #509726",
"H  c #519A27",
"J  c #539D29",
"K  c #508B33",
"L  c #558F3A",
"P  c #569834",
"I  c #5B9F39",
"U  c #56A329",
"Y  c #59A72B",
"T  c #5DAD2D",
"R  c #61B52F",
"E  c #63B337",
"W  c #66BE32",
"Q  c #68BF36",
"!  c #6BBF3A",
"~  c #6EC03D",
"^  c #65AF40",
"/  c #6AB841",
"(  c #71C142",
")  c #77C248",
"_  c #7EC451",
"`  c #8E996D",
"'  c #928F74",
"]  c #9C987B",
"[  c #8BA967",
"{  c #94B46E",
"}  c #85C658",
"|  c #A4D079",
" . c #A8D17C",
".. c #818181",
"X. c #8C8B86",
"o. c #8E8D88",
"O. c #ABAB87",
"+. c #B4AF8F",
"@. c #B8BC92",
"#. c #C1BC9A",
"$. c #B0D584",
"%. c #B6D78A",
"&. c #BAD88D",
"*. c #C6C19E",
"=. c #C3DC96",
"-. c #C6DD98",
";. c #CCDE9F",
":. c #CCE09E",
">. c #D1CCA7",
",. c #DCDCAF",
"<. c #DCD7B1",
"1. c #D3E3A4",
"2. c #DAE6AA",
"3. c #DFE8AF",
"4. c #E4EBB4",
"5. c #EBEEBA",
"6. c #EEF0BD",
"7. c #F0F0BE",
"8. c #F3EDC2",
"9. c #F7F1C5",
"0. c #F9F4C7",
"q. c #FDF7CA",
/* pixels */
"................................................................................................................................",
"................................................................................................................................",
"................................................................................................................................",
"................................................................................................................................",
"................................................................................................................................",
"................................................................................................................................",
"................................................................................................................................",
"................................................................................................................................",
"................................................................................................................................",
"................................................................................................................................",
"..............................................Z N C N v v x z z z z z z z z z z z z z z z x M C Z ..............................",
"............Z N M x z 7 2 @ 2 2 2 2 2 2 6                                                         2 7 z z c C ..................",
"..Z C M z 2                                                                                                   2 z C ............",
"..N 2                                           * *   9 9 y j a s s s s s s s s s s a j s u ; %                   @ 7 C ........",
"..c           & ; y p d F J J J J J H F S Y W W W W J f T W W Y W W W W W W W W W W W W ~ W W W R G d a a t           c ........",
"..x     @ g F W W W W W W W W Q W W W W W W W W W W F r T W Y 0 Y W W W W W W W W W W W W W W W W W W W W W R L X     V ........",
"..z     k W W W W W W W W W W W W W W W W W W W ~ R d $ F ~ d   f ~ R ~ W W W W W W W W W W W W W W W W W W W W w   m 8.........",
"..z     j ~ W W W W W W W W W W W W W W W W W W Y d 8 o e y ; o e F R ~ W W W W W W W W W W W W W W W W W W W W d B 8.q.X.......",
"..z     p W W W W W W W W W W W W W W ~ W F 0 *                 .     p U ~ W W W W W W W W W W W W W W W W W W { 9.q.q.X.......",
"..z     p W W W W W W W W W W W W W W Y i                               o F W W W W W W W W W W W W W W W W W | 0.q.q.q.X.......",
"_ x     y ~ R W W W W W W W W W W W Y 0           0 % # r r # % e =       i W W W W W W W W W W W W W W W W  .0.q.q.q.q.X.......",
"Z N     = ~ W W W W W W W W W W W Y *       9 S R Y 0 0 Y F $ p R ~ r   . A W ~ W W W W W W W W W W W W W $.q.q.q.q.q.q.5.o.....",
"..Z       W W W W W W W W W W W W f     % Y W W W Y 9 e Y G # f R W R J G R W W W W W W W W W W W W W W %.q.q.q.q.q.q.q.q.......",
"....      W W W W W W W W W W W W d     e W W W W F % p R D   S W W W W W W W W W W W W W W W W W W W &.q.q.q.q.q.q.q.q.0.......",
"....X X   W W W W W W W W W W W W G     # Y ~ ~ W F # d R A   D W W W W W W W W W W W W W W W W W W =.q.q.q.q.q.q.q.q.q.<.......",
"....      W W W W W W W W W W W W R r     % p Y W F # d T a % F W W W W W W W W W W W W W W W W W -.q.q.q.q.q.q.q.q.q.<.c ......",
"....      W W W W W W W W W W W W W Y 9       % A D # d U e 9 Y W W W W W W W W W W W W W W W W :.q.q.q.q.q.q.q.q.q.<.5 z ......",
"....      W W W W W W W W W W W W W W Y *         # . 8 a 8 0 Y W W W W W W W W W W W W W W ~ 1.q.q.q.q.q.q.q.q.q.,.4   7 ......",
"....      / W W W W W W W W W W W W W W Y f e                   - p H R W W W W W W W W W ~ 2.q.q.q.q.q.q.q.q.q.4.L     2 Z ....",
"....      ~ W W W W W W W W W W W W W W W ~ R A =                     - F W W W W W W W ~ 3.q.q.q.q.q.q.q.q.q.3.~ Y     2 ' ....",
"....      R W W W W W W W W W W W W W W W W W W U 8 $ y 0               O U W W W W W ( 3.q.q.q.q.q.q.q.q.q.3.~ W R       ......",
"....2     Y W W W W W W W W W W W W W W W W W W Y 0 0 Y G % p T G p o     % Y W W W ) 4.q.q.q.q.q.q.q.q.q.2.~ W W R       ......",
"....2     F W W W W W W W W W W W W W W W W W W Y 0 0 Y F # d R W W D o     p W ~ ( 4.q.q.q.q.q.q.q.q.q.:.~ ~ W W T     + Z _ Z ",
"..Z z     d W W W W W W W W W W W W W W W W W W Y 0 0 Y F # d R W W W F       W _ 5.q.q.q.q.q.q.q.q.q.2.~ W W W W R *     C ....",
"....z     a W W W W W W W W W W W W W W W W W W Y 0 0 Y A   A ~ W W W W       } 6.q.q.q.q.q.q.q.q.q.2.~ W W W W W W 8   X M ....",
"....z     a W W W W W W W W W W W W W W W W W W Y 0 0 U f # F W W W W W     b 7.q.q.q.q.q.q.q.q.q.:.~ ~ W W W W W W e   X c ....",
"....z     a W W W W W W W W W W W W W W W W W W Y 8 e U d # G W W W W W * n 8.q.q.q.q.q.q.q.0.0.1.~ W W W W W W W W 8     v ....",
"....z     a W W W W W W W W W W W W W W W W W W G % p T d # F ~ W W W W B 8.q.q.q.q.q.q.q.q.q.:.~ ~ W W W W W W W ~ i     c ....",
"....z     s W W W W W W W W W W ~ R T R W W W ~ F # d T d # F W W W W [ 9.q.q.q.q.q.q.q.q.q.:.~ W W W W W W W W ~ R j     z ....",
"....x     h W W W W W W W W W W W A   8 e d A Y F # f T d # G W Y f ` 9.q.q.q.q.q.q.q.q.q.1.~ W W W W W W W W W W W j     z ....",
"....v     1 W W W W W W W W W W W 8             -   8 p ; . - e # ' 0.q.q.q.q.q.q.q.q.q.:.~ W W W W W W W W W W W W d     z _ Z ",
"....x     u W W W W W W W W W W W F %                           ] 0.q.q.q.q.q.q.q.q.q.1.W W W W W W W W W W W W W W F     2 ....",
"....x     a W W W W W W W W W W W W U p 8 = e                 O.q.q.q.q.q.q.q.q.q.q.1.Q W W W W W W W W W W W W W W U   X @ ....",
"....x     u W W W W W W W W W W W W W W W ~ ~ Y y   e p 8 . O.q.q.q.q.q.q.q.q.q.q.;.W W ~ W W W W W W W W W W W W W E     X ....",
"....M     - ~ W W W W W W W W W W W W W W ~ W W W D W W S +.q.q.q.q.q.q.q.q.q.q.:.W W W W W W W W W W W W W W W W W /       ....",
"..Z N     < W W W W W W W W W Y A F J J H J P H K l j j @.q.q.q.q.q.q.q.q.q.q.;.! W W W W W W ~ W W W W W W W W W W ! ,     C ..",
"....N     , E F d a p i ; = - O                     X #.q.q.q.q.q.q.q.q.q.q.#.        > , : < t q r d S d a d F P I ^ <     M ..",
"....N                                             X *.q.q.q.q.q.q.q.q.q.q.@.                                          X     7 ..",
"....N                           3 2 2 2 2 @ 2 2 5 >.q.q.q.q.q.q.q.q.q.q.#.                                                  @ ..",
"....N         2 7 z z x M N N N Z ........................o.o.o.o.o.o.X.............Z C N N M z 6 7 7 3 7 z 7 2 2 @         6 ..",
"....Z x @ x Z ..........................................................................Z ..........................Z v 6 z C ..",
"................................................................................................................................",
"................................................................................................................................",
"................................................................................................................................",
"................................................................................................................................",
"................................................................................................................................",
"................................................................................................................................",
"................................................................................................................................",
"................................................................................................................................",
"................................................................................................................................",
"................................................................................................................................",
"................................................................................................................................",
"................................................................................................................................",
"................................................................................................................................"
};
