/* XPM */
static char *result[] = {
/* columns rows colors chars-per-pixel */
"64 64 153 2 ",
"   c #000000",
".  c #030D01",
"X  c #080908",
"o  c #061402",
"O  c #0A1D02",
"+  c #15150F",
"@  c #111909",
"#  c gray9",
"$  c #1D1D1D",
"%  c #0E2304",
"&  c #102704",
"*  c #122B05",
"=  c #162F09",
"-  c #163106",
";  c #193709",
":  c #1C3C0A",
">  c #1C2C16",
",  c #1D281A",
"<  c #1D3413",
"1  c #212018",
"2  c #203418",
"3  c #243C1B",
"4  c #232323",
"5  c gray17",
"6  c #333333",
"7  c #3F3E30",
"8  c #3E3E3E",
"9  c #1F410B",
"0  c #21440D",
"q  c #254B0E",
"w  c #264B11",
"e  c #28471B",
"r  c #2C4E1C",
"t  c #295310",
"y  c #2E5C14",
"u  c #2B5019",
"i  c #305F14",
"p  c #325D1C",
"a  c #346516",
"s  c #356817",
"d  c #366A18",
"f  c #38691D",
"g  c #3C741B",
"h  c #3F791D",
"j  c #3D442D",
"k  c #305022",
"l  c #345924",
"z  c #3A6526",
"x  c #3B6329",
"c  c #417E1E",
"v  c #4E4C3D",
"b  c #406D2C",
"n  c #464646",
"m  c #4D4D4D",
"M  c #5B5847",
"N  c #535353",
"B  c #5A5A5A",
"V  c #586D40",
"C  c #64614E",
"Z  c #6D6B5F",
"A  c #716F59",
"S  c #6C7553",
"D  c #626262",
"F  c #6D6D6D",
"G  c #7E7B63",
"H  c #717171",
"J  c #7B7B7B",
"K  c #458420",
"L  c #498B22",
"P  c #4E8D29",
"I  c #4E9325",
"U  c #509726",
"Y  c #539D29",
"T  c #508B33",
"R  c #518739",
"E  c #558F3A",
"W  c #579835",
"Q  c #58943D",
"!  c #5C9D3A",
"~  c #57A42A",
"^  c #59A72B",
"/  c #5CAC2C",
"(  c #61B52F",
")  c #63B337",
"_  c #66BE32",
"`  c #69BF37",
"'  c #6ABE39",
"]  c #6EC03E",
"[  c #67814C",
"{  c #738B55",
"}  c #66AF41",
"|  c #6AB744",
" . c #6AB941",
".. c #7FB959",
"X. c #72C143",
"o. c #77C248",
"O. c #7BC44E",
"+. c #838067",
"@. c #8C8A6F",
"#. c #899D68",
"$. c #9B977B",
"%. c #8CBD63",
"&. c #A3BC7C",
"*. c #83C656",
"=. c #88C75C",
"-. c #8BC85F",
";. c #91CA65",
":. c #93CA68",
">. c #99CC6E",
",. c #9BCD70",
"<. c #A7CC7D",
"1. c #A3D077",
"2. c #A4D078",
"3. c #ABD37F",
"4. c #818181",
"5. c #8D8B86",
"6. c #8E8D88",
"7. c #95948B",
"8. c #9D9B8F",
"9. c #A39F81",
"0. c #B2AE8E",
"q. c #B0B08B",
"w. c #A5A394",
"e. c #AEAB97",
"r. c #BFBB98",
"t. c #B3D687",
"y. c #B5D789",
"u. c #BCD98F",
"i. c #BEDA91",
"p. c #C7C39F",
"a. c #CAD39E",
"s. c #C5DD98",
"d. c #C9DF9B",
"f. c #C8C3A3",
"g. c #CEC9A4",
"h. c #CFDBA2",
"j. c #D5DCA7",
"k. c #DBD5AE",
"l. c #DADFAC",
"z. c #E3DEB5",
"x. c #CFE1A1",
"c. c #D0E2A1",
"v. c #D7E5A8",
"b. c #D8E5A9",
"n. c #DEE8AE",
"m. c #E4EAB4",
"M. c #E7E3B8",
"N. c #EAE4BA",
"B. c #ECEBBC",
"V. c #F3EEC2",
"C. c #F5F2C3",
"Z. c #F9F4C7",
"A. c #FDF7CA",
/* pixels */
"4.4.4.4.4.4.4.4.4.4.4.4.4.4.4.4.4.4.4.4.4.4.4.4.4.4.4.4.4.4.4.4.4.4.4.4.4.4.4.4.4.4.4.4.4.4.4.4.4.4.4.4.4.4.4.4.4.4.4.4.4.4.4.4.",
"4.4.4.4.4.4.4.4.4.4.4.4.4.4.4.4.4.4.4.4.4.4.4.4.4.4.4.4.4.4.4.4.4.4.4.4.4.4.4.4.4.4.4.4.4.4.4.4.4.4.4.4.4.4.4.4.4.4.4.4.4.4.4.4.",
"4.4.4.4.4.4.4.4.4.4.4.4.4.4.4.4.4.4.4.4.4.4.4.4.4.4.4.4.4.4.4.4.4.4.4.4.4.4.4.4.4.4.4.4.4.4.4.4.4.4.4.4.4.4.4.4.4.4.4.4.4.4.4.4.",
"4.4.4.4.4.4.4.4.4.4.4.4.4.4.4.4.4.4.4.4.4.4.4.4.4.4.4.4.4.4.4.4.4.4.4.4.4.4.4.4.4.4.4.4.4.4.4.4.4.4.4.4.4.4.4.4.4.4.4.4.4.4.4.4.",
"4.4.4.4.4.4.4.4.4.4.4.4.4.4.4.4.4.4.4.4.4.4.4.4.4.4.4.4.4.4.4.4.4.4.4.4.4.4.4.4.4.4.4.4.4.4.4.4.4.4.4.4.4.4.4.4.4.4.4.4.4.4.4.4.",
"4.4.4.4.4.4.4.4.4.4.4.4.4.4.4.4.4.4.4.4.4.4.4.4.4.4.4.4.4.4.4.4.4.4.4.4.4.4.4.4.4.4.4.4.4.4.4.4.4.4.4.4.4.4.4.4.4.4.4.4.4.4.4.4.",
"4.4.4.4.4.4.4.4.4.4.4.4.4.4.4.4.4.4.4.4.4.4.4.4.4.4.4.4.4.4.4.4.4.4.4.4.4.4.4.4.4.4.4.4.4.4.4.4.4.4.4.4.4.4.4.4.4.4.4.4.4.4.4.4.",
"4.4.4.4.4.4.4.4.4.4.4.4.4.4.4.4.4.4.4.4.4.4.4.4.4.4.4.4.4.4.4.4.4.4.4.4.4.4.4.4.4.4.4.4.4.4.4.4.4.4.4.4.4.4.4.4.4.4.4.4.4.4.4.4.",
"4.4.4.4.4.4.4.4.4.4.4.4.4.4.4.4.4.4.4.4.4.4.4.4.4.4.4.4.4.4.4.4.4.4.4.4.4.4.4.4.4.4.4.4.4.4.4.4.4.4.4.4.4.4.4.4.4.4.4.4.4.4.4.4.",
"4.4.4.4.4.4.4.4.4.4.4.4.4.4.4.4.4.4.4.4.4.4.4.4.4.4.4.4.4.4.4.4.4.4.4.4.4.4.4.4.4.4.4.4.4.4.4.4.4.4.4.4.4.4.4.4.4.4.4.4.4.4.4.4.",
"4.4.4.4.4.4.4.4.4.4.4.4.4.4.4.4.@.4.4.4.4.4.4.J F H F B B m n n n n n n n n n n n n n n n m D F w.w.8.7.5.4.4.4.4.4.4.4.4.4.4.4.",
"4.4.4.4.4.4.J F D m n 8 4 $ 4 4 4 4 4 4 6                                                   1 f.A.A.A.A.A.A.C.w.4.4.4.4.4.4.4.4.",
"4.J H D n 4                                                         .                     7 k.A.A.A.A.A.A.A.A.z.Z H 4.4.4.4.4.4.",
"4.F 4                                           - -   0 0 p f f z z s s f f f f f f f f [ M.A.A.A.A.A.A.A.A.z.v   $ 8 H 4.4.4.4.",
"4.N           = : i d g I Y Y Y Y Y U I K ^ _ _ _ _ Y g / _ _ ^ ] _ _ _ _ _ _ _ _ _ _ ;.C.A.A.A.A.A.A.A.A.z.7         N 4.4.4.4.",
"4.m     $ k I _ _ _ _ _ _ _ _ _ _ _ _ _ _ _ _ _ _ _ U y ^ _ ^ q ~ ] _ _ _ _ _ _ _ _ 1.Z.A.A.A.A.A.A.A.A.n.] ( E X     n 4.4.4.4.",
"4.n     x _ _ _ _ _ _ _ _ _ _ _ _ _ _ _ _ _ _ _ ] ( g & I ] g   c _ _ _ _ _ _ _ _ t.A.A.A.A.A.A.A.A.A.b.` _ _ _ r     n 4.4.4.4.",
"4.n     z _ _ _ _ _ _ _ _ _ _ _ _ _ _ _ _ _ _ _ ^ g 9 o t i : . y U ( _ _ _ _ _ s.A.A.A.A.A.A.A.A.A.c.` _ _ _ _ g     8 4.4.4.4.",
"4.n     d _ _ _ _ _ _ _ _ _ _ _ _ _ _ _ _ I q -         .             s ~ ] ] v.A.A.A.A.A.A.A.A.A.d._ _ _ _ _ _ U     4 4.4.4.4.",
"4.n     d _ _ _ _ _ _ _ _ _ _ _ _ _ _ ^ a                               o ! m.A.A.A.A.A.A.A.A.A.i._ _ _ _ _ _ _ (       4.4.4.4.",
"4.m     i _ _ _ _ _ _ _ _ _ _ _ _ _ ^ q           q & & y y % * t ;     C B.A.A.A.A.A.A.A.A.A.y._ _ _ _ _ _ _ _ _       J 4.4.4.",
"4.D     ; _ _ _ _ _ _ _ _ _ _ _ _ ^ -       0 K ( ^ q q ^ I * s ( _ y G V.A.A.A.A.A.A.A.A.A.3._ _ _ _ _ _ _ _ _ _ ;     D 4.4.4.",
"4.J       _ _ _ _ _ _ _ _ _ _ _ _ h     * ^ _ _ _ ^ 0 t ^ I % g ( _ <.Z.A.A.A.A.A.A.A.A.Z.2._ _ _ _ _ _ _ _ _ _ _ i     N 4.4.4.",
"4.4.      _ _ _ _ _ _ _ _ _ _ _ _ g     t _ _ _ ] I * d ( L   K _ u.A.A.A.A.A.A.A.A.A.Z.>._ _ _ _ _ _ _ _ _ _ _ _ d     n 4.4.4.",
"4.4.      _ _ _ _ _ _ _ _ _ _ _ _ U     % ^ ] ] _ I & g _ K   P x.A.A.A.A.A.A.A.A.A.C.:._ _ _ _ _ _ _ _ _ _ _ _ _ d     n 4.4.4.",
"4.4.      _ _ _ _ _ _ _ _ _ _ _ _ ( y     * s ^ _ I % g / d j l.A.A.A.A.A.A.A.A.A.C.-._ _ _ _ _ _ _ _ _ _ _ _ _ _ d     n 4.4.4.",
"4.4.      _ _ _ _ _ _ _ _ _ _ _ _ _ ^ 0       * L L % g Y V z.A.A.A.A.A.A.A.A.A.B.*._ _ _ _ _ _ _ _ _ _ _ _ _ _ _ d     n 4.4.4.",
"4.4.      _ _ _ _ _ _ _ _ _ _ _ _ _ _ ^ -         % . 9 { B.A.A.A.A.A.A.A.A.A.B.O._ _ _ _ _ _ _ _ _ _ _ _ _ _ _ _ g     8 4.4.4.",
"4.4.      _ _ _ _ _ _ _ _ _ _ _ _ _ _ _ ~ h q .       +.V.A.A.A.A.A.A.A.A.A.m.o._ _ _ _ _ _ _ _ _ _ _ _ _ _ _ _ _ I     4 4.4.4.",
"4.4.      _ _ _ _ _ _ _ _ _ _ _ _ _ _ _ ( ] ( L -   $.Z.A.A.A.A.A.A.A.A.A.n.] ] _ _ _ _ _ _ _ _ _ _ _ _ _ _ _ _ _ ~     4 4.4.4.",
"4.4.      ( _ _ _ _ _ _ _ _ _ _ _ _ _ _ ] _ _ ( Y q.A.A.A.A.A.A.A.A.A.A.g.^ ] ( _ _ _ _ _ _ _ _ _ _ _ _ _ _ _ _ _ (       4.4.4.",
"4.4.4     ~ _ _ _ _ _ _ _ _ _ _ _ _ _ ] _ _ _ ] h.A.A.A.A.A.A.A.A.A.A.g.> * ~ ] _ _ _ _ _ _ _ _ _ _ _ _ _ _ _ _ _ (       4.4.4.",
"4.4.4     I _ _ _ _ _ _ _ _ _ _ _ _ _ _ _ ] X.m.A.A.A.A.A.A.A.A.A.A.a.@     a _ _ _ _ _ _ _ _ _ _ _ _ _ _ _ _ _ _ ~     # J 4.4.",
"4.J n     g _ _ _ _ _ _ _ _ _ _ _ _ _ _ _ O.B.A.A.A.A.A.A.A.A.A.A.d._ I       _ _ _ _ _ _ _ _ _ _ _ _ _ _ _ _ _ _ ( *     F 4.4.",
"4.4.n     d _ _ _ _ _ _ _ _ _ _ _ _ ] _ -.B.A.A.A.A.A.A.A.A.A.A.u._ _ _       _ _ _ _ _ _ _ _ ] _ _ _ _ _ _ _ _ _ _ 9     D 4.4.",
"4.4.n     d _ _ _ _ _ _ _ _ _ _ _ _ ] 2.Z.A.A.A.A.A.A.A.A.A.A.t._ _ _ _       ( _ _ _ _ _ _ ] ( _ _ _ _ _ _ _ _ _ _ t .   N 4.4.",
"4.4.n     d _ _ _ _ _ _ _ _ _ _ _ ] 3.B.A.A.A.A.A.A.A.A.A.A.&._ _ _ _ _ -     ~ _ _ _ _ _ _ _ _ _ _ _ _ _ _ _ _ _ _ 0     B 4.4.",
"4.4.n     d _ _ _ _ _ _ _ _ _ _ ] y.A.A.A.A.A.A.A.A.A.A.Z.@.I _ _ _ _ _ -     ~ _ _ _ _ _ _ _ _ _ _ _ _ _ _ _ _ _ _ i     m 4.4.",
"4.4.n     d _ _ _ _ _ _ ( _ ] ] v.A.A.A.A.A.A.A.A.A.A.C.#.& I _ _ _ _ L       ( _ _ _ _ _ _ _ _ _ _ _ _ _ _ _ _ _ _ d     n 4.4.",
"4.4.m   . i _ _ _ _ _ _ ] ] o.m.A.A.A.A.A.A.A.A.A.A.V.%.g % U _ ^ h i       L _ _ _ _ _ _ _ _ _ _ _ _ _ _ _ _ _ _ _ d     n 4.4.",
"4.4.B     3 ] _ _ _ _ _ _ =.B.A.A.A.A.A.A.A.A.A.A.B.S a : . : t %         c _ _ _ _ _ _ _ _ _ _ _ _ _ _ _ _ _ _ _ _ g     n J 4.",
"4.4.m     l _ _ _ _ _ _ ,.B.A.A.A.A.A.A.A.A.A.A.N.M                   O c ( _ _ _ _ _ _ _ _ _ _ _ _ _ _ _ _ _ _ _ _ I     4 4.4.",
"4.4.n     d _ _ _ _ _ 3.A.A.A.A.A.A.A.A.A.A.A.m.v                 q c ^ _ _ _ _ _ _ _ _ _ _ _ _ _ _ _ _ _ _ _ _ _ _ ~     $ 4.4.",
"4.4.m     y _ _ _ _ u.A.A.A.A.A.A.A.A.A.A.A.m.) i   t a 0 . : a U ( _ _ _ _ _ _ _ _ _ _ _ _ _ _ _ _ _ _ _ _ _ _ _ _ }       4.4.",
"4.4.D     : ] _ ] x.A.A.A.A.A.A.A.A.A.A.A.n. .` _ L _ _ K   L _ _ _ _ _ _ _ _ _ _ _ _ _ _ _ _ _ _ _ _ _ _ _ _ _ _ _ |       J 4.",
"4.J F     < _ ] n.A.A.A.A.A.A.A.A.A.A.A.j.! W W T b z z x e x x z b R Q ! } | | ' ` _ _ _ _ _ ] _ _ _ _ _ _ _ _ _ _ _ ,     H 4.",
"4.4.F     , ..m.A.A.A.A.A.A.A.A.A.A.A.p.+                                             , > > 2 u w y g K g d g I Y ! ) <     D 4.",
"4.4.F     A B.Z.A.A.A.A.A.A.A.A.A.A.r.                                                                                X     8 4.",
"4.4.F   @.V.A.A.A.A.A.A.A.A.A.A.A.0.4 4 4 4 4 4 4 8 n n n n n n n n 4 4 $                                                   $ 4.",
"4.4.F 9.A.A.A.A.A.A.A.A.A.A.A.A.f.4.4.4.4.J 4.4.4.4.4.4.4.4.4.4.J 4.4.4.4.4.4.4.4.4.J H F F D n 6 8 8 5 8 n 8 4 4 4         6 4.",
"4.4.e.A.A.A.6.4.4.4.4.4.4.4.4.4.4.4.4.4.4.4.4.4.4.4.4.4.4.4.4.4.4.4.4.4.4.4.4.4.4.4.4.4.J 4.4.4.4.4.4.4.4.4.4.4.4.4.J B 6 n F 4.",
"4.4.4.4.6.5.4.4.4.4.4.4.4.4.4.4.4.4.4.4.4.4.4.4.4.4.4.4.4.4.4.4.4.4.4.4.4.4.4.4.4.4.4.4.4.4.4.4.4.4.4.4.4.4.4.4.4.4.4.4.4.4.4.4.",
"4.4.4.4.4.4.4.4.4.4.4.4.4.4.4.4.4.4.4.4.4.4.4.4.4.4.4.4.4.4.4.4.4.4.4.4.4.4.4.4.4.4.4.4.4.4.4.4.4.4.4.4.4.4.4.4.4.4.4.4.4.4.4.4.",
"4.4.4.4.4.4.4.4.4.4.4.4.4.4.4.4.4.4.4.4.4.4.4.4.4.4.4.4.4.4.4.4.4.4.4.4.4.4.4.4.4.4.4.4.4.4.4.4.4.4.4.4.4.4.4.4.4.4.4.4.4.4.4.4.",
"4.4.4.4.4.4.4.4.4.4.4.4.4.4.4.4.4.4.4.4.4.4.4.4.4.4.4.4.4.4.4.4.4.4.4.4.4.4.4.4.4.4.4.4.4.4.4.4.4.4.4.4.4.4.4.4.4.4.4.4.4.4.4.4.",
"4.4.4.4.4.4.4.4.4.4.4.4.4.4.4.4.4.4.4.4.4.4.4.4.4.4.4.4.4.4.4.4.4.4.4.4.4.4.4.4.4.4.4.4.4.4.4.4.4.4.4.4.4.4.4.4.4.4.4.4.4.4.4.4.",
"4.4.4.4.4.4.4.4.4.4.4.4.4.4.4.4.4.4.4.4.4.4.4.4.4.4.4.4.4.4.4.4.4.4.4.4.4.4.4.4.4.4.4.4.4.4.4.4.4.4.4.4.4.4.4.4.4.4.4.4.4.4.4.4.",
"4.4.4.4.4.4.4.4.4.4.4.4.4.4.4.4.4.4.4.4.4.4.4.4.4.4.4.4.4.4.4.4.4.4.4.4.4.4.4.4.4.4.4.4.4.4.4.4.4.4.4.4.4.4.4.4.4.4.4.4.4.4.4.4.",
"4.4.4.4.4.4.4.4.4.4.4.4.4.4.4.4.4.4.4.4.4.4.4.4.4.4.4.4.4.4.4.4.4.4.4.4.4.4.4.4.4.4.4.4.4.4.4.4.4.4.4.4.4.4.4.4.4.4.4.4.4.4.4.4.",
"4.4.4.4.4.4.4.4.4.4.4.4.4.4.4.4.4.4.4.4.4.4.4.4.4.4.4.4.4.4.4.4.4.4.4.4.4.4.4.4.4.4.4.4.4.4.4.4.4.4.4.4.4.4.4.4.4.4.4.4.4.4.4.4.",
"4.4.4.4.4.4.4.4.4.4.4.4.4.4.4.4.4.4.4.4.4.4.4.4.4.4.4.4.4.4.4.4.4.4.4.4.4.4.4.4.4.4.4.4.4.4.4.4.4.4.4.4.4.4.4.4.4.4.4.4.4.4.4.4.",
"4.4.4.4.4.4.4.4.4.4.4.4.4.4.4.4.4.4.4.4.4.4.4.4.4.4.4.4.4.4.4.4.4.4.4.4.4.4.4.4.4.4.4.4.4.4.4.4.4.4.4.4.4.4.4.4.4.4.4.4.4.4.4.4.",
"4.4.4.4.4.4.4.4.4.4.4.4.4.4.4.4.4.4.4.4.4.4.4.4.4.4.4.4.4.4.4.4.4.4.4.4.4.4.4.4.4.4.4.4.4.4.4.4.4.4.4.4.4.4.4.4.4.4.4.4.4.4.4.4.",
"4.4.4.4.4.4.4.4.4.4.4.4.4.4.4.4.4.4.4.4.4.4.4.4.4.4.4.4.4.4.4.4.4.4.4.4.4.4.4.4.4.4.4.4.4.4.4.4.4.4.4.4.4.4.4.4.4.4.4.4.4.4.4.4."
};
