/* XPM */
static char *result[] = {
/* columns rows colors chars-per-pixel */
"64 64 182 2 ",
"   c black",
".  c gray1",
"X  c #050605",
"o  c #030D01",
"O  c #080908",
"+  c #051201",
"@  c #071602",
"#  c #091A02",
"$  c #0A1D02",
"%  c #0C1F03",
"&  c gray9",
"*  c #191919",
"=  c gray10",
"-  c #1B1B1B",
";  c #1A1F19",
":  c #1E1E1E",
">  c #0C2003",
",  c #0D2203",
"<  c #0F2504",
"1  c #102704",
"2  c #112905",
"3  c #122B05",
"4  c #142D05",
"5  c #152F06",
"6  c #162F09",
"7  c #172E0B",
"8  c #163106",
"9  c #173207",
"0  c #183607",
"q  c #183608",
"w  c #193708",
"e  c #1A360A",
"r  c #1A3908",
"t  c #1B3A09",
"y  c #1C3B09",
"u  c #1C3B0B",
"i  c #1D3E0A",
"p  c #1E3F0A",
"a  c #1D3A0E",
"s  c #1A2815",
"d  c #1D2D17",
"f  c #1D2E16",
"g  c #1C2519",
"h  c #1E2A1A",
"j  c #1B3210",
"k  c #1F3615",
"l  c #203418",
"z  c #243C1B",
"x  c gray13",
"c  c #222222",
"v  c #252525",
"b  c #272727",
"n  c gray17",
"m  c #2D2D2D",
"M  c #313131",
"N  c gray20",
"B  c gray21",
"V  c #3A3A3A",
"C  c gray24",
"Z  c #3F3F3F",
"A  c #1F410B",
"S  c #1F420B",
"D  c #20430C",
"F  c #21420F",
"G  c #21440C",
"H  c #22450F",
"J  c #23480D",
"K  c #254C0E",
"L  c #264E0F",
"P  c #264B11",
"I  c #28471B",
"U  c #2C4E1C",
"Y  c #295310",
"T  c #2B5611",
"R  c #2D5A13",
"E  c #2E5C13",
"W  c #2F5D14",
"Q  c #2B5019",
"!  c #2D5518",
"~  c #305F14",
"^  c #305F15",
"/  c #305F16",
"(  c #315E19",
")  c #315D1A",
"_  c #335B1F",
"`  c #336516",
"'  c #346516",
"]  c #356817",
"[  c #366A18",
"{  c #376A18",
"}  c #376A19",
"|  c #376A1B",
" . c #37691C",
".. c #386E19",
"X. c #38681D",
"o. c #38691D",
"O. c #38681E",
"+. c #3B721A",
"@. c #3C741B",
"#. c #3C751B",
"$. c #3D761B",
"%. c #3E781C",
"&. c #3F7A1D",
"*. c #305022",
"=. c #345924",
"-. c #3A6525",
";. c #3A6526",
":. c #3A6427",
">. c #3B6328",
",. c #3B6329",
"<. c #3C612D",
"1. c #417E1E",
"2. c #406D2B",
"3. c #406C2C",
"4. c #414141",
"5. c #434343",
"6. c #464646",
"7. c #484848",
"8. c #494949",
"9. c gray30",
"0. c gray31",
"q. c #515151",
"w. c gray33",
"e. c #555555",
"r. c gray35",
"t. c gray37",
"y. c gray38",
"u. c gray40",
"i. c #6A6A6A",
"p. c #6C6C6C",
"a. c #6D6D6D",
"s. c #6F6F6F",
"d. c #717171",
"f. c #727272",
"g. c #7B7B7B",
"h. c #7E7E7E",
"j. c #43811F",
"k. c #458420",
"l. c #488921",
"z. c #498B22",
"x. c #4C8F23",
"c. c #4C9024",
"v. c #4D9224",
"b. c #4F9625",
"n. c #4F9626",
"m. c #509726",
"M. c #519A27",
"N. c #539D28",
"B. c #549F28",
"V. c #549C2B",
"C. c #549B2D",
"Z. c #508B33",
"A. c #518739",
"S. c #558F3A",
"D. c #559932",
"F. c #569834",
"G. c #579836",
"H. c #58943D",
"J. c #5B9F39",
"K. c #5C9D3D",
"L. c #55A028",
"P. c #57A42A",
"I. c #59A72B",
"U. c #58A32F",
"Y. c #5CAC2C",
"T. c #5DAD2D",
"R. c #60B32F",
"E. c #61B52F",
"W. c #63B337",
"Q. c #64BA31",
"!. c #66BE32",
"~. c #66BE33",
"^. c #67BD36",
"/. c #67BC37",
"(. c #64B13D",
"). c #68BB3A",
"_. c #65AF40",
"`. c #66AE42",
"'. c #6AB744",
"]. c #69B940",
"[. c #6AB841",
"{. c #818181",
/* pixels */
"{.{.{.{.{.{.{.{.{.{.{.{.{.{.{.{.{.{.{.{.{.{.{.{.{.{.{.{.{.{.{.{.{.{.{.{.{.{.{.{.{.{.{.{.{.{.{.{.{.{.{.{.{.{.{.{.{.{.{.{.{.{.{.{.",
"{.{.{.{.{.{.{.{.{.{.{.{.{.{.{.{.{.{.{.{.{.{.{.{.{.{.{.{.{.{.{.{.{.{.{.{.{.{.{.{.{.{.{.{.{.{.{.{.{.{.{.{.{.{.{.{.{.{.{.{.{.{.{.{.",
"{.{.{.{.{.{.{.{.{.{.{.{.{.{.{.{.{.{.{.{.{.{.{.{.{.{.{.{.{.{.{.{.{.{.{.{.{.{.{.{.{.{.{.{.{.{.{.{.{.{.{.{.{.{.{.{.{.{.{.{.{.{.{.{.",
"{.{.{.{.{.{.{.{.{.{.{.{.{.{.{.{.{.{.{.{.{.{.{.{.{.{.{.{.{.{.{.{.{.{.{.{.{.{.{.{.{.{.{.{.{.{.{.{.{.{.{.{.{.{.{.{.{.{.{.{.{.{.{.{.",
"{.{.{.{.{.{.{.{.{.{.{.{.{.{.{.{.{.{.{.{.{.{.{.{.{.{.{.{.{.{.{.{.{.{.{.{.{.{.{.{.{.{.{.{.{.{.{.{.{.{.{.{.{.{.{.{.{.{.{.{.{.{.{.{.",
"{.{.{.{.{.{.{.{.{.{.{.{.{.{.{.{.{.{.{.{.{.{.{.{.{.{.{.{.{.{.{.{.{.{.{.{.{.{.{.{.{.{.{.{.{.{.{.{.{.{.{.{.{.{.{.{.{.{.{.{.{.{.{.{.",
"{.{.{.{.{.{.{.{.{.{.{.{.{.{.{.{.{.{.{.{.{.{.{.{.{.{.{.{.{.{.{.{.{.{.{.{.{.{.{.{.{.{.{.{.{.{.{.{.{.{.{.{.{.{.{.{.{.{.{.{.{.{.{.{.",
"{.{.{.{.{.{.{.{.{.{.{.{.{.{.{.{.{.{.{.{.{.{.{.{.{.{.{.{.{.{.{.{.{.{.{.{.{.{.{.{.{.{.{.{.{.{.{.{.{.{.{.{.{.{.{.{.{.{.{.{.{.{.{.{.",
"{.{.{.{.{.{.{.{.{.{.{.{.{.{.{.{.{.{.{.{.{.{.{.{.{.{.{.{.{.{.{.{.{.{.{.{.{.{.{.{.{.{.{.{.{.{.{.{.{.{.{.{.{.{.{.{.{.{.{.{.{.{.{.{.",
"{.{.{.{.{.{.{.{.{.{.{.{.{.{.{.{.{.{.{.{.{.{.{.{.{.{.{.{.{.{.{.{.{.{.{.{.{.{.{.{.{.{.{.{.{.{.{.{.{.{.{.{.{.{.{.{.{.{.{.{.{.{.{.{.",
"{.{.{.{.{.{.{.{.{.{.{.{.{.{.{.{.{.{.{.{.{.{.{.g.s.s.p.r.r.9.6.6.6.6.6.6.6.6.6.6.6.6.6.6.6.9.y.s.g.{.{.{.{.{.{.{.{.{.{.{.{.{.{.{.",
"{.{.{.{.{.{.g.s.y.9.6.Z v x x x x x x v N                                                         c Z 6.6.q.d.{.{.{.{.{.{.{.{.{.",
"{.h.f.t.4.b                                                                                                   c 7.d.{.{.{.{.{.{.",
"{.a.v                                           8 8   H F ( O.X.X.o.o.X.X.O.O.O.o.o.o.O.O.) a 7                   - Z d.{.{.{.{.",
"{.e.          6 y ~ [ @.c.N.N.N.N.N.N.c.k.I.!.!.!.Q.N.$.Y.!.!.I.!.!.!.!.!.!.!.!.!.!.!.!.!.!.!.!.E.m.@.[ [ !           q.{.{.{.{.",
"{.7.    ; *.v.!.!.!.!.!.!.!.!.!.!.!.!.!.!.!.!.!.!.Q.b.E Y.!.I.J I.!.!.!.!.!.!.!.!.!.!.!.!.!.!.!.!.!.!.!.!.!.E.S.O     6.{.{.{.{.",
"{.6.    <.!.!.!.!.!.!.!.!.!.!.!.!.!.!.!.!.!.!.!.!.E.#.3 n.!.@.  &.!.!.!.!.!.!.!.!.!.!.!.!.!.!.!.!.!.!.!.!.!.!.!.U     6.{.{.{.{.",
"{.6.    -.!.!.!.!.!.!.!.!.!.!.!.!.!.!.!.!.!.!.!.I.@.i + Y ' y o R m.E.!.!.!.!.!.!.!.!.!.!.!.!.!.!.!.!.!.!.!.!.!.@.    Z {.{.{.{.",
"{.6.    [ !.!.!.!.!.!.!.!.!.!.!.!.!.!.!.!.v.L 5                       ` I.!.!.!.!.!.!.!.!.!.!.!.!.!.!.!.!.!.!.!.m.    c {.{.{.{.",
"{.6.    [ !.!.!.!.!.!.!.!.!.!.!.!.!.!.I.`                               @ b.!.!.!.!.!.!.!.!.!.!.!.!.!.!.!.!.!.!.E.      {.{.{.{.",
"{.9.    ~ !.!.!.!.!.!.!.!.!.!.!.!.!.I.J           K 1 1 W W , 3 Y w       ` !.!.!.!.!.!.!.!.!.!.!.!.!.!.!.!.!.!.!.      g.{.{.{.",
"{.u.    e !.!.!.!.!.!.!.!.!.!.!.!.I.9       G k.E.I.K K I.n.2 ] E.!.W   o j.!.!.!.!.!.!.!.!.!.!.!.!.!.!.!.!.!.!.!.w     u.{.{.{.",
"{.g.      !.!.!.!.!.!.!.!.!.!.!.!.&.    3 I.!.!.!.I.G Y I.n.> %.E.!.R.M.M.R.!.!.!.!.!.!.!.!.!.!.!.!.!.!.!.!.!.!.!.^     9.{.{.{.",
"{.{.      !.!.!.!.!.!.!.!.!.!.!.!.@.    Y !.!.!.!.n.2 ] E.z.  k.!.!.!.!.!.!.!.!.!.!.!.!.!.!.!.!.!.!.!.!.!.!.!.!.!.[     6.{.{.{.",
"{.{.      !.!.!.!.!.!.!.!.!.!.!.!.m.    < I.!.!.!.n.< +.E.k.  z.!.!.!.!.!.!.!.!.!.!.!.!.!.!.!.!.!.!.!.!.!.!.!.!.!.[     6.{.{.{.",
"{.{.      !.!.!.!.!.!.!.!.!.!.!.!.E.R     3 [ I.!.n.< +.T...< n.!.!.!.!.!.!.!.!.!.!.!.!.!.!.!.!.!.!.!.!.!.!.!.!.!.[     6.{.{.{.",
"{.{.      !.!.!.!.!.!.!.!.!.!.!.!.!.I.J       2 l.x.> %.B.Y G I.!.!.!.!.!.!.!.!.!.!.!.!.!.!.!.!.!.!.!.!.!.!.!.!.!.[     6.{.{.{.",
"{.{.      !.!.!.!.!.!.!.!.!.!.!.!.!.!.I.9         >   J [ S K I.!.!.!.!.!.!.!.!.!.!.!.!.!.!.!.!.!.!.!.!.!.!.!.!.!.@.    Z {.{.{.",
"{.{.      !.!.!.!.!.!.!.!.!.!.!.!.!.!.!.I.&.L                   w ] m.E.!.!.!.!.!.!.!.!.!.!.!.!.!.!.!.!.!.!.!.!.!.c.    v {.{.{.",
"{.{.      !.!.!.!.!.!.!.!.!.!.!.!.!.!.!.!.!.E.l.9                     r n.!.!.!.!.!.!.!.!.!.!.!.!.!.!.!.!.!.!.!.!.P.    : {.{.{.",
"{.{.      E.!.!.!.!.!.!.!.!.!.!.!.!.!.!.!.!.!.!.B.A 1 W K               # L.!.!.!.!.!.!.!.!.!.!.!.!.!.!.!.!.!.!.!.E.      {.{.{.",
"{.{.:     P.!.!.!.!.!.!.!.!.!.!.!.!.!.!.!.!.!.!.I.K K I.n.2 ] T.m.] +     4 I.!.!.!.!.!.!.!.!.!.!.!.!.!.!.!.!.!.!.E.      {.{.{.",
"{.{.v     c.!.!.!.!.!.!.!.!.!.!.!.!.!.!.!.!.!.!.I.K K I.n.< +.E.!.!.c.+     ` !.!.!.!.!.!.!.!.!.!.!.!.!.!.!.!.!.!.Y.    & g.{.{.",
"{.{.Z     @.!.!.!.!.!.!.!.!.!.!.!.!.!.!.!.!.!.!.I.K K I.n.> %.E.!.!.!.v.      !.!.!.!.!.!.!.!.!.!.!.!.!.!.!.!.!.!.E.3     s.{.{.",
"{.{.6.    [ !.!.!.!.!.!.!.!.!.!.!.!.!.!.!.!.!.!.I.K K I.k.  k.!.!.!.!.!.      !.!.!.!.!.!.!.!.!.!.!.!.!.!.!.!.!.!.!.y     y.{.{.",
"{.{.6.    { !.!.!.!.!.!.!.!.!.!.!.!.!.!.!.!.!.!.I.K K B.%.> n.!.!.!.!.!.      E.!.!.!.!.!.!.!.!.!.!.!.!.!.!.!.!.!.!.T     w.{.{.",
"{.{.6.    { !.!.!.!.!.!.!.!.!.!.!.!.!.!.!.!.!.!.I.G Y B.+.< n.!.!.!.!.!.8     P.!.!.!.!.!.!.!.!.!.!.!.!.!.!.!.!.!.!.D     r.{.{.",
"{.{.6.    } !.!.!.!.!.!.!.!.!.!.!.!.!.!.!.!.!.!.n.2 ] T.+.< n.!.!.!.!.!.8     P.!.!.!.!.!.!.!.!.!.!.!.!.!.!.!.!.!.!.~     9.{.{.",
"{.{.6.     .!.!.!.!.!.!.!.!.!.!.!.E.Y.E.!.!.!.!.n.< +.T.+.< n.!.!.!.!.z.      E.!.!.!.!.!.!.!.!.!.!.!.!.!.!.!.!.!.!.[     6.{.{.",
"{.{.9.    =.!.!.!.!.!.!.!.!.!.!.!.1.  G Y @.k.I.n.> %.T.+.< n.!.I.&.~       z.!.!.!.!.!.!.!.!.!.!.!.!.!.!.!.!.!.!.!.[     6.{.{.",
"{.{.r.    z !.!.!.!.!.!.!.!.!.!.!.p             w   A ' i o y Y <         1.!.!.!.!.!.!.!.!.!.!.!.!.!.!.!.!.!.!.!.!.@.    Z {.{.",
"{.{.9.    _ !.!.!.!.!.!.!.!.!.!.!.n.3                                 $ 1.E.!.!.!.!.!.!.!.!.!.!.!.!.!.!.!.!.!.!.!.!.c.    v {.{.",
"{.{.6.    | !.!.!.!.!.!.!.!.!.!.!.!.I.[ G t L                     L &.I.!.!.!.!.!.!.!.!.!.!.!.!.!.!.!.!.!.!.!.!.!.!.U.    : {.{.",
"{.{.9.    / !.!.!.!.!.!.!.!.!.!.!.!.!.!.!.!.!.I.~   Y ' A o y ' m.E.!.!.!.!.!.!.!.!.!.!.!.!.!.!.!.!.!.!.!.!.!.!.!.!._.      {.{.",
"{.{.y.    u !.!.!.!.!.!.!.!.!.!.!.!.!.!.!.!.!.!.!.z.!.!.k.  z.!.!.!.!.!.!.!.!.!.!.!.!.!.!.!.!.!.!.!.!.!.!.!.!.!.!.!.[.      g.{.",
"{.{.i.    j !.!.!.!.!.!.!.!.!.I.k.c.N.N.V.D.G.F.Z.2.;.:.>.I >.,.>.3.A.H.K.`.'.].).^.~.!.!.!.!.!.!.!.!.!.!.!.!.!.!.!./.s     s.{.",
"{.{.i.    h (.m.@.[ [ ~ y 0 q %                                                       g d f k Q P W @.k.@.[ @.c.C.J.W.l     y.{.",
"{.{.i.    .                                                                                                           X     V {.",
"{.{.i.                          m v x x x x x x v Z 6.6.6.6.6.6.6.Z v x :                                                   = {.",
"{.{.s.        c Z 6.6.9.y.i.i.s.g.{.{.{.{.{.{.{.{.{.{.{.{.{.{.{.{.{.{.{.{.{.{.{.{.{.g.s.i.i.y.5.M C Z n Z 6.Z v x :         M {.",
"{.{.g.8.* 0.g.{.{.{.{.{.{.{.{.{.{.{.{.{.{.{.{.{.{.{.{.{.{.{.{.{.{.{.{.{.{.{.{.{.{.{.{.{.{.{.{.{.{.{.{.{.{.{.{.{.{.{.g.r.B 6.d.{.",
"{.{.{.{.{.{.{.{.{.{.{.{.{.{.{.{.{.{.{.{.{.{.{.{.{.{.{.{.{.{.{.{.{.{.{.{.{.{.{.{.{.{.{.{.{.{.{.{.{.{.{.{.{.{.{.{.{.{.{.{.{.{.{.{.",
"{.{.{.{.{.{.{.{.{.{.{.{.{.{.{.{.{.{.{.{.{.{.{.{.{.{.{.{.{.{.{.{.{.{.{.{.{.{.{.{.{.{.{.{.{.{.{.{.{.{.{.{.{.{.{.{.{.{.{.{.{.{.{.{.",
"{.{.{.{.{.{.{.{.{.{.{.{.{.{.{.{.{.{.{.{.{.{.{.{.{.{.{.{.{.{.{.{.{.{.{.{.{.{.{.{.{.{.{.{.{.{.{.{.{.{.{.{.{.{.{.{.{.{.{.{.{.{.{.{.",
"{.{.{.{.{.{.{.{.{.{.{.{.{.{.{.{.{.{.{.{.{.{.{.{.{.{.{.{.{.{.{.{.{.{.{.{.{.{.{.{.{.{.{.{.{.{.{.{.{.{.{.{.{.{.{.{.{.{.{.{.{.{.{.{.",
"{.{.{.{.{.{.{.{.{.{.{.{.{.{.{.{.{.{.{.{.{.{.{.{.{.{.{.{.{.{.{.{.{.{.{.{.{.{.{.{.{.{.{.{.{.{.{.{.{.{.{.{.{.{.{.{.{.{.{.{.{.{.{.{.",
"{.{.{.{.{.{.{.{.{.{.{.{.{.{.{.{.{.{.{.{.{.{.{.{.{.{.{.{.{.{.{.{.{.{.{.{.{.{.{.{.{.{.{.{.{.{.{.{.{.{.{.{.{.{.{.{.{.{.{.{.{.{.{.{.",
"{.{.{.{.{.{.{.{.{.{.{.{.{.{.{.{.{.{.{.{.{.{.{.{.{.{.{.{.{.{.{.{.{.{.{.{.{.{.{.{.{.{.{.{.{.{.{.{.{.{.{.{.{.{.{.{.{.{.{.{.{.{.{.{.",
"{.{.{.{.{.{.{.{.{.{.{.{.{.{.{.{.{.{.{.{.{.{.{.{.{.{.{.{.{.{.{.{.{.{.{.{.{.{.{.{.{.{.{.{.{.{.{.{.{.{.{.{.{.{.{.{.{.{.{.{.{.{.{.{.",
"{.{.{.{.{.{.{.{.{.{.{.{.{.{.{.{.{.{.{.{.{.{.{.{.{.{.{.{.{.{.{.{.{.{.{.{.{.{.{.{.{.{.{.{.{.{.{.{.{.{.{.{.{.{.{.{.{.{.{.{.{.{.{.{.",
"{.{.{.{.{.{.{.{.{.{.{.{.{.{.{.{.{.{.{.{.{.{.{.{.{.{.{.{.{.{.{.{.{.{.{.{.{.{.{.{.{.{.{.{.{.{.{.{.{.{.{.{.{.{.{.{.{.{.{.{.{.{.{.{.",
"{.{.{.{.{.{.{.{.{.{.{.{.{.{.{.{.{.{.{.{.{.{.{.{.{.{.{.{.{.{.{.{.{.{.{.{.{.{.{.{.{.{.{.{.{.{.{.{.{.{.{.{.{.{.{.{.{.{.{.{.{.{.{.{.",
"{.{.{.{.{.{.{.{.{.{.{.{.{.{.{.{.{.{.{.{.{.{.{.{.{.{.{.{.{.{.{.{.{.{.{.{.{.{.{.{.{.{.{.{.{.{.{.{.{.{.{.{.{.{.{.{.{.{.{.{.{.{.{.{.",
"{.{.{.{.{.{.{.{.{.{.{.{.{.{.{.{.{.{.{.{.{.{.{.{.{.{.{.{.{.{.{.{.{.{.{.{.{.{.{.{.{.{.{.{.{.{.{.{.{.{.{.{.{.{.{.{.{.{.{.{.{.{.{.{."
};
