/* XPM */
static char *_a922573ae7d48c2934c5ca0a5de675aCpetJh28ytCucbUE[] = {
/* columns rows colors chars-per-pixel */
"64 64 179 2 ",
"   c black",
".  c gray1",
"X  c #050605",
"o  c #030D01",
"O  c #080908",
"+  c #051201",
"@  c #071602",
"#  c #091A02",
"$  c #0A1D02",
"%  c gray10",
"&  c #1E1E1E",
"*  c #0C2003",
"=  c #0F2504",
"-  c #102704",
";  c #112905",
":  c #122B05",
">  c #152F06",
",  c #162F09",
"<  c #173207",
"1  c #183607",
"2  c #1A360A",
"3  c #1A3908",
"4  c #1C3B09",
"5  c #1D3E0A",
"6  c #1D3A0E",
"7  c #1A2815",
"8  c #1D2D17",
"9  c #1D2E16",
"0  c #1C2519",
"q  c #1E2A1A",
"w  c #1B3210",
"e  c #1F3615",
"r  c #203418",
"t  c #243C1B",
"y  c gray13",
"u  c #272621",
"i  c #252525",
"p  c #2D2D2D",
"a  c #343328",
"s  c #37362A",
"d  c gray20",
"f  c gray21",
"g  c #3A3A3A",
"h  c #3F3F3F",
"j  c #1F410B",
"k  c #21420F",
"l  c #21440C",
"z  c #23480D",
"x  c #254C0E",
"c  c #264E0F",
"v  c #28471B",
"b  c #2C4E1C",
"n  c #295310",
"m  c #2D5A13",
"M  c #2E5C13",
"N  c #2F5D14",
"B  c #2B5019",
"V  c #2D5518",
"C  c #305F14",
"Z  c #315D1A",
"A  c #335B1F",
"S  c #336516",
"D  c #346516",
"F  c #356817",
"G  c #366A18",
"H  c #376A19",
"J  c #37691C",
"K  c #386E19",
"L  c #38681D",
"P  c #38691D",
"I  c #3B721A",
"U  c #3C741B",
"Y  c #3D761B",
"T  c #3E781C",
"R  c #3F7A1D",
"E  c #305022",
"W  c #345924",
"Q  c #3A6525",
"!  c #3A6526",
"~  c #3B6328",
"^  c #3B6329",
"/  c #3C612D",
"(  c #417E1E",
")  c #504E3E",
"_  c #406D2B",
"`  c #406C2C",
"'  c #414141",
"]  c #464646",
"[  c #484848",
"{  c #494949",
"}  c gray30",
"|  c #515151",
" . c #555555",
".. c gray35",
"X. c gray37",
"o. c #6D7853",
"O. c gray38",
"+. c gray40",
"@. c #6A6A6A",
"#. c #6C6C6B",
"$. c #6D6D6D",
"%. c #6F6F6F",
"&. c #716F60",
"*. c #717171",
"=. c #727272",
"-. c #7B7B7B",
";. c #7E7E7E",
":. c #43811F",
">. c #458420",
",. c #488921",
"<. c #498B22",
"1. c #4C9024",
"2. c #4F9626",
"3. c #509726",
"4. c #519A27",
"5. c #539D28",
"6. c #549C2B",
"7. c #508B33",
"8. c #518739",
"9. c #558F3A",
"0. c #559932",
"q. c #569834",
"w. c #58943D",
"e. c #5B9F39",
"r. c #5C9D3D",
"t. c #55A028",
"y. c #57A42A",
"u. c #59A72B",
"i. c #5DAD2D",
"p. c #60B32F",
"a. c #61B52F",
"s. c #63B337",
"d. c #64BA31",
"f. c #66BE32",
"g. c #67BE34",
"h. c #64B13D",
"j. c #68BB3A",
"k. c #6CBF3A",
"l. c #66AE42",
"z. c #6AB744",
"x. c #69B940",
"c. c #77C248",
"v. c #8E8B75",
"b. c #A1A67E",
"n. c #81C554",
"m. c #8FC964",
"M. c #98CC6C",
"N. c #9FCE73",
"B. c #A8D17C",
"V. c #818181",
"C. c #838382",
"Z. c #878684",
"A. c #8B8A86",
"S. c #908F86",
"D. c #A9A586",
"F. c #B5B190",
"G. c #B7CA8E",
"H. c #B7D78B",
"J. c #C7C29E",
"K. c #CADF9C",
"L. c #CEC9A4",
"P. c #D0CBA6",
"I. c #D6D1AE",
"U. c #E3DDB5",
"Y. c #D6E4A7",
"T. c #E1EAB1",
"R. c #E7E1B9",
"E. c #ECE6BC",
"W. c #EBEEBA",
"Q. c #EDE8BF",
"!. c #EFE9BF",
"~. c #F0EAC0",
"^. c #F4EFC3",
"/. c #F1F1C0",
"(. c #F6F0C4",
"). c #F9F3C7",
"_. c #F9F5C7",
"`. c #FBF6C9",
"'. c #FDF7CA",
/* pixels */
"V.V.V.V.V.V.V.V.V.V.V.V.V.V.V.V.V.V.V.V.V.V.V.V.V.V.V.V.V.V.V.V.V.V.V.V.V.V.V.V.V.V.V.V.V.V.V.V.V.V.V.V.V.V.V.V.V.V.V.V.V.V.V.V.",
"V.V.V.V.V.V.V.V.V.V.V.V.V.V.V.V.V.V.V.V.V.V.V.V.V.V.V.V.V.V.V.V.V.V.V.V.V.V.V.V.V.V.V.V.V.V.V.V.V.V.V.V.V.V.V.V.V.V.V.V.V.V.V.V.",
"V.V.V.V.V.V.V.V.V.V.V.V.V.V.V.V.V.V.V.V.V.V.V.V.V.V.V.V.V.V.V.V.V.V.V.V.V.V.V.V.V.V.V.V.V.V.V.V.V.V.V.V.V.V.V.V.V.V.V.V.V.V.V.V.",
"V.V.V.V.V.V.V.V.V.V.V.V.V.V.V.V.V.V.V.V.V.V.V.V.V.V.V.V.V.V.V.V.V.V.V.V.V.V.V.V.V.V.V.V.V.V.V.V.V.V.V.V.V.V.V.V.V.V.V.V.V.V.V.V.",
"V.V.V.V.V.V.V.V.V.V.V.V.V.V.V.V.V.V.V.V.V.V.V.V.V.V.V.V.V.V.V.V.V.V.V.V.V.V.V.V.V.V.V.V.V.V.V.V.V.V.V.V.V.V.V.V.V.V.V.V.V.V.V.V.",
"V.V.V.V.V.V.V.V.V.V.V.V.V.V.V.V.V.V.V.V.V.V.V.V.V.V.V.V.V.V.V.V.V.V.V.V.V.V.V.V.V.V.V.V.V.V.V.V.V.V.V.V.V.V.V.V.V.V.V.V.V.V.V.V.",
"V.V.V.V.V.V.V.V.V.V.V.V.V.V.V.V.V.V.V.V.V.V.V.V.V.V.V.V.V.V.V.V.V.V.V.V.V.V.V.V.V.V.V.V.V.V.V.V.V.V.V.V.V.V.V.V.V.V.V.V.V.V.V.V.",
"V.V.V.V.V.V.V.V.V.V.V.V.V.V.V.V.V.V.V.V.V.V.V.V.V.V.V.V.V.V.V.V.V.V.V.V.V.V.V.V.V.V.V.V.V.V.V.V.V.V.V.V.V.V.V.V.V.V.V.V.V.V.V.V.",
"V.V.V.V.V.V.V.V.V.V.V.V.V.V.V.V.V.V.V.V.V.V.V.V.V.V.V.V.V.V.V.V.V.V.V.V.V.V.V.V.V.V.V.V.V.V.V.V.V.V.V.V.V.V.V.V.V.V.V.V.V.V.V.V.",
"V.V.V.V.V.V.V.V.V.V.V.V.V.V.V.V.V.V.V.V.V.V.V.V.V.V.V.V.V.V.V.V.V.V.V.V.V.V.V.V.V.V.V.V.V.V.V.V.V.V.V.V.V.V.V.V.V.V.V.V.V.V.V.V.",
"V.V.V.V.V.V.V.V.V.V.V.V.V.V.V.V.V.V.V.V.V.V.V.-.$.*.$.....} ] ] ] ] ] ] ] ] ] ] ] ] ] ] ] } O.%.-.V.V.V.V.V.V.V.V.V.V.V.V.V.V.V.",
"V.V.V.V.V.V.-.*.O.} ] h i y y y y y y i d                                                         y ' ] ] | *.V.V.V.V.V.V.V.V.V.",
"V.;.*.X.' i                                                                                                   y [ *.V.V.V.V.V.V.",
"V.$.i                                           < <   l l S ! G P P P P P P L L P P P J ! Z 6 ,                 . y E *.V.V.V.V.",
"V. .          , 4 C G U 1.5.5.5.5.5.5.1.>.u.f.f.f.d.5.Y u.f.f.u.f.f.f.f.f.f.f.f.g.f.f.f.f.f.f.f.a.4.U G G V   . . .   | V.V.V.V.",
"V.[     0 E 1.f.f.f.f.f.f.f.f.f.f.f.f.f.f.f.f.f.f.d.2.N i.f.u.z u.f.f.f.f.f.f.f.f.f.f.f.f.f.f.f.f.f.f.f.f.g.s.9.O .   ] V.V.V.V.",
"V.]     / f.f.f.f.f.f.f.f.f.f.f.f.f.f.f.f.f.f.f.f.a.U : 2.f.I   R f.f.f.f.f.f.f.f.f.f.f.f.f.f.f.f.f.f.f.f.f.f.f.b     ] V.V.V.V.",
"V.]     ! f.f.f.f.f.f.f.f.f.f.f.f.f.f.f.f.f.f.f.u.U 5 + n D 5 o m 3.a.f.f.f.f.f.f.f.f.f.f.f.f.f.f.f.f.f.f.f.f.f.U     ' V.V.V.V.",
"V.]     G f.f.f.f.f.f.f.f.f.f.f.f.f.f.f.f.1.c >                       S u.f.f.f.f.f.f.f.f.f.f.f.f.f.f.f.f.f.f.f.3.    y V.V.V.V.",
"V.]     G f.f.f.f.f.f.f.f.f.f.f.f.f.f.u.D                               @ 2.f.f.f.f.f.f.f.f.f.f.f.f.f.f.f.f.f.f.a.      V.V.V.V.",
"V.}     C f.f.f.f.f.f.f.f.f.f.f.f.f.u.z           c = = N M $ : n 2       S f.f.f.f.f.f.f.f.f.f.f.f.f.f.f.f.f.f.f.      -.V.V.V.",
"V.+.    2 f.f.f.f.f.f.f.f.f.f.f.f.u.<       l >.d.u.x x u.4.: F a.f.N   o :.f.f.f.f.f.f.f.f.f.f.f.f.f.f.f.f.f.f.f.2     +.V.V.V.",
"V.-.      f.f.f.f.f.f.f.f.f.f.f.f.R     : u.f.f.f.u.l n u.2.* R a.f.a.4.4.p.f.f.f.f.f.f.f.f.f.f.f.f.f.f.f.f.f.f.f.S     } V.V.V.",
"V.V.      f.f.f.f.f.f.f.f.f.f.f.f.U     n f.f.f.f.2.: D d.,.  >.f.f.f.f.f.f.f.f.f.f.f.f.f.f.f.f.f.f.f.f.f.f.f.f.f.D     ] V.V.V.",
"V.V.      f.f.f.f.f.f.f.f.f.f.f.f.4.    - u.f.f.f.2.= I a.>.  ,.f.f.f.f.f.f.f.f.f.f.f.f.f.f.f.f.f.f.f.f.f.f.f.f.f.G     ] V.V.V.",
"V.V.      f.f.f.f.f.f.f.f.f.f.f.f.a.m     : G u.f.2.= I i.K = 2.f.f.f.f.f.f.f.f.f.f.f.f.f.f.f.f.f.f.f.f.f.f.f.f.f.G     ] V.V.V.",
"V.V.      f.f.f.f.f.f.f.f.f.f.f.f.f.u.z       : ,.1.$ ( t.n l u.f.f.f.f.f.f.f.f.f.f.f.f.f.f.f.f.f.f.f.f.f.f.f.f.f.G     ] V.V.V.",
"V.V.      f.f.f.f.f.f.f.f.f.f.f.f.f.f.u.<         *   l F j c u.f.f.f.f.f.f.f.f.f.f.f.f.f.f.f.f.f.f.f.f.f.f.f.f.f.U     h V.V.V.",
"V.V.      f.f.f.f.f.f.f.f.f.f.f.f.f.f.f.u.R c                   2 F 4.a.f.f.f.f.f.f.f.f.f.f.f.f.f.f.f.f.f.f.f.f.f.1.    i V.V.V.",
"V.V.      f.f.f.f.f.f.f.f.f.f.f.f.f.f.f.f.f.a.,.<                     3 2.f.f.f.f.f.f.f.f.f.f.f.f.f.f.f.f.f.f.f.f.y.    & V.V.V.",
"V.V.      a.f.f.f.f.f.f.f.f.f.f.f.f.f.f.f.f.f.f.t.j = M c               # t.f.f.f.f.f.f.f.f.f.f.f.f.f.f.f.f.f.f.f.a.      V.V.V.",
"V.V.&     y.f.f.f.f.f.f.f.f.f.f.f.f.f.f.f.f.f.f.u.c c u.2.: F i.3.F +     : u.f.f.f.f.f.f.f.f.f.f.f.f.f.f.f.f.f.f.a.      V.V.V.",
"V.V.i     <.f.f.f.f.f.f.f.f.f.f.f.f.f.f.f.f.f.f.u.x c u.2.= I p.f.f.1.+     S f.f.f.f.f.f.f.f.f.f.f.f.f.f.f.f.f.f.i.    u S.V.V.",
"V.V.h     Y f.f.f.f.f.f.f.f.f.f.f.f.f.f.f.f.f.f.u.x x u.2.# R d.f.f.f.1.      f.f.f.f.f.f.f.f.f.f.f.f.f.f.f.f.f.f.a.:   J.Q.Z.V.",
"V.V.]     K f.f.f.f.f.f.f.f.f.f.f.f.f.f.f.f.f.f.u.x c u.>.  >.f.f.f.f.f.      f.f.f.f.f.f.f.f.f.f.f.f.f.f.f.f.f.f.f.3 F.'.'.A.V.",
"V.V.]     H f.f.f.f.f.f.f.f.f.f.f.f.f.f.f.f.f.f.u.x c 5.R * 2.f.f.f.f.f.      a.f.f.f.f.f.f.f.f.f.f.f.f.f.f.f.f.f.f.b.'.'.'.V.V.",
"V.V.]     G f.f.f.f.f.f.f.f.f.f.f.f.f.f.f.f.f.f.u.j n 5.I = 2.f.f.f.f.f.<     y.f.f.f.f.f.f.f.f.f.f.f.f.f.f.f.f.f.N._.'.'._.V.V.",
"V.V.]     G f.f.f.f.f.f.f.f.f.f.f.f.f.f.f.f.f.f.2.: D i.I = 2.f.f.f.f.f.<     y.f.f.f.f.f.f.f.f.f.f.f.f.f.f.f.f.m._.'.'.'.(.V.V.",
"V.V.]     J f.f.f.f.f.f.f.f.f.f.f.a.i.a.f.f.f.f.2.= I i.I = 2.f.f.f.f.,.      a.f.f.f.f.f.f.f.f.f.f.f.f.f.f.f.n.!.'.'.'.'.Q.V.V.",
"V.V.}     W f.f.f.f.f.f.f.f.f.f.f.(   l n U :.u.2.* R i.I = 2.f.u.R S       ,.f.f.f.f.f.f.f.f.f.f.f.f.f.f.f.c.W.'.'.'.'.'.R.V.V.",
"V.V...    t f.f.f.f.f.f.f.f.f.f.f.j             2   j D 5 o 4 n =         ( f.f.f.f.f.f.f.f.f.f.f.f.f.f.f.k.T.'.'.'.'.'.'.v.V.V.",
"V.V.}     W f.f.f.f.f.f.f.f.f.f.f.2.:                                 $ ( a.f.f.f.f.f.f.f.f.f.f.f.f.f.f.g.Y.'.'.'.'.'.'.D.u V.V.",
"V.V.]     J f.f.f.f.f.f.f.f.f.f.f.f.u.F l 4 c                     c R u.f.f.f.f.f.f.f.f.f.f.f.f.f.f.f.f.K.'.'.'.'.'.'.L.  0 V.V.",
"V.V.}     S f.f.f.f.f.f.f.f.f.f.f.f.f.f.f.f.f.u.S   n D j o 5 S 3.a.f.f.f.f.f.f.f.f.f.f.f.f.f.f.f.f.f.H.'.'.'.'.'.'.W.a     V.V.",
"V.V.O.    5 f.f.f.f.f.f.f.f.f.f.f.f.f.f.f.f.f.f.f.<.f.f.>.  ,.f.f.f.f.f.f.f.f.f.f.f.f.f.f.f.f.f.f.f.B.'.'.'.'.'.'.W.m.      -.V.",
"V.V.@.    w f.f.f.f.f.f.f.f.f.u.:.1.5.6.6.0.q.q.7.` ! ! ~ v ~ ~ ~ ` 8.w.r.l.z.x.j.g.g.f.f.f.f.f.f.M._.'.'.'.'.'.`.B.s.7     *.V.",
"V.V.@.    q h.2.U G G C 4 1 3 *                                                       0 8 8 e B o./.'.'.'.'.'.'.G.e.s.r     O.V.",
"V.V.$.                                                                                        ) Q.'.'.'.'.'.'.P.      .     g V.",
"V.V.@.                          p i y y y y y y i h ] ] ] ] ] ] ] h i y &                   s U.'.'.'.'.'.'.R.s             % V.",
"V.V.$.        y ' ] ] } O.@.@.$.-.V.V.V.V.V.V.V.V.V.V.V.V.V.V.V.V.V.V.V.V.V.V.V.V.V.;.$.@.$.I.^.(.(.(.(.(.~.#.i y &         d V.",
"V.V.;.] % } ;.V.V.V.V.V.V.V.V.V.V.V.V.V.V.V.V.V.V.V.V.V.V.V.V.V.V.V.V.V.V.V.V.V.V.V.V.V.V.V.V.V.V.V.v.;.V.V.V.V.V.V.-...f ] *.V.",
"V.V.V.V.V.V.V.V.V.V.V.V.V.V.V.V.V.V.V.V.V.V.V.V.V.V.V.V.V.V.V.V.V.V.V.V.V.V.V.V.V.V.V.V.V.V.V.V.V.V.V.;.V.V.V.V.V.V.V.V.V.V.V.V.",
"V.V.V.V.V.V.V.V.V.V.V.V.V.V.V.V.V.V.V.V.V.V.V.V.V.V.V.V.V.V.V.V.V.V.V.V.V.V.V.V.V.V.V.V.V.V.V.V.V.V.V.V.V.V.V.V.V.V.V.V.V.V.V.V.",
"V.V.V.V.V.V.V.V.V.V.V.V.V.V.V.V.V.V.V.V.V.V.V.V.V.V.V.V.V.V.V.V.V.V.V.V.V.V.V.V.V.V.V.V.V.V.V.V.V.V.V.V.V.V.V.V.V.V.V.V.V.V.V.V.",
"V.V.V.V.V.V.V.V.V.V.V.V.V.V.V.V.V.V.V.V.V.V.V.V.V.V.V.V.V.V.V.V.V.V.V.V.V.V.V.V.V.V.V.V.V.V.V.V.V.V.V.V.V.V.V.V.V.V.V.V.V.V.V.V.",
"V.V.V.V.V.V.V.V.V.V.V.V.V.V.V.V.V.V.V.V.V.V.V.V.V.V.V.V.V.V.V.V.V.V.V.V.V.V.V.V.V.V.V.V.V.V.V.V.V.V.V.V.V.V.V.V.V.V.V.V.V.V.V.V.",
"V.V.V.V.V.V.V.V.V.V.V.V.V.V.V.V.V.V.V.V.V.V.V.V.V.V.V.V.V.V.V.V.V.V.V.V.V.V.V.V.V.V.V.V.V.V.V.V.V.V.V.V.V.V.V.V.V.V.V.V.V.V.V.V.",
"V.V.V.V.V.V.V.V.V.V.V.V.V.V.V.V.V.V.V.V.V.V.V.V.V.V.V.V.V.V.V.V.V.V.V.V.V.V.V.V.V.V.V.V.V.V.V.V.V.V.V.V.V.V.V.V.V.V.V.V.V.V.V.V.",
"V.V.V.V.V.V.V.V.V.V.V.V.V.V.V.V.V.V.V.V.V.V.V.V.V.V.V.V.V.V.V.V.V.V.V.V.V.V.V.V.V.V.V.V.V.V.V.V.V.V.V.V.V.V.V.V.V.V.V.V.V.V.V.V.",
"V.V.V.V.V.V.V.V.V.V.V.V.V.V.V.V.V.V.V.V.V.V.V.V.V.V.V.V.V.V.V.V.V.V.V.V.V.V.V.V.V.V.V.V.V.V.V.V.V.V.V.V.V.V.V.V.V.V.V.V.V.V.V.V.",
"V.V.V.V.V.V.V.V.V.V.V.V.V.V.V.V.V.V.V.V.V.V.V.V.V.V.V.V.V.V.V.V.V.V.V.V.V.V.V.V.V.V.V.V.V.V.V.V.V.V.V.V.V.V.V.V.V.V.V.V.V.V.V.V.",
"V.V.V.V.V.V.V.V.V.V.V.V.V.V.V.V.V.V.V.V.V.V.V.V.V.V.V.V.V.V.V.V.V.V.V.V.V.V.V.V.V.V.V.V.V.V.V.V.V.V.V.V.V.V.V.V.V.V.V.V.V.V.V.V.",
"V.V.V.V.V.V.V.V.V.V.V.V.V.V.V.V.V.V.V.V.V.V.V.V.V.V.V.V.V.V.V.V.V.V.V.V.V.V.V.V.V.V.V.V.V.V.V.V.V.V.V.V.V.V.V.V.V.V.V.V.V.V.V.V.",
"V.V.V.V.V.V.V.V.V.V.V.V.V.V.V.V.V.V.V.V.V.V.V.V.V.V.V.V.V.V.V.V.V.V.V.V.V.V.V.V.V.V.V.V.V.V.V.V.V.V.V.V.V.V.V.V.V.V.V.V.V.V.V.V."
};
