/* XPM */
static char *result[] = {
/* columns rows colors chars-per-pixel */
"64 64 241 2 ",
"   c black",
".  c gray1",
"X  c #050605",
"o  c #030D01",
"O  c #080908",
"+  c #051201",
"@  c #071602",
"#  c #091A02",
"$  c #0A1D02",
"%  c #0C1F03",
"&  c #15150F",
"*  c gray9",
"=  c #191919",
"-  c gray10",
";  c #1B1B1B",
":  c #1A1F19",
">  c #1E1E1E",
",  c #0C2003",
"<  c #0D2203",
"1  c #0F2504",
"2  c #102704",
"3  c #112905",
"4  c #122B05",
"5  c #142D05",
"6  c #152F06",
"7  c #162F09",
"8  c #172E0B",
"9  c #163106",
"0  c #173207",
"q  c #183607",
"w  c #183608",
"e  c #193708",
"r  c #1A3908",
"t  c #1B3A09",
"y  c #1C3B09",
"u  c #1C3B0B",
"i  c #1D3E0A",
"p  c #1E3F0A",
"a  c #1D3A0E",
"s  c #1A2815",
"d  c #1D2D17",
"f  c #1D2E16",
"g  c #1C2519",
"h  c #1E2A1A",
"j  c #1B3210",
"k  c #1F3615",
"l  c #203418",
"z  c #243C1B",
"x  c gray13",
"c  c #222222",
"v  c #252525",
"b  c #272727",
"n  c gray17",
"m  c #2D2D2D",
"M  c #343328",
"N  c #37362A",
"B  c #313131",
"V  c gray20",
"C  c gray21",
"Z  c #3A3A3A",
"A  c gray24",
"S  c #3F3F3F",
"D  c #1F410B",
"F  c #1F420B",
"G  c #20430C",
"H  c #21420F",
"J  c #21440C",
"K  c #22450F",
"L  c #23480D",
"P  c #254C0E",
"I  c #264E0F",
"U  c #264B11",
"Y  c #28471B",
"T  c #2C4E1C",
"R  c #295310",
"E  c #2B5611",
"W  c #2D5A13",
"Q  c #2E5C13",
"!  c #2F5D14",
"~  c #2B5019",
"^  c #2D5518",
"/  c #305F14",
"(  c #305F15",
")  c #305F16",
"_  c #315E19",
"`  c #315D1A",
"'  c #335B1F",
"]  c #336516",
"[  c #346516",
"{  c #356817",
"}  c #366A18",
"|  c #376A18",
" . c #376A19",
".. c #376A1B",
"X. c #37691C",
"o. c #386E19",
"O. c #38681D",
"+. c #38691D",
"@. c #38681E",
"#. c #3B721A",
"$. c #3C741B",
"%. c #3C751B",
"&. c #3D761B",
"*. c #3E781C",
"=. c #3F7A1D",
"-. c #305022",
";. c #345924",
":. c #3A6525",
">. c #3A6526",
",. c #3A6427",
"<. c #3B6328",
"1. c #3B6329",
"2. c #3C612D",
"3. c #417E1E",
"4. c #4C4A3F",
"5. c #406D2B",
"6. c #406C2C",
"7. c #4D6D34",
"8. c #414141",
"9. c #434343",
"0. c #464646",
"q. c #484848",
"w. c #494949",
"e. c gray30",
"r. c gray31",
"t. c #5E5B49",
"y. c #515151",
"u. c gray33",
"i. c #555555",
"p. c gray35",
"a. c gray37",
"s. c #6D6B56",
"d. c gray38",
"f. c gray40",
"g. c #6A6A6A",
"h. c #6C6C6C",
"j. c #6D6D6D",
"k. c #6F6F6F",
"l. c #717171",
"z. c #727272",
"x. c #7B7B7B",
"c. c #7E7E7E",
"v. c #827F67",
"b. c #43811F",
"n. c #458420",
"m. c #488921",
"M. c #498B22",
"N. c #4C8F23",
"B. c #4C9024",
"V. c #4D9224",
"C. c #4F9625",
"Z. c #4F9626",
"A. c #509726",
"S. c #519A27",
"D. c #539D28",
"F. c #549F28",
"G. c #549C2B",
"H. c #549B2D",
"J. c #508B33",
"K. c #518739",
"L. c #558F3A",
"P. c #559932",
"I. c #569834",
"U. c #579836",
"Y. c #58943D",
"T. c #5B9F39",
"R. c #5C9D3D",
"E. c #55A028",
"W. c #57A42A",
"Q. c #59A72B",
"!. c #58A32F",
"~. c #5CAC2C",
"^. c #5DAD2D",
"/. c #60B32F",
"(. c #61B52F",
"). c #63B337",
"_. c #64BA31",
"`. c #66BE32",
"'. c #66BE33",
"]. c #67BD36",
"[. c #67BC37",
"{. c #64B13D",
"}. c #68BB3A",
"|. c #6BBF39",
" X c #6CBF3A",
".X c #6DC03C",
"XX c #788E5A",
"oX c #65AF40",
"OX c #66AE42",
"+X c #6AB744",
"@X c #69B940",
"#X c #6AB841",
"$X c #70C040",
"%X c #72C143",
"&X c #918D72",
"*X c #959278",
"=X c #98957A",
"-X c #9C987C",
";X c #9C997D",
":X c #81C554",
">X c #93CA68",
",X c #98CC6D",
"<X c #A0CF74",
"1X c #818181",
"2X c #828281",
"3X c #838382",
"4X c #8A8985",
"5X c #8E8D85",
"6X c #A5A183",
"7X c #A7A386",
"8X c #AAA688",
"9X c #B6B292",
"0X c #AFC686",
"qX c #B5D688",
"wX c #B8D88B",
"eX c #C6C19E",
"rX c #C0DB93",
"tX c #C7DE99",
"yX c #C7DE9A",
"uX c #D2D3A6",
"iX c #DBD5AE",
"pX c #D1E2A2",
"aX c #DDE8AE",
"sX c #E0E9B1",
"dX c #E1E9B1",
"fX c #E9E4BA",
"gX c #E9EDB8",
"hX c #EAEEB9",
"jX c #EBEEBA",
"kX c #ECEEBB",
"lX c #EFE9BF",
"zX c #F0EABF",
"xX c #EFF0BD",
"cX c #F4EEC3",
"vX c #F6F1C4",
"bX c #F8F2C6",
"nX c #F8F5C6",
"mX c #FBF5C9",
"MX c #FBF6C8",
"NX c #FBF6C9",
"BX c #FDF7CA",
/* pixels */
"1X1X1X1X1X1X1X1X1X1X1X1X1X1X1X1X1X1X1X1X1X1X1X1X1X1X1X1X1X1X1X1X1X1X1X1X1X1X1X1X1X1X1X1X1X1X1X1X1X1X1X1X1X1X1X1X1X1X1X1X1X1X1X1X",
"1X1X1X1X1X1X1X1X1X1X1X1X1X1X1X1X1X1X1X1X1X1X1X1X1X1X1X1X1X1X1X1X1X1X1X1X1X1X1X1X1X1X1X1X1X1X1X1X1X1X1X1X1X1X1X1X1X1X1X1X1X1X1X1X",
"1X1X1X1X1X1X1X1X1X1X1X1X1X1X1X1X1X1X1X1X1X1X1X1X1X1X1X1X1X1X1X1X1X1X1X1X1X1X1X1X1X1X1X1X1X1X1X1X1X1X1X1X1X1X1X1X1X1X1X1X1X1X1X1X",
"1X1X1X1X1X1X1X1X1X1X1X1X1X1X1X1X1X1X1X1X1X1X1X1X1X1X1X1X1X1X1X1X1X1X1X1X1X1X1X1X1X1X1X1X1X1X1X1X1X1X1X1X1X1X1X1X1X1X1X1X1X1X1X1X",
"1X1X1X1X1X1X1X1X1X1X1X1X1X1X1X1X1X1X1X1X1X1X1X1X1X1X1X1X1X1X1X1X1X1X1X1X1X1X1X1X1X1X1X1X1X1X1X1X1X1X1X1X1X1X1X1X1X1X1X1X1X1X1X1X",
"1X1X1X1X1X1X1X1X1X1X1X1X1X1X1X1X1X1X1X1X1X1X1X1X1X1X1X1X1X1X1X1X1X1X1X1X1X1X1X1X1X1X1X1X1X1X1X1X1X1X1X1X1X1X1X1X1X1X1X1X1X1X1X1X",
"1X1X1X1X1X1X1X1X1X1X1X1X1X1X1X1X1X1X1X1X1X1X1X1X1X1X1X1X1X1X1X1X1X1X1X1X1X1X1X1X1X1X1X1X1X1X1X1X1X1X1X1X1X1X1X1X1X1X1X1X1X1X1X1X",
"1X1X1X1X1X1X1X1X1X1X1X1X1X1X1X1X1X1X1X1X1X1X1X1X1X1X1X1X1X1X1X1X1X1X1X1X1X1X1X1X1X1X1X1X1X1X1X1X1X1X1X1X1X1X1X1X1X1X1X1X1X1X1X1X",
"1X1X1X1X1X1X1X1X1X1X1X1X1X1X1X1X1X1X1X1X1X1X1X1X1X1X1X1X1X1X1X1X1X1X1X1X1X1X1X1X1X1X1X1X1X1X1X1X1X1X1X1X1X1X1X1X1X1X1X1X1X1X1X1X",
"1X1X1X1X1X1X1X1X1X1X1X1X1X1X1X1X1X1X1X1X1X1X1X1X1X1X1X1X1X1X1X1X1X1X1X1X1X1X1X1X1X1X1X1X1X1X1X1X1X1X1X1X1X1X1X1X1X1X1X1X1X1X1X1X",
"1X1X1X1X1X1X1X1X1X1X1X1X1X1X3X1X2X3X3X2X1X1X1Xx.k.k.h.p.p.e.0.0.0.0.0.0.0.0.0.0.0.0.0.0.0.e.d.k.x.1X1X1X1X1X1X1X1X1X1X1X1X1X1X1X",
"1X1X1X1X1X1Xx.k.d.e.0.S 4.;X=X9X-X7X8X*XV                                                         c S 0.0.y.l.1X1X1X1X1X1X1X1X1X",
"1Xc.z.a.8.b           & iXBXBXBXBXBXlXM                                                                       c q.l.1X1X1X1X1X1X",
"1Xj.v                 eXBXBXBXBXBXmXv.          9 9   K H _ @.O.O.+.+.O.O.@.@.@.+.+.+.@.@.` a 8                   ; S l.1X1X1X1X",
"1Xi.          7 y 7.uXBXBXBXBXBXBX0XD.B.n.Q.`.`.`._.D.&.~.`.`.Q.`.`.`.`.`.`.`.`.`.`.`.`.`.`.`.`.(.A.$.} } ^           y.1X1X1X1X",
"1Xq.    : -.V.`.:XgXBXBXBXBXBXBXtX`.`.`.`.`.`.`.`._.C.Q ~.`.Q.L Q.`.`.`.`.`.`.`.`.`.`.`.`.`.`.`.`.`.`.`.`.`.(.L.O     0.1X1X1X1X",
"1X0.    2.`.`.$XjXBXBXBXBXBXBXyX`.`.`.`.`.`.`.`.`.(.%.4 Z.`.$.  =.`.`.`.`.`.`.`.`.`.`.`.`.`.`.`.`.`.`.`.`.`.`.`.T     0.1X1X1X1X",
"1X0.    :.`.|.sXBXBXBXBXBXBXrX`.`.`.`.`.`.`.`.`.Q.$.i + R [ y o W A.(.`.`.`.`.`.`.`.`.`.`.`.`.`.`.`.`.`.`.`.`.`.$.    S 1X1X1X1X",
"1X0.    } .XaXBXBXBXBXBXNXqX`.`.`.`.`.`.`.V.I 6                       ] Q.`.`.`.`.`.`.`.`.`.`.`.`.`.`.`.`.`.`.`.A.    c 1X1X1X1X",
"1X0.    XXhXBXBXBXBXBXnX<X`.`.`.`.`.`.Q.]                               @ C.`.`.`.`.`.`.`.`.`.`.`.`.`.`.`.`.`.`.(.      1X1X1X1X",
"1Xe.  &XvXBXBXBXBXBXxX>X`.`.`.`.`.`.Q.L           P 2 2 ! ! < 4 R e       ] `.`.`.`.`.`.`.`.`.`.`.`.`.`.`.`.`.`.`.      x.1X1X1X",
"1Xf.6XmXBXBXBXBXBXkX:X`.`.`.`.`.`.Q.0       J n.(.Q.P P Q.Z.3 { (.`.!   o b.`.`.`.`.`.`.`.`.`.`.`.`.`.`.`.`.`.`.`.e     f.1X1X1X",
"1X5XbXBXBXBXBXBXdX%X`.`.`.`.`.`.`.=.    4 Q.`.`.`.Q.J R Q.Z., *.(.`./.S.S./.`.`.`.`.`.`.`.`.`.`.`.`.`.`.`.`.`.`.`.(     e.1X1X1X",
"1X4XbXBXBXBXBXpX X`.`.`.`.`.`.`.`.$.    R `.`.`.`.Z.3 { (.M.  n.`.`.`.`.`.`.`.`.`.`.`.`.`.`.`.`.`.`.`.`.`.`.`.`.`.}     0.1X1X1X",
"1X3XBXBXBXMXwX`.`.`.`.`.`.`.`.`.`.A.    1 Q.`.`.`.Z.1 #.(.n.  M.`.`.`.`.`.`.`.`.`.`.`.`.`.`.`.`.`.`.`.`.`.`.`.`.`.}     0.1X1X1X",
"1X3XBXBXcX,X`.`.`.`.`.`.`.`.`.`.`.(.W     4 } Q.`.Z.1 #.^.o.1 Z.`.`.`.`.`.`.`.`.`.`.`.`.`.`.`.`.`.`.`.`.`.`.`.`.`.}     0.1X1X1X",
"1X2XBXzXs.`.`.`.`.`.`.`.`.`.`.`.`.`.Q.L       3 m.N., *.F.R J Q.`.`.`.`.`.`.`.`.`.`.`.`.`.`.`.`.`.`.`.`.`.`.`.`.`.}     0.1X1X1X",
"1X3XfXt.  `.`.`.`.`.`.`.`.`.`.`.`.`.`.Q.0         ,   L } F P Q.`.`.`.`.`.`.`.`.`.`.`.`.`.`.`.`.`.`.`.`.`.`.`.`.`.$.    S 1X1X1X",
"1X3XN     `.`.`.`.`.`.`.`.`.`.`.`.`.`.`.Q.=.I                   e { A.(.`.`.`.`.`.`.`.`.`.`.`.`.`.`.`.`.`.`.`.`.`.B.    v 1X1X1X",
"1X1X      `.`.`.`.`.`.`.`.`.`.`.`.`.`.`.`.`.(.m.0                     r Z.`.`.`.`.`.`.`.`.`.`.`.`.`.`.`.`.`.`.`.`.W.    > 1X1X1X",
"1X1X      (.`.`.`.`.`.`.`.`.`.`.`.`.`.`.`.`.`.`.F.D 2 ! P               # E.`.`.`.`.`.`.`.`.`.`.`.`.`.`.`.`.`.`.`.(.      1X1X1X",
"1X1X>     W.`.`.`.`.`.`.`.`.`.`.`.`.`.`.`.`.`.`.Q.P P Q.Z.3 { ^.A.{ +     5 Q.`.`.`.`.`.`.`.`.`.`.`.`.`.`.`.`.`.`.(.      1X1X1X",
"1X1Xv     B.`.`.`.`.`.`.`.`.`.`.`.`.`.`.`.`.`.`.Q.P P Q.Z.1 #.(.`.`.B.+     ] `.`.`.`.`.`.`.`.`.`.`.`.`.`.`.`.`.`.~.    * x.1X1X",
"1X1XS     $.`.`.`.`.`.`.`.`.`.`.`.`.`.`.`.`.`.`.Q.P P Q.Z., *.(.`.`.`.V.      `.`.`.`.`.`.`.`.`.`.`.`.`.`.`.`.`.`.(.4     k.1X1X",
"1X1X0.    } `.`.`.`.`.`.`.`.`.`.`.`.`.`.`.`.`.`.Q.P P Q.n.  n.`.`.`.`.`.      `.`.`.`.`.`.`.`.`.`.`.`.`.`.`.`.`.`.`.y     d.1X1X",
"1X1X0.    | `.`.`.`.`.`.`.`.`.`.`.`.`.`.`.`.`.`.Q.P P F.*., Z.`.`.`.`.`.      (.`.`.`.`.`.`.`.`.`.`.`.`.`.`.`.`.`.`.E     u.1X1X",
"1X1X0.    | `.`.`.`.`.`.`.`.`.`.`.`.`.`.`.`.`.`.Q.J R F.#.1 Z.`.`.`.`.`.9     W.`.`.`.`.`.`.`.`.`.`.`.`.`.`.`.`.`.`.G     p.1X1X",
"1X1X0.     .`.`.`.`.`.`.`.`.`.`.`.`.`.`.`.`.`.`.Z.3 { ^.#.1 Z.`.`.`.`.`.9     W.`.`.`.`.`.`.`.`.`.`.`.`.`.`.`.`.`.`./     e.1X1X",
"1X1X0.    X.`.`.`.`.`.`.`.`.`.`.`.(.~.(.`.`.`.`.Z.1 #.^.#.1 Z.`.`.`.`.M.      (.`.`.`.`.`.`.`.`.`.`.`.`.`.`.`.`.`.`.}     0.1X1X",
"1X1Xe.    ;.`.`.`.`.`.`.`.`.`.`.`.3.  J R $.n.Q.Z., *.^.#.1 Z.`.Q.=./       M.`.`.`.`.`.`.`.`.`.`.`.`.`.`.`.`.`.`.`.}     0.1X1X",
"1X1Xp.    z `.`.`.`.`.`.`.`.`.`.`.p             e   D [ i o y R 1         3.`.`.`.`.`.`.`.`.`.`.`.`.`.`.`.`.`.`.`.`.$.    S 1X1X",
"1X1Xe.    ' `.`.`.`.`.`.`.`.`.`.`.Z.4                                 $ 3.(.`.`.`.`.`.`.`.`.`.`.`.`.`.`.`.`.`.`.`.`.B.    v 1X1X",
"1X1X0.    ..`.`.`.`.`.`.`.`.`.`.`.`.Q.} J t I                     I =.Q.`.`.`.`.`.`.`.`.`.`.`.`.`.`.`.`.`.`.`.`.`.`.!.    > 1X1X",
"1X1Xe.    ) `.`.`.`.`.`.`.`.`.`.`.`.`.`.`.`.`.Q./   R [ D o y [ A.(.`.`.`.`.`.`.`.`.`.`.`.`.`.`.`.`.`.`.`.`.`.`.`.`.oX      1X1X",
"1X1Xd.    u `.`.`.`.`.`.`.`.`.`.`.`.`.`.`.`.`.`.`.M.`.`.n.  M.`.`.`.`.`.`.`.`.`.`.`.`.`.`.`.`.`.`.`.`.`.`.`.`.`.`.`.#X      x.1X",
"1X1Xg.    j `.`.`.`.`.`.`.`.`.Q.n.B.D.D.G.P.U.I.J.5.>.,.<.Y <.1.<.6.K.Y.R.OX+X@X}.].'.`.`.`.`.`.`.`.`.`.`.`.`.`.`.`.[.s     k.1X",
"1X1Xg.    h {.A.$.} } / y q w %                                                       g d f k ~ U ! $.n.$.} $.B.H.T.).l     d.1X",
"1X1Xg.    .                                                                                                           X     Z 1X",
"1X1Xg.                          m v x x x x x x v S 0.0.0.0.0.0.0.S v x >                                                   - 1X",
"1X1Xk.        c S 0.0.e.d.g.g.k.x.1X1X1X1X1X1X1X1X1X1X1X1X1X1X1X1X1X1X1X1X1X1X1X1X1Xx.k.g.g.d.9.B A S n S 0.S v x >         B 1X",
"1X1Xx.w.= r.x.1X1X1X1X1X1X1X1X1X1X1X1X1X1X1X1X1X1X1X1X1X1X1X1X1X1X1X1X1X1X1X1X1X1X1X1X1X1X1X1X1X1X1X1X1X1X1X1X1X1X1Xx.p.C 0.l.1X",
"1X1X1X1X1X1X1X1X1X1X1X1X1X1X1X1X1X1X1X1X1X1X1X1X1X1X1X1X1X1X1X1X1X1X1X1X1X1X1X1X1X1X1X1X1X1X1X1X1X1X1X1X1X1X1X1X1X1X1X1X1X1X1X1X",
"1X1X1X1X1X1X1X1X1X1X1X1X1X1X1X1X1X1X1X1X1X1X1X1X1X1X1X1X1X1X1X1X1X1X1X1X1X1X1X1X1X1X1X1X1X1X1X1X1X1X1X1X1X1X1X1X1X1X1X1X1X1X1X1X",
"1X1X1X1X1X1X1X1X1X1X1X1X1X1X1X1X1X1X1X1X1X1X1X1X1X1X1X1X1X1X1X1X1X1X1X1X1X1X1X1X1X1X1X1X1X1X1X1X1X1X1X1X1X1X1X1X1X1X1X1X1X1X1X1X",
"1X1X1X1X1X1X1X1X1X1X1X1X1X1X1X1X1X1X1X1X1X1X1X1X1X1X1X1X1X1X1X1X1X1X1X1X1X1X1X1X1X1X1X1X1X1X1X1X1X1X1X1X1X1X1X1X1X1X1X1X1X1X1X1X",
"1X1X1X1X1X1X1X1X1X1X1X1X1X1X1X1X1X1X1X1X1X1X1X1X1X1X1X1X1X1X1X1X1X1X1X1X1X1X1X1X1X1X1X1X1X1X1X1X1X1X1X1X1X1X1X1X1X1X1X1X1X1X1X1X",
"1X1X1X1X1X1X1X1X1X1X1X1X1X1X1X1X1X1X1X1X1X1X1X1X1X1X1X1X1X1X1X1X1X1X1X1X1X1X1X1X1X1X1X1X1X1X1X1X1X1X1X1X1X1X1X1X1X1X1X1X1X1X1X1X",
"1X1X1X1X1X1X1X1X1X1X1X1X1X1X1X1X1X1X1X1X1X1X1X1X1X1X1X1X1X1X1X1X1X1X1X1X1X1X1X1X1X1X1X1X1X1X1X1X1X1X1X1X1X1X1X1X1X1X1X1X1X1X1X1X",
"1X1X1X1X1X1X1X1X1X1X1X1X1X1X1X1X1X1X1X1X1X1X1X1X1X1X1X1X1X1X1X1X1X1X1X1X1X1X1X1X1X1X1X1X1X1X1X1X1X1X1X1X1X1X1X1X1X1X1X1X1X1X1X1X",
"1X1X1X1X1X1X1X1X1X1X1X1X1X1X1X1X1X1X1X1X1X1X1X1X1X1X1X1X1X1X1X1X1X1X1X1X1X1X1X1X1X1X1X1X1X1X1X1X1X1X1X1X1X1X1X1X1X1X1X1X1X1X1X1X",
"1X1X1X1X1X1X1X1X1X1X1X1X1X1X1X1X1X1X1X1X1X1X1X1X1X1X1X1X1X1X1X1X1X1X1X1X1X1X1X1X1X1X1X1X1X1X1X1X1X1X1X1X1X1X1X1X1X1X1X1X1X1X1X1X",
"1X1X1X1X1X1X1X1X1X1X1X1X1X1X1X1X1X1X1X1X1X1X1X1X1X1X1X1X1X1X1X1X1X1X1X1X1X1X1X1X1X1X1X1X1X1X1X1X1X1X1X1X1X1X1X1X1X1X1X1X1X1X1X1X",
"1X1X1X1X1X1X1X1X1X1X1X1X1X1X1X1X1X1X1X1X1X1X1X1X1X1X1X1X1X1X1X1X1X1X1X1X1X1X1X1X1X1X1X1X1X1X1X1X1X1X1X1X1X1X1X1X1X1X1X1X1X1X1X1X",
"1X1X1X1X1X1X1X1X1X1X1X1X1X1X1X1X1X1X1X1X1X1X1X1X1X1X1X1X1X1X1X1X1X1X1X1X1X1X1X1X1X1X1X1X1X1X1X1X1X1X1X1X1X1X1X1X1X1X1X1X1X1X1X1X"
};
