/* XPM */
static char *_6f54cd2f70347979a30063d0f35c84aDeWstuehoRmuzntt[] = {
/* columns rows colors chars-per-pixel */
"64 64 166 2 ",
"   c black",
".  c gray1",
"X  c #030D01",
"o  c #080908",
"O  c #0C0C08",
"+  c #051201",
"@  c #071602",
"#  c #091A02",
"$  c #0A1D02",
"%  c #15150F",
"&  c gray9",
"*  c #191919",
"=  c #1E1E1E",
"-  c #0C2003",
";  c #0F2504",
":  c #102704",
">  c #112905",
",  c #122B05",
"<  c #152F06",
"1  c #162F09",
"2  c #173207",
"3  c #183607",
"4  c #1A360A",
"5  c #1A3908",
"6  c #1C3B09",
"7  c #1D3E0A",
"8  c #1D3A0E",
"9  c #1D2D17",
"0  c #1C2519",
"q  c #1E2A1A",
"w  c #1B3210",
"e  c #26251C",
"r  c #243C1B",
"t  c gray13",
"y  c #222222",
"u  c #252525",
"i  c gray17",
"p  c #2D2D2D",
"a  c #313025",
"s  c gray20",
"d  c #3F3F3F",
"f  c #1F410B",
"g  c #20430C",
"h  c #21420F",
"j  c #21440C",
"k  c #23480D",
"l  c #254C0E",
"z  c #264E0F",
"x  c #264B11",
"c  c #28471B",
"v  c #2C4E1C",
"b  c #295310",
"n  c #2B5611",
"m  c #2D5A13",
"M  c #2E5C13",
"N  c #2F5D14",
"B  c #2D5518",
"V  c #305F14",
"C  c #315D1A",
"Z  c #335B1F",
"A  c #336516",
"S  c #346516",
"D  c #356817",
"F  c #366A18",
"G  c #376A19",
"H  c #37691C",
"J  c #386E19",
"K  c #38681D",
"L  c #38691D",
"P  c #3B721A",
"I  c #3C741B",
"U  c #3D761B",
"Y  c #3E781C",
"T  c #3F7A1D",
"R  c #305022",
"E  c #345924",
"W  c #3A6525",
"Q  c #3A6526",
"!  c #3B6328",
"~  c #3B6329",
"^  c #3C612D",
"/  c #417E1E",
"(  c #406D2B",
")  c #406C2C",
"_  c #414141",
"`  c #464646",
"'  c #484848",
"]  c #494949",
"[  c gray30",
"{  c #515151",
"}  c #555555",
"|  c gray35",
" . c gray37",
".. c gray38",
"X. c gray40",
"o. c #6A6A6A",
"O. c #6C6C6C",
"+. c #6D6D6D",
"@. c #6F6F6F",
"#. c #717171",
"$. c #727272",
"%. c #7B7B7B",
"&. c #7E7E7E",
"*. c #43811F",
"=. c #458420",
"-. c #488921",
";. c #498B22",
":. c #4C9024",
">. c #4F9626",
",. c #509726",
"<. c #519A27",
"1. c #539D28",
"2. c #549F28",
"3. c #549C2B",
"4. c #549B2D",
"5. c #508B33",
"6. c #518739",
"7. c #558F3A",
"8. c #559932",
"9. c #569834",
"0. c #58943D",
"q. c #5C9D3D",
"w. c #55A028",
"e. c #57A42A",
"r. c #59A72B",
"t. c #5CAC2C",
"y. c #5DAD2D",
"u. c #60B32F",
"i. c #61B52F",
"p. c #64A63C",
"a. c #64BA31",
"s. c #66BE32",
"d. c #66BE33",
"f. c #64B13D",
"g. c #68BB3A",
"h. c #67A346",
"j. c #66AE42",
"k. c #6AB744",
"l. c #69B940",
"z. c #90BE6A",
"x. c #86C55B",
"c. c #8CC064",
"v. c #8DC365",
"b. c #818181",
"n. c #838382",
"m. c #878784",
"M. c #8D8C87",
"N. c #8E8D88",
"B. c #93928A",
"V. c #97968C",
"C. c #9B998E",
"Z. c #9F9D90",
"A. c #AAA78A",
"S. c #A2A092",
"D. c #A5A394",
"F. c #A9A796",
"G. c #ACA998",
"H. c #BCB898",
"J. c #BFBBA2",
"K. c #CAC6A8",
"L. c #D1CCA7",
"P. c #D9D4AD",
"I. c #DFDAB5",
"U. c #E1DBB3",
"Y. c #FBF5C8",
"T. c #FDF7CA",
/* pixels */
"b.b.b.b.b.b.b.b.b.b.b.b.b.b.b.b.b.b.b.b.b.b.b.b.b.b.b.b.b.b.b.b.b.b.b.b.b.b.b.b.b.b.b.b.b.b.b.b.b.b.b.b.b.b.b.b.b.b.b.b.b.b.b.b.",
"b.b.b.b.b.b.b.b.b.b.b.b.b.b.b.b.b.b.b.b.b.b.b.b.b.b.b.b.b.b.b.b.b.b.b.b.b.b.b.b.b.b.b.b.b.b.b.b.b.b.b.b.b.b.b.b.b.b.b.b.b.b.b.b.",
"b.b.b.b.b.b.b.b.b.b.b.b.b.b.b.b.b.b.b.b.b.b.b.b.b.b.b.b.b.b.b.b.b.b.b.b.b.b.b.b.b.b.b.b.b.b.b.b.b.b.b.b.b.b.b.b.b.b.b.b.b.b.b.b.",
"b.b.b.b.b.b.b.b.b.b.b.b.b.b.b.b.b.b.b.b.b.b.b.b.b.b.b.b.b.b.b.b.b.b.b.b.b.b.b.b.b.b.b.b.b.b.b.b.b.b.b.b.b.b.b.b.b.b.b.b.b.b.b.b.",
"b.b.b.b.b.b.b.b.b.b.b.b.b.b.b.b.b.b.b.b.b.b.b.b.b.b.b.b.b.b.b.b.b.b.b.b.b.b.b.b.b.b.b.b.b.b.b.b.b.b.b.b.b.b.b.b.b.b.b.b.b.b.b.b.",
"b.b.b.b.b.b.b.b.b.b.b.b.b.b.b.b.b.b.b.b.b.b.b.b.b.b.b.b.b.b.b.b.b.b.b.b.b.b.b.b.b.b.b.b.b.b.b.b.b.b.b.b.b.b.b.b.b.b.b.b.b.b.b.b.",
"b.b.b.b.b.b.b.b.b.b.b.b.b.b.b.b.b.b.b.b.b.b.b.b.b.b.b.b.b.b.b.b.b.b.b.b.b.b.b.b.b.b.b.b.b.b.b.b.b.b.b.b.b.b.b.b.b.b.b.b.b.b.b.b.",
"b.b.b.b.b.b.b.b.b.b.b.b.b.b.b.b.b.b.b.b.b.b.b.b.b.b.b.b.b.b.b.b.b.b.b.b.b.b.b.b.b.b.b.b.b.b.b.b.b.b.b.b.b.b.b.b.b.b.b.b.b.b.b.b.",
"b.b.b.b.b.b.b.b.b.b.b.b.b.b.b.b.b.b.b.b.b.b.b.b.b.b.b.b.b.b.b.b.b.b.b.b.b.b.b.b.b.b.b.b.b.b.b.b.b.b.b.b.b.b.b.b.b.b.b.b.b.b.b.b.",
"b.b.b.b.b.b.b.b.b.b.b.b.b.b.b.b.b.b.b.b.b.b.b.b.b.b.b.b.b.b.b.b.b.b.b.b.b.b.b.b.b.b.b.b.b.b.b.b.b.b.b.b.b.b.b.b.b.b.b.b.b.b.b.b.",
"b.b.b.b.b.b.b.b.b.b.b.b.b.b.b.b.b.b.b.b.b.b.b.%.+.#.+.| | [ ` ` ` ` ` ` ` ` ` ` ` ` ` ` ` [ ..@.%.b.b.b.b.b.b.b.b.b.b.b.b.b.b.b.",
"b.b.b.b.b.b.%.#...[ ` d u t t t t t t u s                                                         y d ` ` { #.b.b.b.b.b.b.b.b.b.",
"b.&.#. ._ u                                                                                                   y ' #.b.b.b.b.b.b.",
"b.+.u                                           2 2   j g A Q F L L L L L L K K L L L L Q C 8 1                 . t R #.b.b.b.b.",
"b.}           1 6 V F I :.1.1.1.1.1.1.:.=.r.s.s.s.a.1.U r.s.s.r.s.s.s.s.s.s.s.s.d.s.s.s.s.s.s.s.i.,.U F F B   . . .   { b.b.b.b.",
"b.'     0 R :.s.s.s.s.s.s.s.s.s.s.s.s.s.s.s.s.s.s.a.>.V y.s.r.k r.s.s.s.s.s.s.s.s.s.s.s.s.s.s.s.s.d.d.d.d.d.i.7.o .   ` b.b.b.b.",
"b.`     ^ s.s.s.s.s.s.s.s.s.s.s.s.s.s.s.s.s.s.s.s.i.I , >.s.P   T s.s.s.s.s.s.s.s.s.s.s.s.s.s.s.s.s.s.s.s.s.s.s.v     ` b.b.b.b.",
"b.`     Q s.s.s.s.s.s.s.s.s.s.s.s.s.s.s.s.s.s.s.r.I 7 + b S 7 X M ,.i.s.s.s.s.s.s.s.s.s.s.s.s.s.s.s.s.s.s.s.s.s.U     _ b.b.b.b.",
"b.`     F s.s.s.s.s.s.s.s.s.s.s.s.s.s.s.s.:.z <                       A r.s.s.s.s.s.s.s.s.s.s.s.s.s.s.s.s.s.s.s.>.    t b.b.b.b.",
"b.`     F s.s.s.s.s.s.s.s.s.s.s.s.s.s.r.S                               @ >.s.s.s.s.s.s.s.s.s.s.s.s.s.s.s.s.s.s.i.      b.b.b.b.",
"b.[     V s.s.s.s.s.s.s.s.s.s.s.s.s.r.k           x : ; N M $ , b 4       A s.s.s.s.s.s.s.s.s.s.s.s.s.s.s.s.s.s.s.      %.b.b.b.",
"b.X.    4 s.s.s.s.s.s.s.s.s.s.s.s.r.2       j =.i.r.z z r.<., D i.s.N   X =.s.s.s.s.s.s.s.s.s.s.s.s.s.s.s.s.s.s.s.4     X.b.b.b.",
"b.%.      s.s.s.s.s.s.s.s.s.s.s.s.T     , r.s.s.s.r.g b r.>.- T i.s.i.<.<.u.s.s.s.s.s.s.s.s.s.s.s.s.s.s.s.s.s.s.s.A     [ b.b.b.",
"b.b.      s.s.s.s.s.s.s.s.s.s.s.s.I     b s.s.s.s.>., F i.-.  =.s.s.s.s.s.s.s.s.s.s.s.s.s.s.s.s.s.s.s.s.s.s.s.s.s.S     ` b.b.b.",
"b.b.      s.s.s.s.s.s.s.s.s.s.s.s.<.    : r.s.s.s.>.; P i.=.  -.s.s.s.s.s.s.s.s.s.s.s.s.s.s.s.s.s.s.s.s.s.s.s.s.s.F     ` b.b.b.",
"b.b.      s.s.s.s.s.s.s.s.s.s.s.s.i.m     , F r.s.>.; P y.J ; >.s.s.s.s.s.s.s.s.s.s.s.s.s.s.s.s.s.s.s.s.s.s.s.s.s.F     ` b.b.b.",
"b.b.      s.s.s.s.s.s.s.s.s.s.s.s.s.r.k       , -.:.$ / w.b j r.s.s.s.s.s.s.s.s.s.s.s.s.s.s.s.s.s.s.s.s.s.s.s.s.s.F     ` b.b.b.",
"b.b.      s.s.s.s.s.s.s.s.s.s.s.s.s.s.r.2         -   g D f z r.s.s.s.s.s.s.s.s.s.s.s.s.s.s.s.s.s.s.s.s.s.s.s.s.s.U     d b.b.b.",
"b.b.      s.s.s.s.s.s.s.s.s.s.s.s.s.s.s.r.T z                   4 F <.i.s.s.s.s.s.s.s.s.s.s.s.s.s.s.s.s.s.s.s.s.s.:.    u b.b.b.",
"b.b.      s.s.s.s.s.s.s.s.s.s.s.s.s.s.s.s.s.i.-.2                     5 >.s.s.s.s.s.s.s.s.s.s.s.s.s.s.s.s.s.s.s.s.e.    = b.b.b.",
"b.b.      i.s.s.s.s.s.s.s.s.s.s.s.s.s.s.s.s.s.s.w.f ; M z               # w.s.s.s.s.s.s.s.s.s.s.s.s.s.s.s.s.s.s.s.i.      b.b.b.",
"b.b.=     e.s.s.s.s.s.s.s.s.s.s.s.s.s.s.s.s.s.s.r.z z r.>., D y.,.D +     , r.s.s.s.s.s.s.s.s.s.s.s.s.s.s.s.s.s.s.i.      b.b.b.",
"b.b.u     ;.s.s.s.s.s.s.s.s.s.s.s.s.s.s.s.s.s.s.r.l l r.>.: P i.s.s.:.+     A s.s.s.s.s.s.s.s.s.s.s.s.s.s.s.s.s.s.y.    & %.b.b.",
"b.b.d     U s.s.s.s.s.s.s.s.s.s.s.s.s.s.s.s.s.s.r.l l r.>.$ T i.s.s.s.:.      s.s.s.s.s.s.s.s.s.s.s.s.s.s.s.s.s.s.i.,     @.b.b.",
"b.b.`     J s.s.s.s.s.s.s.s.s.s.s.s.s.s.s.s.s.s.r.l z r.=.  =.s.s.s.s.s.      s.s.s.s.s.s.s.s.s.s.s.s.s.s.s.s.s.s.s.5     ..b.b.",
"b.b.`     G s.s.s.s.s.s.s.s.s.s.s.s.s.s.s.s.s.s.r.l z 1.T - >.s.s.s.s.s.      i.s.s.s.s.s.s.s.s.s.s.s.s.s.s.s.s.s.s.n     } b.b.",
"b.b.`     F s.s.s.s.s.s.s.s.s.s.s.s.s.s.s.s.s.s.r.f b 1.P ; >.s.s.s.s.s.2     e.s.s.s.s.s.s.s.s.s.s.s.s.s.s.s.s.s.s.j     | b.b.",
"b.b.`     F s.s.s.s.s.s.s.s.s.s.s.s.s.s.s.s.s.s.>., S y.P ; >.s.s.s.s.s.2     e.s.s.s.s.s.s.s.s.s.s.s.s.s.s.s.s.s.s.N     [ b.b.",
"b.b.`     H s.s.s.s.s.s.s.s.s.s.s.i.y.i.s.s.s.s.,.: P y.P ; >.s.s.s.s.-.      i.s.s.s.s.s.s.s.s.s.s.s.s.s.s.s.s.s.s.F     ` b.b.",
"b.b.[     E s.s.s.s.s.s.s.s.s.s.s./   j b I *.r.>.$ T y.P ; >.s.r.T A       -.s.s.s.s.s.s.s.s.s.s.s.s.s.s.s.s.s.s.s.F     ` b.b.",
"b.b.|     r s.s.s.s.s.s.s.s.s.s.s.f             4   f S 7 X 6 b ;         / s.s.s.s.s.s.s.s.s.s.s.s.s.s.s.s.s.s.s.s.U   & A.z.%.",
"b.b.[     E s.s.s.s.s.s.s.s.s.s.s.>.,                                 $ / i.s.s.s.s.s.s.s.s.s.s.s.s.s.s.s.s.s.s.s.s.:.e L.Y.D.%.",
"b.b.`     H s.s.s.s.s.s.s.s.s.s.s.s.r.D j 6 z                     z T r.s.s.s.s.s.s.s.s.s.s.s.s.s.s.s.s.s.s.s.s.s.s.p.P.T.T.D.b.",
"b.b.[     A s.s.s.s.s.s.s.s.s.s.s.s.s.s.s.s.s.r.A   b S f X 7 A ,.i.s.s.s.s.s.s.s.s.s.s.s.s.s.s.s.s.s.s.s.s.s.s.s.s.z.T.T.T.D.b.",
"b.b...    7 s.s.s.s.s.s.s.s.s.s.s.s.s.s.s.s.s.s.s.;.s.s.=.  -.s.s.s.s.s.s.s.s.s.s.s.s.s.s.s.s.s.s.s.s.s.s.s.s.s.d.a.z.T.T.T.J.b.",
"b.n.o.    w s.s.s.s.s.s.s.s.s.r.=.:.1.3.1.9.9.9.5.) Q Q ! c ! ! ! ) 6.0.q.j.k.l.g.s.d.d.s.s.s.s.s.s.s.s.s.s.s.s.d.f.z.T.T.T.T.C.",
"b.b.o.  . e f.>.I F F V 6 3 5 -                                                       0 9 9 r v x N I =.U F I :.4.h.z.T.T.T.T.D.",
"b.b.o.                                                                                                        a I.Y.T.T.T.T.T.S.",
"b.b.o.  . . . . . . .           p u t t t t t t u d ` ` ` ` ` ` ` d u t =                                   O L.T.T.T.T.T.T.T.C.",
"b.b.@.  o o . y d ` ` [ ..o.o.+.%.b.b.b.b.b.b.b.b.b.b.b.b.b.b.b.b.b.b.b.b.b.b.b.b.b.&.+.o.+..._ s d d i d ` H.T.T.T.T.T.T.T.T.B.",
"b.b.%.' = { h.b.b.b.b.b.b.b.b.b.b.b.b.b.b.b.b.b.b.b.b.b.b.b.b.b.b.b.b.b.b.b.b.b.b.b.b.b.b.b.b.b.b.b.b.b.b.b.b.b.N.V.K.T.T.T.I.b.",
"b.b.b.b.n.n.n.b.b.b.b.b.b.b.b.b.b.b.b.b.b.b.b.b.b.b.b.b.b.b.b.b.b.b.b.b.b.b.b.b.b.b.b.b.b.b.b.b.b.b.b.b.b.b.b.b.b.b.m.M.N.N.m.b.",
"b.b.b.b.b.b.b.b.b.b.b.b.b.b.b.b.b.b.b.b.b.b.b.b.b.b.b.b.b.b.b.b.b.b.b.b.b.b.b.b.b.b.b.b.b.b.b.b.b.b.b.b.b.b.b.b.b.b.b.b.b.b.b.b.",
"b.b.b.b.b.b.b.b.b.b.b.b.b.b.b.b.b.b.b.b.b.b.b.b.b.b.b.b.b.b.b.b.b.b.b.b.b.b.b.b.b.b.b.b.b.b.b.b.b.b.b.b.b.b.b.b.b.b.b.b.b.b.b.b.",
"b.b.b.b.b.b.b.b.b.b.b.b.b.b.b.b.b.b.b.b.b.b.b.b.b.b.b.b.b.b.b.b.b.b.b.b.b.b.b.b.b.b.b.b.b.b.b.b.b.b.b.b.b.b.b.b.b.b.b.b.b.b.b.b.",
"b.b.b.b.b.b.b.b.b.b.b.b.b.b.b.b.b.b.b.b.b.b.b.b.b.b.b.b.b.b.b.b.b.b.b.b.b.b.b.b.b.b.b.b.b.b.b.b.b.b.b.b.b.b.b.b.b.b.b.b.b.b.b.b.",
"b.b.b.b.b.b.b.b.b.b.b.b.b.b.b.b.b.b.b.b.b.b.b.b.b.b.b.b.b.b.b.b.b.b.b.b.b.b.b.b.b.b.b.b.b.b.b.b.b.b.b.b.b.b.b.b.b.b.b.b.b.b.b.b.",
"b.b.b.b.b.b.b.b.b.b.b.b.b.b.b.b.b.b.b.b.b.b.b.b.b.b.b.b.b.b.b.b.b.b.b.b.b.b.b.b.b.b.b.b.b.b.b.b.b.b.b.b.b.b.b.b.b.b.b.b.b.b.b.b.",
"b.b.b.b.b.b.b.b.b.b.b.b.b.b.b.b.b.b.b.b.b.b.b.b.b.b.b.b.b.b.b.b.b.b.b.b.b.b.b.b.b.b.b.b.b.b.b.b.b.b.b.b.b.b.b.b.b.b.b.b.b.b.b.b.",
"b.b.b.b.b.b.b.b.b.b.b.b.b.b.b.b.b.b.b.b.b.b.b.b.b.b.b.b.b.b.b.b.b.b.b.b.b.b.b.b.b.b.b.b.b.b.b.b.b.b.b.b.b.b.b.b.b.b.b.b.b.b.b.b.",
"b.b.b.b.b.b.b.b.b.b.b.b.b.b.b.b.b.b.b.b.b.b.b.b.b.b.b.b.b.b.b.b.b.b.b.b.b.b.b.b.b.b.b.b.b.b.b.b.b.b.b.b.b.b.b.b.b.b.b.b.b.b.b.b.",
"b.b.b.b.b.b.b.b.b.b.b.b.b.b.b.b.b.b.b.b.b.b.b.b.b.b.b.b.b.b.b.b.b.b.b.b.b.b.b.b.b.b.b.b.b.b.b.b.b.b.b.b.b.b.b.b.b.b.b.b.b.b.b.b.",
"b.b.b.b.b.b.b.b.b.b.b.b.b.b.b.b.b.b.b.b.b.b.b.b.b.b.b.b.b.b.b.b.b.b.b.b.b.b.b.b.b.b.b.b.b.b.b.b.b.b.b.b.b.b.b.b.b.b.b.b.b.b.b.b.",
"b.b.b.b.b.b.b.b.b.b.b.b.b.b.b.b.b.b.b.b.b.b.b.b.b.b.b.b.b.b.b.b.b.b.b.b.b.b.b.b.b.b.b.b.b.b.b.b.b.b.b.b.b.b.b.b.b.b.b.b.b.b.b.b."
};
