/* XPM */
static char *result[] = {
/* columns rows colors chars-per-pixel */
"64 64 155 2 ",
"   c #000000",
".  c #030D01",
"X  c #0A0B08",
"o  c #061301",
"O  c #0A1D02",
"+  c #15150F",
"@  c gray9",
"#  c #1C1B14",
"$  c #1C1D1C",
"%  c #0E2304",
"&  c #102704",
"*  c #122A05",
"=  c #172F0A",
"-  c #163106",
";  c #183607",
":  c #193708",
">  c #1C3B0A",
",  c #1C2C16",
"<  c #1D281A",
"1  c #1D3413",
"2  c #26251C",
"3  c #2A291F",
"4  c #232323",
"5  c #2C2C2B",
"6  c #343328",
"7  c #333333",
"8  c #3F3E30",
"9  c #3F3F3F",
"0  c #1F410B",
"q  c #21440D",
"w  c #254C0E",
"e  c #28471B",
"r  c #295310",
"t  c #2F5D14",
"y  c #2C5319",
"u  c #305F14",
"i  c #315D1A",
"p  c #336516",
"a  c #356817",
"s  c #366A18",
"d  c #38691D",
"f  c #3C731B",
"g  c #3E791C",
"h  c #364027",
"j  c #305022",
"k  c #3A6526",
"l  c #3B6329",
"z  c #417E1E",
"x  c #504E3E",
"c  c #406D2C",
"v  c #49792B",
"b  c #464646",
"n  c #4C4C4C",
"m  c #525040",
"M  c #595745",
"N  c #535353",
"B  c #5A5A5A",
"V  c #6F6C57",
"C  c #6F7156",
"Z  c #72705A",
"A  c #626262",
"S  c #6D6D6D",
"D  c #727271",
"F  c #7C7C7B",
"G  c #43811F",
"H  c #458420",
"J  c #498B22",
"K  c #4E9425",
"L  c #509726",
"P  c #519A27",
"I  c #539D29",
"U  c #508B33",
"Y  c #518739",
"T  c #558F3A",
"R  c #569834",
"E  c #5A9839",
"W  c #5C9E3B",
"Q  c #57A32A",
"!  c #59A72B",
"~  c #5DAD2D",
"^  c #61B52F",
"/  c #66BE32",
"(  c #69BF36",
")  c #64B23A",
"_  c #6ABD3A",
"`  c #738A56",
"'  c #66AF41",
"]  c #73A44F",
"[  c #6AB744",
"{  c #6AB941",
"}  c #73C144",
"|  c #77C248",
" . c #79C34B",
".. c #7FC452",
"X. c #858E66",
"o. c #849565",
"O. c #8E8A70",
"+. c #9B997B",
"@. c #A09C7F",
"#. c #99BF71",
"$. c #A1BB7A",
"%. c #84C657",
"&. c #85C659",
"*. c #88C75C",
"=. c #8FC964",
"-. c #92CA66",
";. c #98C76E",
":. c #95CB6A",
">. c #9ACD6E",
",. c #9CCD70",
"<. c #A1CF76",
"1. c #A2C379",
"2. c #A5D079",
"3. c #A9D27D",
"4. c #818181",
"5. c #8B8A86",
"6. c #8E8D88",
"7. c #A7AD83",
"8. c #B4AF8F",
"9. c #B3AF91",
"0. c #B6B291",
"q. c #B8B395",
"w. c #BCB896",
"e. c #C1BD9A",
"r. c #AED482",
"t. c #B3D687",
"y. c #B5D789",
"u. c #BAD98D",
"i. c #BBC292",
"p. c #C5C19E",
"a. c #C1DB94",
"s. c #C4D499",
"d. c #CADF9C",
"f. c #CDE19F",
"g. c #CAC5A1",
"h. c #CECBA3",
"j. c #D3CEA8",
"k. c #D5D1AA",
"l. c #DCD7AF",
"z. c #D8DBAB",
"x. c #DED9B1",
"c. c #E2DDB5",
"v. c #D2E3A3",
"b. c #DAE6AB",
"n. c #DEE8AF",
"m. c #E3E7B3",
"M. c #E3EBB3",
"N. c #EBE5BB",
"B. c #ECEDBB",
"V. c #F0EEBF",
"C. c #F0F0BE",
"Z. c #F3EEC2",
"A. c #F5F2C3",
"S. c #F9F4C7",
"D. c #FDF7CA",
/* pixels */
"4.4.4.4.4.4.4.4.4.4.4.4.4.4.4.4.4.4.4.4.4.4.4.4.4.4.4.4.4.4.4.4.4.4.4.4.4.4.4.4.4.4.4.4.4.4.4.4.4.4.4.4.4.4.4.4.4.4.4.4.4.4.4.4.",
"4.4.4.4.4.4.4.4.4.4.4.4.4.4.4.4.4.4.4.4.4.4.4.4.4.4.4.4.4.4.4.4.4.4.4.4.4.4.4.4.4.4.4.4.4.4.4.4.4.4.4.4.4.4.4.4.4.4.4.4.4.4.4.4.",
"4.4.4.4.4.4.4.4.4.4.4.4.4.4.4.4.4.4.4.4.4.4.4.4.4.4.4.4.4.4.4.4.4.4.4.4.4.4.4.4.4.4.4.4.4.4.4.4.4.4.4.4.4.4.4.4.4.4.4.4.4.4.4.4.",
"4.4.4.4.4.4.4.4.4.4.4.4.4.4.4.4.4.4.4.4.4.4.4.4.4.4.4.4.4.4.4.4.4.4.4.4.4.4.4.4.4.4.4.4.4.4.4.4.4.4.4.4.4.4.4.4.4.4.4.4.4.4.4.4.",
"4.4.4.4.4.4.4.4.4.4.4.4.4.4.4.4.4.4.4.4.4.4.4.4.4.4.4.4.4.4.4.4.4.4.4.4.4.4.4.4.4.4.4.4.4.4.4.4.4.4.4.4.4.4.4.4.4.4.4.4.4.4.4.4.",
"4.4.4.4.4.4.4.4.4.4.4.4.4.4.4.4.4.4.4.4.4.4.4.4.4.4.4.4.4.4.4.4.4.4.4.4.4.4.4.4.4.4.4.4.4.4.4.4.4.4.4.4.4.4.4.4.4.4.4.4.4.4.4.4.",
"4.4.4.4.4.4.4.4.4.4.4.4.4.4.4.4.4.4.4.4.4.4.4.4.4.4.4.4.4.4.4.4.4.4.4.4.4.4.4.4.4.4.4.4.4.4.4.4.4.4.4.4.4.4.4.4.4.4.4.4.4.4.4.4.",
"4.4.4.4.4.4.4.4.4.4.4.4.4.4.4.4.4.4.4.4.4.4.4.4.4.4.4.4.4.4.4.4.4.4.4.4.4.4.4.4.4.4.4.4.4.4.4.4.4.4.4.4.4.4.4.4.4.4.4.4.4.4.4.4.",
"4.4.4.4.4.4.4.4.4.4.4.4.4.4.4.4.4.4.4.4.4.4.4.4.4.4.4.4.4.4.4.4.4.4.4.4.4.4.4.4.4.4.4.4.4.4.4.4.4.4.4.4.4.4.4.4.4.4.4.4.4.4.4.4.",
"4.4.4.4.4.4.4.4.4.4.4.4.4.4.4.4.4.4.4.4.4.4.4.4.4.4.4.4.4.4.4.4.5.5.6.5.5.4.4.4.4.4.4.4.4.4.4.4.4.4.4.4.4.4.4.4.4.4.4.4.4.4.4.4.",
"4.4.4.4.4.4.4.4.4.4.4.4.4.4.4.4.4.4.4.4.4.4.5.4.D D S B B n n p.D.D.D.D.D.D.D.D.q.b b b b n A D F 4.5.4.4.4.4.4.4.4.4.4.4.4.4.4.",
"4.4.4.4.4.4.F S A n b 9 4 $ 4 4 4 4 4 5 k.D.D.D.c.+       3 j.D.D.D.D.D.D.D.D.@.                  4 h b b N D 4.4.4.4.4.4.4.4.4.",
"4.F D A b 4                           e.D.D.D.N.M       X j.D.D.D.D.D.D.D.S.O.                                4 b D 4.4.4.4.4.4.",
"4.S 4                               w.D.D.D.Z.V - -   q h.D.D.D.D.D.D.D.Z.o.d d d d d d d i > =                   $ 9 D 4.4.4.4.",
"4.N           = > u a f K I I I I s.D.D.D.Z.=./ / / I i.D.D.D.D.D.D.D.B.*./ / / / / / / / / / / ^ L g k a y           N 4.4.4.4.",
"4.n     $ j K / / / / / / / / / f.D.D.D.A.-./ / / / $.D.D.D.D.D.D.D.B.%./ / / / / / / / / / / / / / / / / / ^ T X     b 4.4.4.4.",
"4.b     l / / / / / / / / / / u.D.D.D.S.:./ / / / ;.D.D.D.D.D.D.D.M.| / / / / / / / / / / / / / / / / / / / / / y     b 4.4.4.4.",
"4.b     l / / / / / / / / / >.D.D.D.S.<./ / / / #.S.D.D.D.D.D.D.k.R ^ / / / / / / / / / / / / / / / / / / / / / f     9 4.4.4.4.",
"4.b     a / / / / / / / / ,.S.D.D.S.,./ / K r +.S.D.D.D.D.D.D.p.+     p ! / / / / / / / / / / / / / / / / / / / L     4 4.4.4.4.",
"4.b     s / / / / / / / 2.S.D.D.C.=./ ! p   0.S.D.D.D.D.D.D.8.          o K / / / / / / / / / / / / / / / / / / ^       4.4.4.4.",
"4.n     p / / / / / / 2.S.D.D.v.| / ! w 2 j.D.D.D.D.D.D.D.7.% * r >       p / / / / / / / / / / / / / / / / / / /       F 4.4.4.",
"4.A     : / / / / / <.A.D.S.t./ / ! : h x.D.D.D.D.D.D.S.1.K * s ^ / t   . G / / / / / / / / / / / / / / / / / / / :     A 4.4.4.",
"4.F       / / / ( f.D.D.A.:./ / / g 6 l.D.D.D.D.D.D.Z.X.Q K % g ^ / ^ P P ^ / / / / / / / / / / / / / / / / / / / u     n 4.4.4.",
"4.4.      / / &.M.D.D.B.&./ / / / v x.D.D.D.D.D.D.V.C s ^ J   H / / / / / / / / / / / / / / / / / / / / / / / / / a     n 4.4.4.",
"4.4.      / ,.A.D.D.b.| / / / / _ z.D.D.D.D.D.D.B.] % f ^ G   J / / / / / / / / / / / / / / / / / / / / / / / / / a     b 4.4.4.",
"4.4.      y.D.D.D.v.( / / / / } b.D.D.D.D.D.D.m.| L % f ~ s & K / / / / / / / / / / / / / / / / / / / / / / / / / d     b 4.4.4.",
"4.4.  6 g.D.D.D.f./ / / / / | n.D.D.D.D.D.D.k.h G K % g Q r q ! / / / / / / / / / / / / / / / / / / / / / / / / / a     b 4.4.4.",
"4.4.M N.D.D.D.d./ / / / / ..B.D.D.D.D.D.D.g.#     %   q s 0 w ! / / / / / / / / / / / / / / / / / / / / / / / / / g     9 4.4.4.",
"4.4.Z.D.D.D.a./ / / / / *.B.D.D.D.D.D.D.s.g r                   ; s K ^ / / / / / / / / / / / / / / / / / / / / / K     4 4.4.4.",
"4.4.D.D.S.y./ / / / / ,.C.D.D.D.D.D.D.y./ / ^ G ;                     > K / / / / / / / / / / / / / / / / / / / / Q     4 4.4.4.",
"4.5.D.N.Z ^ / / / / a.D.D.D.D.D.D.D.3./ / / / / I 0 & t w               O Q / / / / / / / / / / / / / / / / / / / ^       4.4.4.",
"4.4.0.6   Q / / } b.D.D.D.D.D.D.A.>./ / / / / / ! w w ! K * s ~ K s o     * ! / / / / / / / / / / / / / / / / / / ^       4.4.4.",
"4.4.4     K / -.B.D.D.D.D.D.D.A.-./ / / / / / / ! w w ! K % f ^ / / J o     p / / / / / / / / / / / / / / / / / / ~     @ F 4.4.",
"4.O.b     g t.S.D.D.D.D.D.D.B.&./ / / / / / / / ! w w ! K % g ^ / / / K       / / / / / / / / / / / / / / / / / / ^ *     D 4.4.",
"4.4.b   x x.D.D.D.D.D.D.D.M. ./ / / / / / / / / ! w w ! H   H / / / / /       / / / / / / / / / / / / / / / / / / / >     A 4.4.",
"4.4.b +.A.D.D.D.D.D.D.D.n.} / / / / / / / / / / ! w w I g % K / / / / /       ^ / / / / / / / / / / / / / / / / / / r     N 4.4.",
"4.4.9.S.D.D.D.D.D.D.D.v._ / / / / / / / / / / / ! q r Q f % L / / / / / -     Q / / / / / / / / / / / / / / / / / / q     B 4.4.",
"4.4.Z.D.D.D.D.D.D.D.f.( / / / / / / / / / / / / K * p ~ f % L / / / / / -     ! / / / / / / / / / / / / / / / / / / p     n 4.4.",
"4.4.Z.Z.D.D.D.D.D.u./ / / / / / / ^ ~ ^ / / / / K % f ~ f % K / / / / J       ^ / / / / / / / / / / / / / / / / / / a     b 4.4.",
"4.4.Z.S.D.D.D.D.r./ / / / / / / / G   q r f G ! K % g ~ f & K / ! g u       J / / / / / / / / / / / / / / / / / / / a     b 4.4.",
"4.4.Z.D.D.D.S.r./ / / / / / / / / 0             :   0 p > . > r %         z / / / / / / / / / / / / / / / / / / / / f     b 4.4.",
"4.4.Z.D.D.Z.=.) / / / / / / / / / K *                                 O v ^ / / / / / / / / / / / / / / / / / / / / K     4 4.4.",
"4.4.Z.D.B.` / / / / / / / / / / / / ! s q > w                     w z ! / / / / / / / / / / / / / / / / / / / / / / Q     $ 4.4.",
"4.4.S.c.m i / / / / / / / / / / / / / / / / / ! u   r p q . > p P ^ / / / / / / / / / / / / / / / / / / / / / / / / '       4.4.",
"4.4.c.8   > / / / / / / / / / / / / / / / / / / / J / / H   J / / / / / / / / / / / / / / / / / / / / / / / / / / / {       F 4.",
"4.4.S     1 / / / / / / / / / ! G K I I I R R R U c k k l e l l l c Y E W ' [ [ _ / / / / / / / / / / / / / / / / / _ <     D 4.",
"4.4.S     < ) L f a s p > ; : O                                                       < , 1 1 y w t g H f a f K I W ) 1     A 4.",
"4.4.S                                                                                                                 X     7 4.",
"4.4.S                           5 4 4 4 4 4 4 4 4 9 b b b b b b b b 4 4 $                                                   @ 4.",
"4.4.S         4 b b b n A S S S F 4.4.4.4.F 4.4.4.4.4.4.4.4.4.4.F 4.4.4.4.4.4.4.4.4.F D S S A b 7 9 9 5 9 b 9 4 4 4         7 4.",
"4.4.F n @ n F 4.F 4.4.4.4.4.4.4.4.4.4.4.4.4.4.4.4.4.4.4.4.4.4.4.4.4.4.4.4.4.4.4.4.4.4.4.F 4.4.4.4.4.4.4.4.4.4.4.F 4.F B 7 b D 4.",
"4.4.4.4.4.4.4.4.4.4.4.4.4.4.4.4.4.4.4.4.4.4.4.4.4.4.4.4.4.4.4.4.4.4.4.4.4.4.4.4.4.4.4.4.4.4.4.4.4.4.4.4.4.4.4.4.4.4.4.4.4.4.4.4.",
"4.4.4.4.4.4.4.4.4.4.4.4.4.4.4.4.4.4.4.4.4.4.4.4.4.4.4.4.4.4.4.4.4.4.4.4.4.4.4.4.4.4.4.4.4.4.4.4.4.4.4.4.4.4.4.4.4.4.4.4.4.4.4.4.",
"4.4.4.4.4.4.4.4.4.4.4.4.4.4.4.4.4.4.4.4.4.4.4.4.4.4.4.4.4.4.4.4.4.4.4.4.4.4.4.4.4.4.4.4.4.4.4.4.4.4.4.4.4.4.4.4.4.4.4.4.4.4.4.4.",
"4.4.4.4.4.4.4.4.4.4.4.4.4.4.4.4.4.4.4.4.4.4.4.4.4.4.4.4.4.4.4.4.4.4.4.4.4.4.4.4.4.4.4.4.4.4.4.4.4.4.4.4.4.4.4.4.4.4.4.4.4.4.4.4.",
"4.4.4.4.4.4.4.4.4.4.4.4.4.4.4.4.4.4.4.4.4.4.4.4.4.4.4.4.4.4.4.4.4.4.4.4.4.4.4.4.4.4.4.4.4.4.4.4.4.4.4.4.4.4.4.4.4.4.4.4.4.4.4.4.",
"4.4.4.4.4.4.4.4.4.4.4.4.4.4.4.4.4.4.4.4.4.4.4.4.4.4.4.4.4.4.4.4.4.4.4.4.4.4.4.4.4.4.4.4.4.4.4.4.4.4.4.4.4.4.4.4.4.4.4.4.4.4.4.4.",
"4.4.4.4.4.4.4.4.4.4.4.4.4.4.4.4.4.4.4.4.4.4.4.4.4.4.4.4.4.4.4.4.4.4.4.4.4.4.4.4.4.4.4.4.4.4.4.4.4.4.4.4.4.4.4.4.4.4.4.4.4.4.4.4.",
"4.4.4.4.4.4.4.4.4.4.4.4.4.4.4.4.4.4.4.4.4.4.4.4.4.4.4.4.4.4.4.4.4.4.4.4.4.4.4.4.4.4.4.4.4.4.4.4.4.4.4.4.4.4.4.4.4.4.4.4.4.4.4.4.",
"4.4.4.4.4.4.4.4.4.4.4.4.4.4.4.4.4.4.4.4.4.4.4.4.4.4.4.4.4.4.4.4.4.4.4.4.4.4.4.4.4.4.4.4.4.4.4.4.4.4.4.4.4.4.4.4.4.4.4.4.4.4.4.4.",
"4.4.4.4.4.4.4.4.4.4.4.4.4.4.4.4.4.4.4.4.4.4.4.4.4.4.4.4.4.4.4.4.4.4.4.4.4.4.4.4.4.4.4.4.4.4.4.4.4.4.4.4.4.4.4.4.4.4.4.4.4.4.4.4.",
"4.4.4.4.4.4.4.4.4.4.4.4.4.4.4.4.4.4.4.4.4.4.4.4.4.4.4.4.4.4.4.4.4.4.4.4.4.4.4.4.4.4.4.4.4.4.4.4.4.4.4.4.4.4.4.4.4.4.4.4.4.4.4.4.",
"4.4.4.4.4.4.4.4.4.4.4.4.4.4.4.4.4.4.4.4.4.4.4.4.4.4.4.4.4.4.4.4.4.4.4.4.4.4.4.4.4.4.4.4.4.4.4.4.4.4.4.4.4.4.4.4.4.4.4.4.4.4.4.4.",
"4.4.4.4.4.4.4.4.4.4.4.4.4.4.4.4.4.4.4.4.4.4.4.4.4.4.4.4.4.4.4.4.4.4.4.4.4.4.4.4.4.4.4.4.4.4.4.4.4.4.4.4.4.4.4.4.4.4.4.4.4.4.4.4."
};
