/* XPM */
static char *result[] = {
/* columns rows colors chars-per-pixel */
"64 64 222 2 ",
"   c black",
".  c gray1",
"X  c #050605",
"o  c #030D01",
"O  c #080908",
"+  c #051201",
"@  c #071602",
"#  c #091A02",
"$  c #0A1D02",
"%  c #0C1F03",
"&  c gray9",
"*  c #191919",
"=  c gray10",
"-  c #1B1B1B",
";  c #1E1E1E",
":  c #0C2003",
">  c #0D2203",
",  c #0F2504",
"<  c #102704",
"1  c #112905",
"2  c #122B05",
"3  c #142D05",
"4  c #142C06",
"5  c #152F06",
"6  c #172E0B",
"7  c #163106",
"8  c #173207",
"9  c #183607",
"0  c #183608",
"q  c #193708",
"w  c #1A3908",
"e  c #1B3A09",
"r  c #1C3B09",
"t  c #1C3B0B",
"y  c #1D3E0A",
"u  c #1E3F0A",
"i  c #1D3A0E",
"p  c #1A2815",
"a  c #1D2D17",
"s  c #1D2E16",
"d  c #1C2519",
"f  c #1E2A1A",
"g  c #1B3210",
"h  c #1F3615",
"j  c #203418",
"k  c #243C1B",
"l  c gray13",
"z  c #222222",
"x  c #252525",
"c  c gray17",
"v  c #2D2D2D",
"b  c #313131",
"n  c gray20",
"m  c gray21",
"M  c #3A3A3A",
"N  c gray24",
"B  c #3F3F3F",
"V  c #1F410B",
"C  c #1F420B",
"Z  c #20430C",
"A  c #21420F",
"S  c #21440C",
"D  c #22450F",
"F  c #23480D",
"G  c #254C0E",
"H  c #264E0F",
"J  c #264B11",
"K  c #28471B",
"L  c #2C4E1C",
"P  c #295310",
"I  c #2B5611",
"U  c #2D5A13",
"Y  c #2E5C13",
"T  c #2F5D14",
"R  c #2B5019",
"E  c #2D5518",
"W  c #305F14",
"Q  c #305F15",
"!  c #305F16",
"~  c #315E19",
"^  c #315D1A",
"/  c #335B1F",
"(  c #336516",
")  c #346516",
"_  c #356817",
"`  c #366A18",
"'  c #376A18",
"]  c #376A19",
"[  c #376A1B",
"{  c #37691C",
"}  c #386E19",
"|  c #38681D",
" . c #38691D",
".. c #38681E",
"X. c #3B721A",
"o. c #3C741B",
"O. c #3C751B",
"+. c #3D761B",
"@. c #3E781C",
"#. c #3F7A1D",
"$. c #345924",
"%. c #3A6526",
"&. c #3A6427",
"*. c #3B6328",
"=. c #3B6329",
"-. c #417E1E",
";. c #406D2B",
":. c #406C2C",
">. c #496332",
",. c #434343",
"<. c #464646",
"1. c #484848",
"2. c #494949",
"3. c gray30",
"4. c gray31",
"5. c #515151",
"6. c gray33",
"7. c gray35",
"8. c gray38",
"9. c gray40",
"0. c #6A6A6A",
"q. c #6C6C6C",
"w. c #6F6F6F",
"e. c #7E7C67",
"r. c #717171",
"t. c #7B7B7B",
"y. c #7E7E7E",
"u. c gray50",
"i. c #43811F",
"p. c #458420",
"a. c #488921",
"s. c #498B22",
"d. c #4C8F23",
"f. c #4C9024",
"g. c #4D9224",
"h. c #4F9625",
"j. c #4F9626",
"k. c #509726",
"l. c #519A27",
"z. c #539D28",
"x. c #549F28",
"c. c #549C2B",
"v. c #549B2D",
"b. c #508B33",
"n. c #518739",
"m. c #558F3A",
"M. c #559932",
"N. c #569834",
"B. c #579836",
"V. c #58943D",
"C. c #5B9F39",
"Z. c #5C9D3D",
"A. c #55A028",
"S. c #57A42A",
"D. c #59A72B",
"F. c #58A32F",
"G. c #5CAC2C",
"H. c #5DAD2D",
"J. c #60B32F",
"K. c #61B52F",
"L. c #63B337",
"P. c #64BA31",
"I. c #66BE32",
"U. c #66BE33",
"Y. c #67BD36",
"T. c #67BC37",
"R. c #64B13D",
"E. c #68BB3A",
"W. c #6C9E47",
"Q. c #65AF40",
"!. c #66AE42",
"~. c #6AB744",
"^. c #69B940",
"/. c #6AB841",
"(. c #7CC44F",
"). c #879568",
"_. c #8A966A",
"`. c #8E9E6E",
"'. c #8F9B70",
"]. c #818180",
"[. c #818181",
"{. c #A4A189",
"}. c #AFAD8C",
"|. c #B0AE8B",
" X c #B4AF8F",
".X c #AFB18A",
"XX c #B6B294",
"oX c #B6B299",
"OX c #B7B49B",
"+X c #BEBB9F",
"@X c #C0BE98",
"#X c #C1BEA1",
"$X c #C2BEA4",
"%X c #C7C59F",
"&X c #C8C79F",
"*X c #C6C3A0",
"=X c #CAC6A5",
"-X c #C9C5A7",
";X c #CECAA8",
":X c #D1CCA8",
">X c #D4CFA9",
",X c #D6D1AC",
"<X c #D6D1AD",
"1X c #D7D2AC",
"2X c #DBD5AE",
"3X c #EAE5BB",
"4X c #EBE6BB",
"5X c #EEE8BE",
"6X c #F2ECC1",
"7X c #F5EFC4",
"8X c #F5F0C4",
"9X c #F6F0C4",
"0X c #F7F1C5",
"qX c #F8F2C6",
"wX c #F9F3C7",
"eX c #FAF4C7",
"rX c #FAF4C8",
"tX c #FBF5C8",
"yX c #FBF5C9",
"uX c #FCF6C9",
"iX c #FCF6CA",
"pX c #FDF7CA",
/* pixels */
"[.[.[.[.[.[.[.[.[.[.[.[.[.[.[.[.[.[.[.[.[.[.[.[.[.[.[.[.[.[.[.[.[.[.[.[.[.[.[.[.[.[.[.[.[.[.[.[.[.[.[.[.[.[.[.[.[.[.[.[.[.[.[.[.",
"[.[.[.[.[.[.[.[.[.[.[.[.[.[.[.[.[.[.[.[.[.[.[.[.[.[.[.[.[.[.[.[.[.[.[.[.[.[.[.[.[.[.[.[.[.[.[.[.[.[.[.[.[.[.[.[.[.[.[.[.[.[.[.[.",
"[.[.[.[.[.[.[.[.[.[.[.[.[.[.[.[.[.[.[.[.[.[.[.[.[.[.[.[.[.[.[.[.[.[.[.[.[.[.[.[.[.[.[.[.[.[.[.[.[.[.[.[.[.[.[.[.[.[.[.[.[.[.[.[.",
"[.[.[.[.[.[.[.[.[.[.[.[.[.[.[.[.[.[.[.[.[.[.[.[.[.[.[.[.[.[.[.[.[.[.[.[.[.[.[.[.[.[.[.[.[.[.[.[.[.[.[.[.[.[.[.[.[.[.[.[.[.[.[.[.",
"[.[.[.[.[.[.[.[.[.[.[.[.[.[.[.[.[.[.[.[.[.[.[.[.[.[.[.[.[.[.[.[.[.[.[.[.[.[.[.[.[.[.[.[.[.[.[.[.[.[.[.[.[.[.[.[.[.[.[.[.[.[.[.[.",
"[.[.[.[.[.[.[.[.[.[.[.[.[.[.[.[.[.[.[.[.[.[.[.[.[.[.[.[.[.[.[.[.[.[.[.[.[.[.[.[.[.[.[.[.[.[.[.[.[.[.[.[.[.[.[.[.[.[.[.[.[.[.[.[.",
"[.[.[.[.[.[.[.[.[.[.[.[.[.[.[.[.[.[.[.[.[.[.[.[.[.[.[.[.[.[.[.[.[.[.[.[.[.[.[.[.[.[.[.[.[.[.[.[.[.[.[.[.[.[.[.[.[.[.[.[.[.[.[.[.",
"[.[.[.[.[.[.[.[.[.[.[.[.[.[.[.[.[.[.[.[.[.[.[.[.[.[.[.[.[.[.[.[.[.[.[.[.[.[.[.[.[.[.[.[.[.[.[.[.[.[.[.[.[.[.[.[.[.[.[.[.[.[.[.[.",
"[.[.[.[.[.[.[.[.[.[.[.[.[.[.[.[.[.[.[.[.[.[.[.[.[.[.[.[.[.[.[.[.[.[.[.[.[.[.[.[.[.[.[.[.[.[.[.[.[.[.[.[.[.[.[.[.[.[.[.[.[.[.[.[.",
"[.[.[.[.[.[.[.[.[.[.[.[.[.[.[.[.[.[.[.[.[.[.[.[.[.[.[.[.[.[.[.[.[.[.[.[.[.[.[.[.[.[.[.[.[.[.[.[.[.[.[.[.[.[.[.[.[.[.[.[.[.[.[.[.",
"[.[.[.[.[.[.[.[.[.[.[.[.[.[.[.[.[.[.[.[.[.[.[.t.w.w.q.7.7.3.<.<.<.<.<.<.<.<.<.<.<.<.<.<.<.3.8.w.t.[.[.[.[.[.[.[.[.[.[.[.[.[.[.[.",
"[.[.[.[.[.[.$X+X;X<X1Xe.x l l l l l l x n                                                         z B <.<.5.r.[.[.[.[.[.[.[.[.[.",
"[.u.OX=X3XtXuXyXpXpXpX4X                                                                                      z 1.r.[.[.[.[.[.[.",
"[.oX0XpXpXpXpXuXuXqX6X X                        7 7   D A ~ ..| |  . .| | ...... . . .....^ i 6                   - B r.[.[.[.[.",
"[.{.eXpXpX5X2X|.%X)._.>.f.z.z.z.z.z.z.f.p.D.I.I.I.P.z.+.G.I.I.D.I.I.I.I.I.I.I.I.I.I.I.I.I.I.I.I.K.k.o.` ` E           5.[.[.[.[.",
"[.XXtXiXrX@XW.I.I.I.I.I.I.I.I.I.I.I.I.I.I.I.I.I.I.P.h.Y G.I.D.F D.I.I.I.I.I.I.I.I.I.I.I.I.I.I.I.I.I.I.I.I.I.K.m.O     <.[.[.[.[.",
"[.*XiXwX&X(.I.I.I.I.I.I.I.I.I.I.I.I.I.I.I.I.I.I.I.K.O.2 j.I.o.  #.I.I.I.I.I.I.I.I.I.I.I.I.I.I.I.I.I.I.I.I.I.I.I.L     <.[.[.[.[.",
"[.:XpX9X'.I.I.I.I.I.I.I.I.I.I.I.I.I.I.I.I.I.I.I.D.o.y + P ) r o U k.K.I.I.I.I.I.I.I.I.I.I.I.I.I.I.I.I.I.I.I.I.I.o.    B [.[.[.[.",
"[.,XpX7X`.I.I.I.I.I.I.I.I.I.I.I.I.I.I.I.I.g.H 5                       ( D.I.I.I.I.I.I.I.I.I.I.I.I.I.I.I.I.I.I.I.k.    z [.[.[.[.",
"[.#XpX8X`.I.I.I.I.I.I.I.I.I.I.I.I.I.I.D.(                               @ h.I.I.I.I.I.I.I.I.I.I.I.I.I.I.I.I.I.I.K.      [.[.[.[.",
"[.-XpXwX.XI.I.I.I.I.I.I.I.I.I.I.I.I.D.F           G < < T T > 2 P q       ( I.I.I.I.I.I.I.I.I.I.I.I.I.I.I.I.I.I.I.      t.[.[.[.",
"[.].>X}.4 I.I.I.I.I.I.I.I.I.I.I.I.D.8       S p.K.D.G G D.j.1 _ K.I.T   o i.I.I.I.I.I.I.I.I.I.I.I.I.I.I.I.I.I.I.I.q     9.[.[.[.",
"[.y.      I.I.I.I.I.I.I.I.I.I.I.I.#.    2 D.I.I.I.D.S P D.j.: @.K.I.J.l.l.J.I.I.I.I.I.I.I.I.I.I.I.I.I.I.I.I.I.I.I.Q     3.[.[.[.",
"[.[.      I.I.I.I.I.I.I.I.I.I.I.I.o.    P I.I.I.I.j.1 _ K.s.  p.I.I.I.I.I.I.I.I.I.I.I.I.I.I.I.I.I.I.I.I.I.I.I.I.I.`     <.[.[.[.",
"[.[.      I.I.I.I.I.I.I.I.I.I.I.I.k.    , D.I.I.I.j., X.K.p.  s.I.I.I.I.I.I.I.I.I.I.I.I.I.I.I.I.I.I.I.I.I.I.I.I.I.`     <.[.[.[.",
"[.[.      I.I.I.I.I.I.I.I.I.I.I.I.K.U     2 ` D.I.j., X.H.} , j.I.I.I.I.I.I.I.I.I.I.I.I.I.I.I.I.I.I.I.I.I.I.I.I.I.`     <.[.[.[.",
"[.[.      I.I.I.I.I.I.I.I.I.I.I.I.I.D.F       1 a.d.: @.x.P S D.I.I.I.I.I.I.I.I.I.I.I.I.I.I.I.I.I.I.I.I.I.I.I.I.I.`     <.[.[.[.",
"[.[.      I.I.I.I.I.I.I.I.I.I.I.I.I.I.D.8         :   F ` C G D.I.I.I.I.I.I.I.I.I.I.I.I.I.I.I.I.I.I.I.I.I.I.I.I.I.o.    B [.[.[.",
"[.[.      I.I.I.I.I.I.I.I.I.I.I.I.I.I.I.D.#.H                   q _ k.K.I.I.I.I.I.I.I.I.I.I.I.I.I.I.I.I.I.I.I.I.I.f.    x [.[.[.",
"[.[.      I.I.I.I.I.I.I.I.I.I.I.I.I.I.I.I.I.K.a.8                     w j.I.I.I.I.I.I.I.I.I.I.I.I.I.I.I.I.I.I.I.I.S.    ; [.[.[.",
"[.[.      K.I.I.I.I.I.I.I.I.I.I.I.I.I.I.I.I.I.I.x.V < T G               # A.I.I.I.I.I.I.I.I.I.I.I.I.I.I.I.I.I.I.I.K.      [.[.[.",
"[.[.;     S.I.I.I.I.I.I.I.I.I.I.I.I.I.I.I.I.I.I.D.G G D.j.1 _ H.k._ +     3 D.I.I.I.I.I.I.I.I.I.I.I.I.I.I.I.I.I.I.K.      [.[.[.",
"[.[.x     f.I.I.I.I.I.I.I.I.I.I.I.I.I.I.I.I.I.I.D.G G D.j., X.K.I.I.f.+     ( I.I.I.I.I.I.I.I.I.I.I.I.I.I.I.I.I.I.G.    & t.[.[.",
"[.[.B     o.I.I.I.I.I.I.I.I.I.I.I.I.I.I.I.I.I.I.D.G G D.j.: @.K.I.I.I.g.      I.I.I.I.I.I.I.I.I.I.I.I.I.I.I.I.I.I.K.2     w.[.[.",
"[.[.<.    ` I.I.I.I.I.I.I.I.I.I.I.I.I.I.I.I.I.I.D.G G D.p.  p.I.I.I.I.I.      I.I.I.I.I.I.I.I.I.I.I.I.I.I.I.I.I.I.I.r     8.[.[.",
"[.[.<.    ' I.I.I.I.I.I.I.I.I.I.I.I.I.I.I.I.I.I.D.G G x.@.: j.I.I.I.I.I.      K.I.I.I.I.I.I.I.I.I.I.I.I.I.I.I.I.I.I.I     6.[.[.",
"[.[.<.    ' I.I.I.I.I.I.I.I.I.I.I.I.I.I.I.I.I.I.D.S P x.X., j.I.I.I.I.I.7     S.I.I.I.I.I.I.I.I.I.I.I.I.I.I.I.I.I.I.Z     7.[.[.",
"[.[.<.    ] I.I.I.I.I.I.I.I.I.I.I.I.I.I.I.I.I.I.j.1 _ H.X., j.I.I.I.I.I.7     S.I.I.I.I.I.I.I.I.I.I.I.I.I.I.I.I.I.I.W     3.[.[.",
"[.[.<.    { I.I.I.I.I.I.I.I.I.I.I.K.G.K.I.I.I.I.j., X.H.X., j.I.I.I.I.s.      K.I.I.I.I.I.I.I.I.I.I.I.I.I.I.I.I.I.I.`     <.[.[.",
"[.[.3.    $.I.I.I.I.I.I.I.I.I.I.I.-.  S P o.p.D.j.: @.H.X., j.I.D.#.W       s.I.I.I.I.I.I.I.I.I.I.I.I.I.I.I.I.I.I.I.`     <.[.[.",
"[.[.7.    k I.I.I.I.I.I.I.I.I.I.I.u             q   V ) y o r P ,         -.I.I.I.I.I.I.I.I.I.I.I.I.I.I.I.I.I.I.I.I.o.    B [.[.",
"[.[.3.    / I.I.I.I.I.I.I.I.I.I.I.j.2                                 $ -.K.I.I.I.I.I.I.I.I.I.I.I.I.I.I.I.I.I.I.I.I.f.    x [.[.",
"[.[.<.    [ I.I.I.I.I.I.I.I.I.I.I.I.D.` S e H                     H #.D.I.I.I.I.I.I.I.I.I.I.I.I.I.I.I.I.I.I.I.I.I.I.F.    ; [.[.",
"[.[.3.    ! I.I.I.I.I.I.I.I.I.I.I.I.I.I.I.I.I.D.W   P ) V o r ) k.K.I.I.I.I.I.I.I.I.I.I.I.I.I.I.I.I.I.I.I.I.I.I.I.I.Q.      [.[.",
"[.[.8.    t I.I.I.I.I.I.I.I.I.I.I.I.I.I.I.I.I.I.I.s.I.I.p.  s.I.I.I.I.I.I.I.I.I.I.I.I.I.I.I.I.I.I.I.I.I.I.I.I.I.I.I./.      t.[.",
"[.[.0.    g I.I.I.I.I.I.I.I.I.D.p.f.z.z.c.M.B.N.b.;.%.&.*.K *.=.*.:.n.V.Z.!.~.^.E.Y.U.I.I.I.I.I.I.I.I.I.I.I.I.I.I.I.T.p     w.[.",
"[.[.0.    f R.k.o.` ` W r 9 0 %                                                       d a s h R J T o.p.o.` o.f.v.C.L.j     8.[.",
"[.[.0.    .                                                                                                           X     M [.",
"[.[.0.                          v x l l l l l l x B <.<.<.<.<.<.<.B x l ;                                                   = [.",
"[.[.w.        z B <.<.3.8.0.0.w.t.[.[.[.[.[.[.[.[.[.[.[.[.[.[.[.[.[.[.[.[.[.[.[.[.[.t.w.0.0.8.,.b N B c B <.B x l ;         b [.",
"[.[.t.2.* 4.t.[.[.[.[.[.[.[.[.[.[.[.[.[.[.[.[.[.[.[.[.[.[.[.[.[.[.[.[.[.[.[.[.[.[.[.[.[.[.[.[.[.[.[.[.[.[.[.[.[.[.[.t.7.m <.r.[.",
"[.[.[.[.[.[.[.[.[.[.[.[.[.[.[.[.[.[.[.[.[.[.[.[.[.[.[.[.[.[.[.[.[.[.[.[.[.[.[.[.[.[.[.[.[.[.[.[.[.[.[.[.[.[.[.[.[.[.[.[.[.[.[.[.",
"[.[.[.[.[.[.[.[.[.[.[.[.[.[.[.[.[.[.[.[.[.[.[.[.[.[.[.[.[.[.[.[.[.[.[.[.[.[.[.[.[.[.[.[.[.[.[.[.[.[.[.[.[.[.[.[.[.[.[.[.[.[.[.[.",
"[.[.[.[.[.[.[.[.[.[.[.[.[.[.[.[.[.[.[.[.[.[.[.[.[.[.[.[.[.[.[.[.[.[.[.[.[.[.[.[.[.[.[.[.[.[.[.[.[.[.[.[.[.[.[.[.[.[.[.[.[.[.[.[.",
"[.[.[.[.[.[.[.[.[.[.[.[.[.[.[.[.[.[.[.[.[.[.[.[.[.[.[.[.[.[.[.[.[.[.[.[.[.[.[.[.[.[.[.[.[.[.[.[.[.[.[.[.[.[.[.[.[.[.[.[.[.[.[.[.",
"[.[.[.[.[.[.[.[.[.[.[.[.[.[.[.[.[.[.[.[.[.[.[.[.[.[.[.[.[.[.[.[.[.[.[.[.[.[.[.[.[.[.[.[.[.[.[.[.[.[.[.[.[.[.[.[.[.[.[.[.[.[.[.[.",
"[.[.[.[.[.[.[.[.[.[.[.[.[.[.[.[.[.[.[.[.[.[.[.[.[.[.[.[.[.[.[.[.[.[.[.[.[.[.[.[.[.[.[.[.[.[.[.[.[.[.[.[.[.[.[.[.[.[.[.[.[.[.[.[.",
"[.[.[.[.[.[.[.[.[.[.[.[.[.[.[.[.[.[.[.[.[.[.[.[.[.[.[.[.[.[.[.[.[.[.[.[.[.[.[.[.[.[.[.[.[.[.[.[.[.[.[.[.[.[.[.[.[.[.[.[.[.[.[.[.",
"[.[.[.[.[.[.[.[.[.[.[.[.[.[.[.[.[.[.[.[.[.[.[.[.[.[.[.[.[.[.[.[.[.[.[.[.[.[.[.[.[.[.[.[.[.[.[.[.[.[.[.[.[.[.[.[.[.[.[.[.[.[.[.[.",
"[.[.[.[.[.[.[.[.[.[.[.[.[.[.[.[.[.[.[.[.[.[.[.[.[.[.[.[.[.[.[.[.[.[.[.[.[.[.[.[.[.[.[.[.[.[.[.[.[.[.[.[.[.[.[.[.[.[.[.[.[.[.[.[.",
"[.[.[.[.[.[.[.[.[.[.[.[.[.[.[.[.[.[.[.[.[.[.[.[.[.[.[.[.[.[.[.[.[.[.[.[.[.[.[.[.[.[.[.[.[.[.[.[.[.[.[.[.[.[.[.[.[.[.[.[.[.[.[.[.",
"[.[.[.[.[.[.[.[.[.[.[.[.[.[.[.[.[.[.[.[.[.[.[.[.[.[.[.[.[.[.[.[.[.[.[.[.[.[.[.[.[.[.[.[.[.[.[.[.[.[.[.[.[.[.[.[.[.[.[.[.[.[.[.[.",
"[.[.[.[.[.[.[.[.[.[.[.[.[.[.[.[.[.[.[.[.[.[.[.[.[.[.[.[.[.[.[.[.[.[.[.[.[.[.[.[.[.[.[.[.[.[.[.[.[.[.[.[.[.[.[.[.[.[.[.[.[.[.[.[.",
"[.[.[.[.[.[.[.[.[.[.[.[.[.[.[.[.[.[.[.[.[.[.[.[.[.[.[.[.[.[.[.[.[.[.[.[.[.[.[.[.[.[.[.[.[.[.[.[.[.[.[.[.[.[.[.[.[.[.[.[.[.[.[.[."
};
