/* XPM */
static char * enemy_xpm[] = {
"64 64 114 2",
"  	c #808080",
". 	c #C16464",
"+ 	c #937A7A",
"@ 	c #AC7070",
"# 	c #939393",
"$ 	c #A4A4A4",
"% 	c #B6B6B6",
"& 	c #DBDBDB",
"* 	c #DFDFDF",
"= 	c #C7C7C7",
"- 	c #AFAFAF",
"; 	c #FA1E1E",
"> 	c #DC4F4F",
", 	c #E84242",
"' 	c #C0C0C0",
") 	c #DCDCDC",
"! 	c #F0F0F0",
"~ 	c #FFFFFF",
"{ 	c #F9F9F9",
"] 	c #CFCFCF",
"^ 	c #FC1414",
"/ 	c #EC3B3B",
"( 	c #F42E2E",
"_ 	c #C59797",
": 	c #EEEEEE",
"< 	c #E8E8E8",
"[ 	c #ACACAC",
"} 	c #C56262",
"| 	c #FC1515",
"1 	c #CD5C5C",
"2 	c #FF0000",
"3 	c #FFBCBC",
"4 	c #FEFEFE",
"5 	c #FDFDFD",
"6 	c #EAEAEA",
"7 	c #F7F7F7",
"8 	c #FBFBFB",
"9 	c #BF6666",
"0 	c #F72626",
"a 	c #FB2020",
"b 	c #E7A8A8",
"c 	c #FCB6B6",
"d 	c #FF8383",
"e 	c #FFCBCB",
"f 	c #F8F8F8",
"g 	c #E9E9E9",
"h 	c #D7D7D7",
"i 	c #B3B3B3",
"j 	c #8A8A8A",
"k 	c #D8D8D8",
"l 	c #EE3939",
"m 	c #F52B2B",
"n 	c #F92020",
"o 	c #F28888",
"p 	c #FF2B2B",
"q 	c #FE3636",
"r 	c #EAADAD",
"s 	c #EDEDED",
"t 	c #EA8F8F",
"u 	c #FDC9C9",
"v 	c #EB7A7A",
"w 	c #EFE2E2",
"x 	c #B76B6B",
"y 	c #E59F9F",
"z 	c #DCB6B6",
"A 	c #BF7B7B",
"B 	c #E04B4B",
"C 	c #CDCDCD",
"D 	c #C1C1C1",
"E 	c #E65454",
"F 	c #FF6767",
"G 	c #FF3636",
"H 	c #EE8383",
"I 	c #FB1818",
"J 	c #EFEFEF",
"K 	c #FB3737",
"L 	c #FF6C6C",
"M 	c #DB5050",
"N 	c #F03636",
"O 	c #D35858",
"P 	c #E3E3E3",
"Q 	c #EDB1B1",
"R 	c #FFE1E1",
"S 	c #EA3F3F",
"T 	c #E24848",
"U 	c #C86060",
"V 	c #FCFCFC",
"W 	c #E4E4E4",
"X 	c #D85353",
"Y 	c #F2A8A8",
"Z 	c #9B9B9B",
"` 	c #FAFAFA",
" .	c #B9B9B9",
"..	c #D3D3D3",
"+.	c #C5C5C5",
"@.	c #D5D5D5",
"#.	c #F4F4F4",
"$.	c #F6F6F6",
"%.	c #E6E6E6",
"&.	c #F5F5F5",
"*.	c #C8C8C8",
"=.	c #E0E0E0",
"-.	c #D0D0D0",
";.	c #E7E7E7",
">.	c #D2D2D2",
",.	c #F2F2F2",
"'.	c #8D8D8D",
").	c #989898",
"!.	c #E1E1E1",
"~.	c #BDBDBD",
"{.	c #828282",
"].	c #F1F1F1",
"^.	c #E2E2E2",
"/.	c #D4D4D4",
"                                                                                                                                ",
"                                                                                                                                ",
"                                                                                                                                ",
"                                                                                                                                ",
"                                    . +     @             # $ % & * = - #                                                       ",
"                                  . ; > + @ , @     # ' ) ! ~ ~ ~ ~ ~ ~ { ] #                                                   ",
"                                  . ^ / + @ ( _ & : ~ ~ ~ ~ ~ ~ ~ ~ ~ ~ ~ ~ ~ < [                                               ",
"                                  } ^ | } 1 2 3 ~ ~ ~ ~ ~ 4 5 ~ : 6 7 8 ~ ~ ~ ~ 8 ] #                                           ",
"                                @ 9 0 a b c 2 d e ~ ~ f g h i j       # ] 7 ~ ~ ~ ~ k                                           ",
"                              @ l m n o ~ e p 2 q r [                       [ s ~ ~ 5 < [                                       ",
"                              @ l l t ~ ~ ~ u v > w k                       $ # ] 7 ~ ~ <                                       ",
"                                x y e 3 ~ z A > B + C ~ C C           $ C s s     [ ~ ~ ~ D                                     ",
"                              + E F G 2 H l m I ; .     C C ~     D J s C $         k ~ ~ 8 [                                   ",
"                              . K F L 2 M N m O .                 D -               # : ~ ~ P                                   ",
"                                Q R d 2 S T I U     [ < < [           $ k k $         ' ~ ~ V [                                 ",
"                                W ~ 3 2 1 U ; X +   C ~ ~ C           = 8 8 =         # : ~ ~ P                                 ",
"                                W ~ ~ Y     . +     [ < < [           i s s i           ' ~ ~ f                                 ",
"                                W ~ ~ W                               j Z Z j           # ~ ~ ~ #                               ",
"                                & ~ ~ :                                                   ` ~ ~ -                               ",
"                                [ ~ ~ ~ [                                                 { ~ ~  .                              ",
"                                  6 ~ ~ P             # # $ $ $ $ $ $                     ` ~ ~ -                               ",
"                                  ' ~ ~ 4 ..          D D s s s s s s ~                 +.~ ~ ~ #                               ",
"                                  # s ~ ~ 4 [                                         @.4 ~ ~ #.                                ",
"                                    [ ` ~ ~ #.[                                   [ P ~ ~ ~ V +.                                ",
"                                      % $.~ ~ { +.                          # ' %.V ~ ~ ~ 4 [                       C ~ C       ",
"                                        [ #.~ ~ 5 & [                 [ W &.8 ~ ~ ~ ~ ~ $.+.                      *.~ ~ ~       ",
"                                          [ V ~ ~ ~ ~ : W =.-.-.;.7 ` ~ ~ ~ ~ ~ ~ ~ : ' #                       D 4 ~ ~ ~       ",
"                                            +.#.8 ~ ~ ~ ~ ~ ~ ~ ~ ~ ~ ~ ~ ~ ~ ` %.' #                         [ 5 ~ ~ ~ >.      ",
"                                                [ < ~ ~ ~ ~ ~ ~ ~ ~ ~ ~ ,.! >.#                             # s ~ ~ ~ *.        ",
"                                                    [ & W { ~ ~ f = - #                                     k ~ ~ ~ &           ",
"                                                          W ~ ~ W                                         D ~ ~ ~ D             ",
"                                                          W ~ ~ W                                       [ $.~ ~ k               ",
"                                                          W ~ ~ W                                     [ { ~ 5 k #               ",
"                                                          W ~ ~ W                                   [ #.~ ~ #.                  ",
"                                                        '.g ~ ~ W                                 # s ~ ~ { +.                  ",
"                                                    # W 5 ~ ~ ~ ~ ]                               ] ~ ~ 8 [                     ",
"                                                # ' : ~ ~ ~ ~ ~ ~ ~ [                           [ 8 ~ ~ ]                       ",
"                                            [ P ` ~ ~ ~ ~ ~ ~ ~ ~ ~ 8 k #                     # s ~ ~ s #                       ",
"                                        D $.~ ~ ~ ~ ~ V ! V ~ ~ V 8 ~ ~ ! %   ).-.!. .        ] ~ ~ 8 [                         ",
"                                    [ : ~ ~ ~ ~ ~ ` P [   ~ ~ ~ ~.D 5 ~ ~ $.[ ~.V ~ ~ k # [ < 5 ~ 4 D                           ",
"                                  [ #.~ ~ ~ ~ 6 ' #       ~ ~ ~   {.D 5 ~ ~ 8 & V ~ ~ ~ : ].~ ~ ~ k                             ",
"                                # $.~ ~ ~ $.%             ~ ~ ~   {.  [ #.~ ~ ~ 8 { ~ ~ ~ ~ ~ 8 ' #                             ",
"                                $ ~ ~ 5 [                 ~ ~ ~         [ s ~ ~ ~ ~ f 4 ~ ~ ~ *                                 ",
"                                # ^.8 ..                  ~ ~ ~           # ] ~ ~ ~ ~ ~ ~ ~ ~ #.                                ",
"                                                          ~ ~ ~ #             +.V ~ ~ ~ ~ ~ ~ ~ f *.                            ",
"                                                        [ ~ ~ ~ k               < ~ ~ 5 D C ~ ~ ~ V [                           ",
"                                                        < ~ ~ ~ 5 [         $ k V ~ 4 D     P ~ ~ ~ :                           ",
"                                                      C ~ ~ ~ ~ ~ <         = 8 5 &.D       [ &.~ ~ #.                          ",
"                                                    D ~ ~ ~ & ~ ~ ~ [       i s s i           [ : #.+.                          ",
"                                                  [ 8 ~ ~ k   6 ~ ~ P       j Z Z j                                             ",
"                                                [ #.~ ~ s #   ' ~ ~ V [                                                         ",
"                                              D $.~ ~ #.[     # : ~ ~ P                                                         ",
"                                            C ~ ~ 5 < [         ' ~ ~ 4 +.                                                      ",
"                                          C ~ ~ ~ k             # $.~ ~ $.#                                                     ",
"                                      # k ~ ~ ~ k #               +.4 ~ ~ ]                                                     ",
"                                    D V ~ ~ ~ C                     ] ~ ~ { #                                                   ",
"                                    #.~ ~ ~ C                       # ` ~ ~ )                                                   ",
"                                    #.~ ~ /.                          P ~ ~ 8                                                   ",
"                                    D $.k #                           [ $.~ ^.                                                  ",
"                                                                        # $ #                                                   ",
"                                                                                                                                ",
"                                                                                                                                ",
"                                                                                                                                ",
"                                                                                                                                "};
