/* XPM */
static char *result[] = {
/* columns rows colors chars-per-pixel */
"64 64 242 2 ",
"   c black",
".  c #010101",
"X  c #020202",
"o  c gray1",
"O  c #040404",
"+  c gray2",
"@  c #060606",
"#  c #070707",
"$  c gray3",
"%  c #090909",
"&  c gray4",
"*  c #0B0B0B",
"=  c #0C0C0C",
"-  c gray5",
";  c #0E0E0E",
":  c gray6",
">  c #101010",
",  c #111111",
"<  c gray7",
"1  c #131313",
"2  c gray8",
"3  c #151515",
"4  c #161616",
"5  c gray9",
"6  c #181818",
"7  c #191919",
"8  c gray10",
"9  c #1B1B1B",
"0  c gray11",
"q  c #1D1D1D",
"w  c #1E1E1E",
"e  c gray12",
"r  c #202020",
"t  c gray13",
"y  c #222222",
"u  c #232323",
"i  c gray14",
"p  c #252525",
"a  c gray15",
"s  c #272727",
"d  c #282828",
"f  c gray16",
"g  c #2A2A2A",
"h  c gray17",
"j  c #2C2C2C",
"k  c #2D2D2D",
"l  c gray18",
"z  c #2F2F2F",
"x  c gray19",
"c  c #313131",
"v  c #323232",
"b  c #343434",
"n  c #353535",
"m  c gray21",
"M  c #373737",
"N  c gray22",
"B  c #393939",
"V  c #3A3A3A",
"C  c gray23",
"Z  c #3C3C3C",
"A  c #3E3E3E",
"S  c #3F3F3F",
"D  c #414141",
"F  c gray26",
"G  c #434343",
"H  c #444444",
"J  c gray27",
"K  c #464646",
"L  c gray28",
"P  c #494949",
"I  c gray29",
"U  c #4B4B4B",
"Y  c #4C4C4C",
"T  c gray30",
"R  c #4E4E4E",
"E  c gray31",
"W  c #505050",
"Q  c #515151",
"!  c gray32",
"~  c #535353",
"^  c gray33",
"/  c #555555",
"(  c #565656",
")  c gray34",
"_  c #585858",
"`  c gray35",
"'  c #5A5A5A",
"]  c #5B5B5B",
"[  c gray36",
"{  c gray37",
"}  c #5F5F5F",
"|  c #606060",
" . c gray38",
".. c #626262",
"X. c gray39",
"o. c #646464",
"O. c #656565",
"+. c gray40",
"@. c #676767",
"#. c #686868",
"$. c DimGray",
"%. c #6A6A6A",
"&. c gray42",
"*. c #6C6C6C",
"=. c #6D6D6D",
"-. c gray43",
";. c #6F6F6F",
":. c gray44",
">. c #717171",
",. c #727272",
"<. c gray45",
"1. c #747474",
"2. c gray46",
"3. c #777777",
"4. c gray47",
"5. c #797979",
"6. c gray48",
"7. c #7B7B7B",
"8. c #7C7C7C",
"9. c gray49",
"0. c #7E7E7E",
"q. c gray50",
"w. c #808080",
"e. c #818181",
"r. c gray51",
"t. c #838383",
"y. c gray52",
"u. c #868686",
"i. c gray53",
"p. c #888888",
"a. c #898989",
"s. c gray54",
"d. c #8B8B8B",
"f. c gray55",
"g. c #8D8D8D",
"h. c #8E8E8E",
"j. c gray56",
"k. c #909090",
"l. c gray57",
"z. c #929292",
"x. c #939393",
"c. c gray58",
"v. c #959595",
"b. c gray59",
"n. c #979797",
"m. c gray60",
"M. c #9A9A9A",
"N. c gray61",
"B. c #9D9D9D",
"V. c gray62",
"C. c #9F9F9F",
"Z. c #A0A0A0",
"A. c gray63",
"S. c #A2A2A2",
"D. c #A4A4A4",
"F. c #A5A5A5",
"G. c gray65",
"H. c #A7A7A7",
"J. c #ACACAC",
"K. c gray68",
"L. c #AEAEAE",
"P. c #AFAFAF",
"I. c gray69",
"U. c #B1B1B1",
"Y. c #B2B2B2",
"T. c gray70",
"R. c #B4B4B4",
"E. c gray71",
"W. c #B6B6B6",
"Q. c #B7B7B7",
"!. c gray72",
"~. c #B9B9B9",
"^. c gray73",
"/. c #BBBBBB",
"(. c #BCBCBC",
"). c gray74",
"_. c gray",
"`. c gray75",
"'. c #C0C0C0",
"]. c #C1C1C1",
"[. c gray76",
"{. c #C3C3C3",
"}. c gray77",
"|. c #C5C5C5",
" X c #C6C6C6",
".X c gray78",
"XX c #C8C8C8",
"oX c gray79",
"OX c #CACACA",
"+X c #CBCBCB",
"@X c gray80",
"#X c #CDCDCD",
"$X c #CECECE",
"%X c gray81",
"&X c #D0D0D0",
"*X c gray82",
"=X c #D2D2D2",
"-X c LightGray",
";X c gray83",
":X c #D5D5D5",
">X c gray84",
",X c #D7D7D7",
"<X c #D8D8D8",
"1X c gray85",
"2X c #DADADA",
"3X c gray86",
"4X c gainsboro",
"5X c #DDDDDD",
"6X c gray87",
"7X c #DFDFDF",
"8X c gray88",
"9X c #E1E1E1",
"0X c #E2E2E2",
"qX c gray89",
"wX c #E4E4E4",
"eX c gray90",
"rX c #E6E6E6",
"tX c #E7E7E7",
"yX c gray91",
"uX c #E9E9E9",
"iX c #EAEAEA",
"pX c gray92",
"aX c #ECECEC",
"sX c gray93",
"dX c #EEEEEE",
"fX c #EFEFEF",
"gX c gray94",
"hX c #F1F1F1",
"jX c gray95",
"kX c #F3F3F3",
"lX c #F4F4F4",
"zX c gray96",
"xX c #F6F6F6",
"cX c gray97",
"vX c #F8F8F8",
"bX c #F9F9F9",
"nX c gray98",
"mX c #FBFBFB",
"MX c gray99",
"NX c #FDFDFD",
"BX c #FEFEFE",
"VX c white",
/* pixels */
"4       . X o o + @ @ @ + o .       . . . . . . . . . . . . X X o o o o o o o o o o o o o o o X . .   . . X o o o o o X X o & V ",
"o         . X X . . . . . . . . . X O @ @ @ @ @ @ @ @ @ @ + o o o o o o o o o o o o o o o o o X . .   . . X o o o o X X . . X w ",
".       o 1 w w 6 3 3 3 3 4 6 6 0 p l b M M M M M M M m b x f a i i i i i i i i i i i i i i u t 9 3 , 3 9 t u i i i t 7 * X   > ",
".       > G o.@.| [ ] [ } ..O.%.>.9.p.k.x.x.x.x.x.x.x.l.g.u.0.3.1.,.,.,.,.,.,.,.,.,.,.,.,.,.,.-.@. .[  .@.-.,.,.,.,.#.R u +   = ",
".     . u 8.(.%X}.8XxXnXmXxXeX<X&X;X1X5X6X6X6X6X6X6X6X5X2X>X*X#XOXOXOXOXOXOXOXOXOXOXOXOXOXOXoXXX}.'.).'.}.XXoXOXOXXXW.w.n #   - ",
".     . l S.jXNXVXVXVXVXVXVXVXVXBXNXNXNXBXNXNXNXMXmXmXmXnXbXcXzXzXzXzXzXzXzXzXzXzXzXzXzXzXzXzXzXlXjXjXjXlXzXzXzXzXjX2Xv.B # . > ",
".     . v !.nXVXVXVXVXVXVXVXVXVXVXVXVXVXVXVXVXVXVXVXVXVXVXVXVXVXVXVXVXVXVXVXVXVXVXVXVXVXVXVXVXVXVXVXVXVXVXVXVXVXVXmX8Xn.B # . < ",
".     X B T.NXVXVXVXVXVXVXVXVXVXVXVXVXVXVXVXVXVXVXVXVXVXVXVXVXVXVXVXVXVXVXVXVXVXVXVXVXVXVXVXVXVXVXVXVXVXVXVXVXVXVXmX6Xv.N @ . 1 ",
".     # L &XBXVXVXVXVXVXVXVXVXVXVXVXVXVXVXVXVXVXVXVXVXVXVXVXVXVXVXVXVXVXVXVXVXVXVXVXVXVXVXVXVXVXVXVXVXVXVXVXVXVXVXmX6Xv.N @ . 1 ",
"    X - ..fXVXVXVXVXVXVXVXVXVXVXVXVXVXVXVXVXVXVXVXVXVXVXVXVXVXVXVXVXVXVXVXVXVXVXVXVXVXVXVXVXVXVXVXVXVXVXVXVXVXVXVXmX9Xm.V # . < ",
"    + 5 t.NXVXVXVXVXVXVXVXVXVXVXVXVXVXVXVXVXVXVXVXVXVXVXVXVXVXVXVXVXVXVXVXVXVXVXVXVXVXVXVXVXVXVXVXVXVXVXVXVXVXVXVXMXwXB.S % . : ",
"  . $ y Z.VXVXVXVXVXVXVXVXVXVXVXVXVXVXVXVXNXVXVXVXVXVXVXVXVXVXVXVXVXVXVXVXVXVXVXVXVXVXVXVXVXVXVXVXVXVXVXVXVXVXVXVXNXtXF.K = . & ",
"  X = k T.VXVXVXVXVXVXVXVXVXVXVXVXVXVXVXVXVXVXVXVXVXVXVXVXVXVXVXVXVXVXVXVXVXVXVXVXVXVXVXVXVXVXVXVXVXVXVXVXVXVXVXVXBXiXK.U -   % ",
"  o : m ).VXVXVXVXVXVXVXVXVXVXVXVXVXVXVXVXVXVXVXVXVXVXVXVXVXVXVXVXVXVXVXVXVXVXVXVXVXVXVXVXVXVXVXVXVXVXVXVXVXVXVXVXVXdXT.! >   # ",
"  o > A  XVXVXVXVXVXVXVXVXVXVXVXVXVXVXVXVXVXVXVXNXxXsXpXiXiXiXpXfXvXmXNXVXVXVXVXVXVXVXVXVXVXVXVXVXVXVXVXVXVXVXVXVXVXgX/.' 5 . + ",
"  X : F OXBXVXVXVXVXVXVXVXVXVXVXVXVXVXmXjXtX&X).R.N.0.:.$.@.@.#.2.c.W.<XsXnXVXVXVXVXVXVXVXVXVXVXVXVXVXVXVXVXVXVXVXVXkX_...8 . O ",
"  . = H +XmXVXVXVXVXVXVXVXVXVXVXVXVXmX>Xs.Q t % % # o X . . . . . X , U k.-XnXVXVXVXVXVXVXVXVXVXVXVXVXVXVXVXVXVXVXVXkX|.$.e X o ",
"    $ K XXcXVXVXVXVXVXVXVXVXVXVXVXVXaX5.$                             o t s.fXVXVXVXVXVXVXVXVXVXVXVXVXVXVXVXVXVXVXVXzX X-.y o o ",
"    @ P OXnXVXVXVXVXVXVXVXVXVXVXVXVX%Xg                             . $ i s.fXVXVXVXVXVXVXVXVXVXVXVXVXVXVXNXmXNXVXVXzXoX>.u o o ",
"    + T oXMXBXVXVXVXVXVXVXVXVXVXVXvXN.+     . %       + r q 2 f C F ] 4.n.-XnXVXVXVXVXVXVXVXVXVXVXVXVXVXnXtX2XsXNXVXzXOX,.u o o ",
"    @ Q +XnXVXBXVXVXVXVXVXVXVXVXVXuXo.      X o X . 8 r.OX#X|.-X5X6XrXpXfXnXVXVXVXVXVXVXVXVXVXVXVXVXVXNXtXb.#.U.zXVXzXOX,.i o o ",
"    # ( +XxXVXVXVXVXVXVXVXVXVXVXVX,Xb         . y o.K.fXVXVXVXVXVXVXVXVXVXVXVXVXVXVXVXVXVXVXVXVXVXVXVXmX=XU 3 O.wXVXzXOX,.i o o ",
"    # _ #XxXVXVXVXVXVXVXVXVXVXVXnXS.#       % v l.8XvXVXVXVXVXVXVXVXVXVXVXVXVXVXVXVXVXVXVXVXVXVXVXVXVXNX*Xb   c $XNXzXOX,.i o o ",
"    # ` #XcXBXVXVXVXVXVXVXVXVXVXrX!       e z.*XkXVXVXVXVXVXVXVXVXVXVXVXVXVXVXVXVXVXVXVXVXVXVXVXVXVXVXVX3XF X u /.bXzXoX,.u o o ",
"    # ` +XcXMXVXVXVXVXVXVXVXVXVX$Xt       { rXVXVXVXVXVXVXVXVXVXVXVXVXVXVXVXVXVXVXVXVXVXVXVXVXVXVXVXVXVX6XP o r T.cXzXXX-.t X X ",
"    # _ oXvXnXVXVXVXVXVXVXVXVXNXL.#     @ D.nXVXVXVXVXVXVXVXVXVXVXVXVXVXVXVXVXVXVXVXVXVXVXVXVXVXbXkXbXVX6XI o e U.cXlX}.@.9 . . ",
"    @ ( .XvXMXBXVXVXVXVXVXVXVXyX[       n 4XVXVXVXVXVXVXVXVXVXVXVXVXVXVXVXVXVXVXVXVXVXVXVXVXVXgX!.c.|.cX6XI o e U.cXjX`.} 3 . . ",
"    @ ^ }.cXBXVXVXVXVXVXVXVXnXP.4       =.fXVXVXVXVXVXVXVXVXVXVXVXVXVXVXVXVXVXVXVXVXVXVXVXVXbX!.f + F =X4XI o e U.cXjX~._ >     ",
"    @ / [.cXVXVXVXVXVXVXVXVXiX+.      o 2.I.E./.]./.L.I.=XzXVXVXVXVXVXVXVXVXVXVXVXVXVXVXVXVXkXc.+   < T.2XI o e U.cXgX~.) ,   . ",
"    # _ }.xXVXVXVXVXVXVXVXVX,Xj         . X X @ & + . X y A.zXVXVXVXVXVXVXVXVXVXVXVXVXVXVXVXbX|.F < E <X4XI o e U.cXgXQ./ , . o ",
"    & { XXcXVXVXVXVXVXVXVXVX@X4                           W tXVXVXVXVXVXVXVXVXVXVXVXVXVXVXVXVXcX=XT.<XnX6XI o e U.cXfX!./ < . + ",
"    : #.$XbXVXVXVXVXVXVXVXNX.Xe       . X X X .         < M.zXVXVXbXfXzXNXVXVXVXVXVXVXVXVXVXVXVXNXmXNXVX6XI o e I.hXyXY.~ < . @ ",
"    2 ,.-XnXVXVXVXVXVXVXVXxXZ.-     j x.I.Y.H.h.,...[ -.U.gXVXVXbX$Xv.H.wXNXVXVXVXVXvXiXsXnXVXVXmXzXbXBX6XI o 0 z.!.E.B.Y > . $ ",
"    5 5.,XmXVXVXVXVXVXVXVXuX+..   @ p.hXVXVXNXxXsXpXpXfXnXVXVXVXfXv.l g a.yXVXVXNX8Xv.X.e.:XnXmX>XJ.oXlX3XH . & z d b O.D *   * ",
"    8 9.2XmXVXVXVXVXVXVXVX<XC     d |.NXVXVXVXVXVXVXVXVXVXVXVXVXzXH.g . r v.hXNX:XQ o . 8 G.lXuX>.e ' >XoXs     X o - F M $ . > ",
"    9 q.2XmXVXVXVXVXVXVXNX].6     D 5XVXVXVXVXVXVXVXVXVXVXVXVXVXNXwXu.0 . n P.,X@.X     2 I.nX-Xh   r ].U.%     < C ( $.n @ . 2 ",
"    9 q.2XmXVXVXVXVXVXVXxXV.&   . { yXVXVXVXVXVXVXVXVXVXVXVXVXVXVXNX6X>.6 e V K >     X o.yXVX-Xa   u @XU.+   . o.{.`.t.x + . 5 ",
"    9 q.2XmXVXVXVXVXVXVXsX0.O   X ;.iXVXVXVXVXVXVXVXVXVXVXVXVXVXVXVXnX%X3.k .     . , -.9XVXVX=Xs   f :X^.@   . i.aX*X0.g o X w ",
"    0 w.2XmXVXVXVXVXVXVXpX,.o   o >.iXVXVXVXVXVXVXVXVXVXVXVXVXVXVXVXVXnX-XT .     @ 6.tXVXVXnXT.1   t =X`.=   . e.tX#X3.a o X y ",
"    0 e.2XmXVXVXVXVXVXVXiX>.o   o >.iXVXVXVXVXVXVXVXNXbXcXcXcXcXcXbXNXdXa.,       : s.aXVXVXjXf.X   ,  X].;   . 7.rXOX1.i o o u ",
"    q r.3XmXVXVXVXVXVXVXiX;.o   o >.iXVXVXnXaXqXqX2X.XP.B.j.g.M.G.`.;Xy.>     + & ; v c.aXVXxXl..   @ ^.].:   . 6.rXOX,.i o o i ",
"    w r.3XmXVXVXVXVXVXVXrX| .   X  .oX>X&XP.4.( W M 9 - o . . o - f R %     * ;.7.j X i l.aXNXI.+   @ T.`.:   . 6.rXoX>.u o o i ",
"    e w.1XnXVXVXVXVXVXVXqX)       6 g i w , O .                   o :     o :.tXiXx.i X a A.zX1XC . a  X_.:   . 6.rX X;.y o o p ",
"    q 7.>XbXVXVXVXVXVXVXhXr.X                                   o g j . . J <XVXVXaXl.a O +.tXcXT.O.M.iX`.:   . 6.wX X*.r X o s ",
"    8 2.*XcXVXVXVXVXVXVXNX%XZ X             X @ ; y k K m u a U 0.W.F.( | {.nXVXVXVXaXA.+.Y.zXVXcXiXkXNX].:   . 3.wX}.%.q . O f ",
"    7 >.#XzXVXVXVXVXVXVXVXvX|.6.R a 9 0 u S o.w.A. X<X0X5X-X;XqXfXnXxXwXiXnXVXVXVXVXVXzXtXzXVXVXVXVXVXVX X3     ..7X X*.r X o s ",
"    7 ;.OXzXVXVXVXVXVXVXVXVXnXsX2X`.R./.@X5XyXsXxXNXVXVXVXVXVXVXVXVXVXVXVXVXVXVXVXVXVXVXVXVXVXVXVXVXVXVX%Xu     B &X X;.y o o p ",
"    8 -.oXzXVXVXVXVXVXVXVXVXVXVXNXbXcXbXNXVXVXVXVXVXVXVXVXVXBXVXVXVXVXVXVXVXVXVXVXVXVXVXVXVXVXVXVXVXVXVX&Xg     y {.oX>.u o o i ",
"    8 =.oXzXVXVXVXVXVXVXVXVXVXVXVXVXVXVXVXVXVXVXVXVXVXVXVXVXVXVXVXVXVXVXVXVXVXVXVXVXVXVXVXVXVXVXVXVXVXVX9XR     s  XOX,.u o o i ",
"    8 =.oXzXVXVXVXVXVXVXVXVXVXVXVXVXVXVXVXVXVXVXVXVXVXVXVXVXVXVXVXVXVXVXVXVXVXVXVXVXVXVXVXVXVXVXVXVXVXVXlXN.5 O ~ <XOX,.i o o i ",
"    8 -.oXzXVXVXVXVXVXVXVXVXVXVXVXVXVXVXVXVXVXVXVXVXVXVXVXVXVXVXVXVXVXVXVXVXVXVXVXVXVXVXVXVXVXVXVXVXVXVXNXwXc.%.!.sXOX,.i o o i ",
"    8 ;.OXzXVXVXVXVXVXVXVXVXVXVXVXVXVXVXVXVXVXVXVXVXVXVXVXVXVXVXVXVXVXVXVXVXVXVXVXVXVXVXVXVXVXVXVXVXVXVXVXNXkXiXcXzXOX,.i o o i ",
"  . 0 <.$XzXVXVXVXVXVXVXVXVXVXVXVXVXVXVXVXVXVXVXVXVXVXVXVXVXVXVXVXVXVXVXVXVXVXVXVXVXVXVXVXVXVXVXVXVXVXVXVXVXVXVXVXzXOX,.i o o i ",
"  . r 8.-XcXVXVXVXVXVXVXVXVXVXVXVXVXVXVXVXVXVXVXVXVXVXVXVXVXVXVXVXVXVXVXVXVXVXVXVXVXVXVXVXVXVXVXVXVXVXBXVXVXVXVXVXzXOX,.i o o i ",
"  . s p.3XnXVXVXVXVXVXVXVXVXVXVXVXVXVXVXVXVXVXVXVXVXVXVXVXVXVXVXVXVXVXVXVXVXVXVXNXNXVXVXVXVXVXVXVXVXNXVXVXVXVXVXVXzXOX,.u o o i ",
"  . z b.0XNXVXVXVXVXVXVXVXVXVXVXVXVXVXVXVXVXVXVXVXVXVXVXVXVXVXVXVXVXVXVXVXVXVXVXVXVXVXVXVXVXVXVXVXVXVXVXVXVXVXVXVXzXoX:.u o o i ",
"  X b C.uXBXVXVXVXVXVXVXVXVXVXVXVXVXVXVXVXVXVXVXVXVXVXVXVXVXVXVXVXVXVXVXVXVXVXVXVXVXVXVXVXVXVXVXVXVXVXVXVXVXVXVXVXlX X=.y X o a ",
"  X M S.wXzXzXzXzXzXzXzXzXzXzXzXzXzXzXzXzXzXzXzXzXzXzXzXzXzXzXxXvXnXmXmXmXmXmXmXMXNXBXBXBXBXNXBXVXBXNXMXmXmXmXmXnXfX`.O.q X o f ",
"  X n l.].@XOXOXoXoXoXoXoXoXoXoXoXoXoXoXoXoXoXoXoXoXoXoXoXoX+X%X-X1X4X7X6X6X6X7X0XqXqX0X0X0X0X0X0X7X5X2X,X:X-X-X-XOXC.W 1 . O h ",
"  X s { 1.1.,.>.:.:.;.-.=.=.=.=.-.-.-.-.-.=.=.=.=.=.=.=.=.-.:.1.8.y.d.g.h.f.s.d.s.g.d.s.i.u.u.u.y.r.0.6.2.>.=.*.;.&.( d @   X y ",
"  . * w y r w w q q 0 9 8 8 8 8 8 8 9 8 8 8 8 8 8 8 8 8 8 8 8 0 r a f f d s p u y y e 0 9 8 8 8 7 7 5 3 1 > ; - : > = o       ; ",
"      . . . . . . . . .           . . .                       . . . . . . . .                                                 X ",
"                                                                                                                                ",
"                                                                                                                              + "
};
