/* XPM */
static char * player2_xpm[] = {
"64 64 582 2",
"  	c #818181",
". 	c #9D8975",
"+ 	c #7D7975",
"@ 	c #977C5D",
"# 	c #8B847E",
"$ 	c #E3A334",
"% 	c #AA8E6F",
"& 	c #6C4C0A",
"* 	c #785507",
"= 	c #BE9561",
"- 	c #756655",
"; 	c #6C4E14",
"> 	c #998877",
", 	c #EAA620",
"' 	c #C79859",
") 	c #EEA80E",
"! 	c #F0CDA9",
"~ 	c #D1A674",
"{ 	c #BD9462",
"] 	c #8D641B",
"^ 	c #6B4C07",
"/ 	c #6D4E11",
"( 	c #72510C",
"_ 	c #C7985A",
": 	c #F1BD7A",
"< 	c #EDAC43",
"[ 	c #B0906B",
"} 	c #6B4D0F",
"| 	c #6C4F1B",
"1 	c #DCA658",
"2 	c #ECBA7E",
"3 	c #EEA810",
"4 	c #AD8F6D",
"5 	c #C2965E",
"6 	c #EBA71F",
"7 	c #F6E0CC",
"8 	c #F9EADE",
"9 	c #ECA71B",
"0 	c #8C631B",
"a 	c #6C4C07",
"b 	c #6C4D0C",
"c 	c #715118",
"d 	c #CE9B52",
"e 	c #E9A624",
"f 	c #FBF2EB",
"g 	c #E9AB48",
"h 	c #CF9B52",
"i 	c #6D4E16",
"j 	c #6B4C0A",
"k 	c #6D4F1D",
"l 	c #BB9463",
"m 	c #F8ECE0",
"n 	c #EED2B5",
"o 	c #ECA71A",
"p 	c #B2906A",
"q 	c #BF9561",
"r 	c #EEB259",
"s 	c #F7D5B7",
"t 	c #CD9744",
"u 	c #845E18",
"v 	c #6E4E0D",
"w 	c #B9841C",
"x 	c #F2CEA8",
"y 	c #EAC59D",
"z 	c #F4D6B7",
"A 	c #ECA719",
"B 	c #916D38",
"C 	c #A67B3C",
"D 	c #F2DCC7",
"E 	c #F6EBE1",
"F 	c #EBA71E",
"G 	c #EEA411",
"H 	c #F19D0C",
"I 	c #F0B466",
"J 	c #EFAF4E",
"K 	c #D99A1E",
"L 	c #EBA60E",
"M 	c #A47417",
"N 	c #745212",
"O 	c #E29F0D",
"P 	c #E79A0C",
"Q 	c #F0980C",
"R 	c #ED9E0E",
"S 	c #EDA80F",
"T 	c #EDA814",
"U 	c #E4A432",
"V 	c #6E4E13",
"W 	c #6E4F13",
"X 	c #D99F45",
"Y 	c #F5D6B7",
"Z 	c #EDA716",
"` 	c #EBA71D",
" .	c #E9A625",
"..	c #F38C0D",
"+.	c #F74707",
"@.	c #E48668",
"#.	c #D1E5D5",
"$.	c #BAE2C1",
"%.	c #91D947",
"&.	c #58E50E",
"*.	c #B2C10D",
"=.	c #F87106",
"-.	c #FF1C00",
";.	c #F76F06",
">.	c #B1CE9F",
",.	c #ADF4E9",
"'.	c #D0E6C9",
").	c #B5C232",
"!.	c #99BB51",
"~.	c #D0AD3C",
"{.	c #D79A49",
"].	c #F29011",
"^.	c #F6810B",
"/.	c #E1A557",
"(.	c #C1C58D",
"_.	c #E3E4D0",
":.	c #9FB96A",
"<.	c #67C05D",
"[.	c #72A572",
"}.	c #A68C71",
"|.	c #F36B0F",
"1.	c #F0160D",
"2.	c #C5A897",
"3.	c #96EEDF",
"4.	c #93EFD2",
"5.	c #26ED1F",
"6.	c #31EC0E",
"7.	c #78E00E",
"8.	c #FD3E02",
"9.	c #30ECD8",
"0.	c #63EEDC",
"a.	c #60EFBB",
"b.	c #65E50E",
"c.	c #60E410",
"d.	c #C1C517",
"e.	c #F09D12",
"f.	c #FB5403",
"g.	c #FE3004",
"h.	c #CBAC8B",
"i.	c #65E5CC",
"j.	c #C6F2E7",
"k.	c #57E156",
"l.	c #1CEC1B",
"m.	c #47D747",
"n.	c #BD9D5F",
"o.	c #EF971C",
"p.	c #F87006",
"q.	c #D4A17D",
"r.	c #7BDEC3",
"s.	c #75E2BC",
"t.	c #8ADC54",
"u.	c #5DE70E",
"v.	c #BFC70E",
"w.	c #F48609",
"x.	c #FB5203",
"y.	c #F58609",
"z.	c #AECC9F",
"A.	c #8FD981",
"B.	c #62E50E",
"C.	c #65E40E",
"D.	c #C3C50E",
"E.	c #F09D0F",
"F.	c #FA530B",
"G.	c #64E4CC",
"H.	c #66E350",
"I.	c #21EB19",
"J.	c #E7AB37",
"K.	c #DDB35B",
"L.	c #DDB35A",
"M.	c #E9AC37",
"N.	c #EDA70E",
"O.	c #ECA60E",
"P.	c #E1B20E",
"Q.	c #BEC30E",
"R.	c #C1C40E",
"S.	c #DDB00E",
"T.	c #EDA20D",
"U.	c #F18E0D",
"V.	c #F58012",
"W.	c #E3A556",
"X.	c #C1C58C",
"Y.	c #BCC38F",
"Z.	c #B6BF5A",
"`.	c #72C258",
" +	c #998B77",
".+	c #9E8E74",
"++	c #EBC376",
"@+	c #868686",
"#+	c #AF906B",
"$+	c #ECA711",
"%+	c #E6A20D",
"&+	c #E5A20D",
"*+	c #E9A40D",
"=+	c #ECA70E",
"-+	c #EEA80F",
";+	c #EBA613",
">+	c #EAA50E",
",+	c #E9A50D",
"'+	c #ECA60F",
")+	c #D89F46",
"!+	c #C8A353",
"~+	c #DAAC3B",
"{+	c #F6E7D1",
"]+	c #E6B31A",
"^+	c #86827F",
"/+	c #C59450",
"(+	c #EDA812",
"_+	c #EDA710",
":+	c #E6A52D",
"<+	c #DBA041",
"[+	c #9D7129",
"}+	c #E3A00D",
"|+	c #E3A11A",
"1+	c #E5A42F",
"2+	c #E4A431",
"3+	c #EDA70F",
"4+	c #E4A10D",
"5+	c #D9990C",
"6+	c #E5A10F",
"7+	c #B39867",
"8+	c #8F877B",
"9+	c #6A6A6A",
"0+	c #2F1F04",
"a+	c #825A04",
"b+	c #664602",
"c+	c #6E5129",
"d+	c #7C654A",
"e+	c #6C4F24",
"f+	c #B39169",
"g+	c #CF9B51",
"h+	c #B99365",
"i+	c #AD895F",
"j+	c #AD7C26",
"k+	c #AF7B09",
"l+	c #AF7B07",
"m+	c #B78008",
"n+	c #D7970B",
"o+	c #D89815",
"p+	c #B79267",
"q+	c #3B3B3B",
"r+	c #000000",
"s+	c #020202",
"t+	c #747474",
"u+	c #5C5C5C",
"v+	c #272727",
"w+	c #7D7D7D",
"x+	c #3D3D3D",
"y+	c #433013",
"z+	c #483721",
"A+	c #422E0E",
"B+	c #3F2A01",
"C+	c #A77507",
"D+	c #966805",
"E+	c #745003",
"F+	c #4D4D4D",
"G+	c #DBAF49",
"H+	c #BFAD93",
"I+	c #252525",
"J+	c #111111",
"K+	c #505050",
"L+	c #434343",
"M+	c #141414",
"N+	c #0D0D0D",
"O+	c #060200",
"P+	c #1E1E1E",
"Q+	c #E9C178",
"R+	c #F2E5D2",
"S+	c #D7AB40",
"T+	c #202020",
"U+	c #1C1C1C",
"V+	c #373737",
"W+	c #030303",
"X+	c #454545",
"Y+	c #9C8D75",
"Z+	c #4E4E4E",
"`+	c #232323",
" @	c #070707",
".@	c #4B4B4B",
"+@	c #0E0E0E",
"@@	c #363636",
"#@	c #EDCA8B",
"$@	c #ECC98C",
"%@	c #DFAF31",
"&@	c #010101",
"*@	c #4F4F4F",
"=@	c #2D2D2D",
"-@	c #BBB3A6",
";@	c #E4C591",
">@	c #0F0F0F",
",@	c #494949",
"'@	c #353535",
")@	c #212121",
"!@	c #2E2E2E",
"~@	c #484848",
"{@	c #323232",
"]@	c #161616",
"^@	c #222222",
"/@	c #242424",
"(@	c #2C2C2C",
"_@	c #3F3F3F",
":@	c #464646",
"<@	c #131313",
"[@	c #565656",
"}@	c #535353",
"|@	c #636363",
"1@	c #191919",
"2@	c #101010",
"3@	c #2F2F2F",
"4@	c #575757",
"5@	c #0B0B0B",
"6@	c #545454",
"7@	c #555555",
"8@	c #292929",
"9@	c #474747",
"0@	c #1F1F1F",
"a@	c #7F7F7F",
"b@	c #8C7A67",
"c@	c #635F5C",
"d@	c #E2C084",
"e@	c #FAF2E8",
"f@	c #949494",
"g@	c #E0B7B7",
"h@	c #C26565",
"i@	c #C16666",
"j@	c #AB6F6F",
"k@	c #CA9647",
"l@	c #C68E2B",
"m@	c #DE9C0C",
"n@	c #DB9A18",
"o@	c #414141",
"p@	c #343434",
"q@	c #EA2828",
"r@	c #F42B2B",
"s@	c #EBA617",
"t@	c #D79814",
"u@	c #A47835",
"v@	c #ECA713",
"w@	c #CF9543",
"x@	c #AC7171",
"y@	c #B68888",
"z@	c #F1DEDE",
"A@	c #B6B6B6",
"B@	c #858280",
"C@	c #383838",
"D@	c #B68122",
"E@	c #EDA712",
"F@	c #E60B0B",
"G@	c #0E0202",
"H@	c #E2A22B",
"I@	c #EDA611",
"J@	c #EC3B36",
"K@	c #F13333",
"L@	c #FBC5C5",
"M@	c #424242",
"N@	c #7B7771",
"O@	c #D0920B",
"P@	c #E4A012",
"Q@	c #C50D0D",
"R@	c #F32727",
"S@	c #ECA714",
"T@	c #CD9046",
"U@	c #F52C2C",
"V@	c #F02F2F",
"W@	c #CD1E1E",
"X@	c #A09B9B",
"Y@	c #E4A00D",
"Z@	c #FB1414",
"`@	c #ECA715",
" #	c #DD9E2F",
".#	c #C13A3A",
"+#	c #F0D6AB",
"@#	c #A99D8B",
"##	c #E4D8D8",
"$#	c #0A0A0A",
"%#	c #0D0101",
"&#	c #FD0909",
"*#	c #D2962A",
"=#	c #E7A20F",
"-#	c #070606",
";#	c #DBB56A",
">#	c #A29072",
",#	c #C6A156",
"'#	c #EFD5AC",
")#	c #C4A97C",
"!#	c #ACACAC",
"~#	c #F6EAEA",
"{#	c #BDB6B6",
"]#	c #050505",
"^#	c #654503",
"/#	c #C78C0A",
"(#	c #A11A1A",
"_#	c #B37D09",
":#	c #E7A30D",
"<#	c #ABABAB",
"[#	c #B6A9A9",
"}#	c #FCF3F3",
"|#	c #FEF1F1",
"1#	c #A57070",
"2#	c #080808",
"3#	c #E9A40E",
"4#	c #DF9E0C",
"5#	c #F3ECEC",
"6#	c #D5C0C0",
"7#	c #FFFCFC",
"8#	c #FFF9F9",
"9#	c #FEB1B1",
"0#	c #F01F1F",
"a#	c #6A4903",
"b#	c #EBA50E",
"c#	c #DD9B0D",
"d#	c #43E4CF",
"e#	c #FDE3E3",
"f#	c #FEE4E4",
"g#	c #E7A62A",
"h#	c #B66666",
"i#	c #FAEAEA",
"j#	c #F7F0F0",
"k#	c #E2C5C5",
"l#	c #FFFEFE",
"m#	c #FEE0E0",
"n#	c #FE0606",
"o#	c #FF0000",
"p#	c #F71717",
"q#	c #674703",
"r#	c #DD9B0C",
"s#	c #22ECD8",
"t#	c #74F0E1",
"u#	c #EBFCF9",
"v#	c #D2B66B",
"w#	c #8C6105",
"x#	c #F61515",
"y#	c #FB8B8B",
"z#	c #FFF2F2",
"A#	c #F9F3F3",
"B#	c #ECCACA",
"C#	c #FFFAFA",
"D#	c #FDCBCB",
"E#	c #FF5858",
"F#	c #FC1414",
"G#	c #FA1E1E",
"H#	c #0DE4D2",
"I#	c #14ECD9",
"J#	c #78734B",
"K#	c #4A3101",
"L#	c #F9B2B2",
"M#	c #FDFBFB",
"N#	c #C5C5C5",
"O#	c #FAE9E9",
"P#	c #FFF1F1",
"Q#	c #F89D9D",
"R#	c #FF0303",
"S#	c #FB1919",
"T#	c #000201",
"U#	c #000C0B",
"V#	c #D61919",
"W#	c #F91E1E",
"X#	c #FD0E0E",
"Y#	c #FE0808",
"Z#	c #F38F8F",
"`#	c #C5A4A4",
" $	c #FEF2F2",
".$	c #FDEAEA",
"+$	c #FA8B8B",
"@$	c #FC1515",
"#$	c #000403",
"$$	c #FE0B0B",
"%$	c #FEEDED",
"&$	c #E0C0C0",
"*$	c #FDDADA",
"=$	c #FE5858",
"-$	c #090909",
";$	c #FA1D1D",
">$	c #FD1010",
",$	c #F29090",
"'$	c #F3E6E6",
")$	c #FFB4B4",
"!$	c #0C0C0C",
"~$	c #F32424",
"{$	c #EE2A2A",
"]$	c #FC1717",
"^$	c #F62929",
"/$	c #EE9292",
"($	c #CCC3C3",
"_$	c #FEFBFB",
":$	c #FEB0B0",
"<$	c #EE2323",
"[$	c #F33030",
"}$	c #EC9494",
"|$	c #FFEEEE",
"1$	c #D2CBCB",
"2$	c #FEDBDB",
"3$	c #040404",
"4$	c #EA9595",
"5$	c #F7EDED",
"6$	c #E9BC5C",
"7$	c #CCC5BD",
"8$	c #EBE2E2",
"9$	c #FABDBD",
"0$	c #FA1B1B",
"a$	c #F3AFAF",
"b$	c #FFF8F8",
"c$	c #F2E6E6",
"d$	c #CAB9A0",
"e$	c #EFCF9C",
"f$	c #E8D2B0",
"g$	c #FFFBFB",
"h$	c #F6B3B3",
"i$	c #F52B2B",
"j$	c #E51E1E",
"k$	c #830D0D",
"l$	c #EE2525",
"m$	c #F68E8E",
"n$	c #FEF4F4",
"o$	c #F6F2F2",
"p$	c #787878",
"q$	c #707070",
"r$	c #DADADA",
"s$	c #FEFEFE",
"t$	c #FDDCDC",
"u$	c #1B0101",
"v$	c #171717",
"w$	c #FEFAFA",
"x$	c #FCFBFB",
"y$	c #F1F1F1",
"z$	c #EA2525",
"A$	c #F72020",
"B$	c #4F0404",
"C$	c #EF651E",
"D$	c #F7F4F4",
"E$	c #DC2B2B",
"F$	c #F9650A",
"G$	c #F39090",
"H$	c #872C2C",
"I$	c #FD1212",
"J$	c #E22525",
"K$	c #EC9B16",
"L$	c #B96F6F",
"M$	c #FC8A8A",
"N$	c #FC8B8B",
"O$	c #F75F5F",
"P$	c #F78E8E",
"Q$	c #F91F1F",
"R$	c #5D2525",
"S$	c #DE4D4D",
"T$	c #F9B3B3",
"U$	c #EAEAEA",
"V$	c #151515",
"W$	c #515151",
"X$	c #FDEEEE",
"Y$	c #FDEDED",
"Z$	c #FEEAEA",
"`$	c #FFE3E3",
" %	c #FFEBEB",
".%	c #FFE8E8",
"+%	c #FCC4C4",
"@%	c #FDB0B0",
"#%	c #AC5252",
"$%	c #FDF7F7",
"%%	c #F4F2F2",
"&%	c #E2E2E2",
"*%	c #F9F9F9",
"=%	c #3A3A3A",
"-%	c #FBFAFA",
";%	c #F7F3F3",
">%	c #F5F0F0",
",%	c #F8F3F3",
"'%	c #FCF8F8",
")%	c #FBF2F2",
"!%	c #FEF8F8",
"~%	c #FEF5F5",
"{%	c #060606",
"]%	c #FEDDDD",
"^%	c #FEFCFC",
"/%	c #EBE9E9",
"(%	c #D2D2D2",
"_%	c #EDEDED",
":%	c #C1C1C1",
"<%	c #EAE0E0",
"[%	c #FAF5F5",
"}%	c #E8D2D2",
"|%	c #121212",
"1%	c #797979",
"                                            .           + @                                                                     ",
"                                          # $ % #       & *         = =     - ;       > % ,                                     ",
"                                        # ' ) ! ~ {   ] ^ / (     _ : < [   ^ } |   > 1 2 3 4                                   ",
"                                        # 5 6 7 8 9 0 a a b a c d e f g h i ^ j ^ k l m n o p                                   ",
"                                        # q , r s , t u ^ ^ v w 9 x y z A B j ^ ^ C D E F e q #                                 ",
"                                          p G H I J K L M N O P Q R S T F U V W X 9 Y Z `  .5 #                                 ",
"                                          4 ..+.@.#.$.%.&.*.O =.-.;.>.,.'.).!.~.{.].^./.(._.:.<.[.                              ",
"                                          }.|.1.2.3.4.5.6.7.) 8.-.8.9.0.a.b.c.d.e.f.g.h.i.j.k.l.m.                              ",
"                  n.                      }.o.p.q.r.s.t.u.v.) w.x.y.z.9.A.B.C.D.E.F.g.h.G.i.H.I.m.                              ",
"                  n.                      }., ) J.K.L.M.) ) N.L O.N.) ) P.Q.R.S.T.U.V.W.X.Y.Z.`.[.                              ",
"               +.+++@+                    #+$+N.%+&+*+) L =+) -+;+N.>+L N.N.N.N.,+>+'+9 A $ )+>                                 ",
"              !+~+{+++]+                ^+/+N.N.=+>+=+N.N.(+(+(+(+Z _+=+N.) N.N.>+) >+O.A :+<+>                                 ",
"                  ]+                    ^+[+*+}+O O O |+1+1+1+1+2+e :+Z 3+N.L =+&+4+5+4+6+e 1+%               7+8+              ",
"                  ]+                    9+0+a+b+b+b+c+> > d+e+e+d+f+g+h+4 i+j+k+l+m+n+L 4+o+p+                7+8+              ",
"                                        q+r+r+r+r+s+t+  u+v+r+r+v+u+>   w+x+y+z+A+B+b+C+D+E+F+             +.+G+H+              ",
"                                        I+r+r+r+r+J+    K+r+r+r+r+K+    L+M+r+r+I+N+r+r+O+r+P+            !+~+Q+R+S+]+          ",
"                              8+7+      T+r+r+r+r+U+    u+v+r+r+v+u+    V+W+r+r+M+X+r+r+r+r+r+                S+Y+Y+            ",
"                              8+7+      T+r+r+r+r+U+      K+v+v+K+      Z+`+W+M+x+   @r+r+r+r+.@              S+Y+              ",
"                              Y+S+      I+r+r+r+r++@                      Z+V+L+w+  P+r+r+r+r+@@                                ",
"                            S+#@$@%@S+  q+r+r+r+r+&@F+      *@*@                    v+r+r+r+r+=@                                ",
"                              -@;@Y+Y+  9+N+r+r+r+r+M+    *@>@J+*@    t+,@'@        )@r+r+r+r+!@                                ",
"                              Y+S+        ~@r+r+r+r+r+{@  9+]@>@U+^@/@]@>@>@(@    ~@W+r+r+r+r+q+                                ",
"                                            ^@r+r+r+r+s+_@  :@J+>@>@>@>@>@<@[@t+(@s+r+r+r+r+s+}@                                ",
"                                            |@N+r+r+r+r+ @~@  .@1@2@<@3@x+4@~@J+r+r+r+r+r+r+!@                                  ",
"                                              ~@ @r+r+r+r+5@6@    Z+7@  |@^@r+r+r+r+r+r+&@8@                                    ",
"                                                _@s+r+r+r+r+5@9@      ~@N+r+r+r+r+r+r+W+{@                                      ",
"                                                  {@&@r+r+r+r+r+/@X+^@s+r+r+r+r+r+r+J+~@                                        ",
"                                                    8@r+r+r+r+r+r+r+r+r+r+r+r+r+W+(@t+            n.                            ",
"                                                      0@r+r+r+r+r+r+r+r+r+r+r+M+F+                n.                            ",
"                                                      a@v+r+r+r+r+r+r+r+r+W+{@              Y+Y+Y+]+Y+Y+                        ",
"                                                    a@b@c@=@&@r+r+r+r+r+]@~@                S+S+d@e@S+S+                        ",
"                                            f@g@h@i@j@k@l@2@r+r+r+m@n@o@          f@            Y+S+                            ",
"                                          f@p@r+v+q@r@s@t@r+r+r+r+u@v@w@x@x@x@x@y@z@A@          Y+S+                            ",
"                     +B@                  C@r+r+r+&@D@E@F@r+r+r+&@G@H@I@J@K@K@K@L@M@r+.@                          n.            ",
"                    !+N@t+                r+r+r+r+r+O@P@Q@r+r+r+r+r+R@S@T@U@V@W@&@r+r+r+                          n.            ",
"                    ]+                    X@r+r+r+r+O@Y@W+r+r+r+r+r+Z@`@ #.#5@r+r+r+r+r+                      8+8++#@#Y+        ",
"                    ]+                    ##$#r+r+r+O@Y@r+r+r+r+r+%#&#*#=#r+r+r+r+r+r+-#                      7+7++#;#S+        ",
"              >#>#,#'#)#n.n.            !#~#{#]#r+r+^#L /#r+r+r+r+r+(#_#:#r+r+r+r+r+W+<#                        Y+S+            ",
"              >#>#,#'#)#n.n.            [#}#|#1#2#r+r+3#O r+r+r+r+r+r+3#4#r+r+r+r+]#5#!#                        Y+S+            ",
"                  Y+S+                  6#7#8#9#0#T+r+a#b#c#d#e#f#g#>+3#r+r+r+W+h#i#j#!#                                        ",
"                  Y+S+                  k#l#m#n#o#o#p#5@q#r#s#t#u#v#L w#r+r+1@x#y#z#A#!#                                        ",
"                                        B#C#D#E#n#F#G#G#&@r+H#I#I#J#K#r+M+F#o#n#L#C#M#N#                                        ",
"                                      [#O#P#Q#R#S#G#G#G#W+r+r+r+T#U#V#W#G#X#o#Y#Z#z#A#!#                                        ",
"                                      `# $.$+$R#@$G#G#G#r+r+#$r+&@G#G#G#G#X#o#$$Z#%$j#!#                                        ",
"                                      &$8#*$=$o#F#G#G#G#r+r+r+r+-$G#G#G#;$$$o#>$,$%$j#!#                                        ",
"                                    f@'$C#)$n#o#F#G#G#G#r+r+r+r+!$~${$G#G#]$R#^$/$%$j#!#            n.                          ",
"                                    ($_$C#:$o#o#]$G#<$s+r+r+r+r+W+r+>@G#G#S#n#[$}$|$j#!#            ]+                          ",
"                                    1$l#2$Y#o#R#G#<$3$r+r+r+r+r+r+r+r+5@G#S#n#n#4$P#5$!#        8+8+6$7$Y+                      ",
"                                    8$l#9$0$o#Z@G#r+r+r+r+r+&@r+r+r+r+r+G#S#n#[$a$b$c$f@        7+d$e$f$S+                      ",
"                                  N#M#g$h$i$j$5@r+r+r+r+r+k$G# @r+r+r+r+l$S#n#U@m$n$o$!#        p$q$#@                          ",
"                                  r$s$t$6@P+r+r+r+r+r+r+3$W#G#W#u$r+r+r+v$S#n#U@L#w$x$N#        a@p$]+                          ",
"                                !#y$~@<@r+r+r+r+r+r+r+2#z$G#G#A$B$r+r+r+r+C$n#U@m$ $D$!#                                        ",
"                                N#K+2#r+r+r+r+r+r+r+M+E$F#@$S#F#1@r+r+r+r+1@F$[$G$%$j#!#                                        ",
"                                !#v+r+r+r+r+r+r+3$H$n#o#I$R#R#o#J$r+r+r+r+r+K$K@m$ $D$!#                                        ",
"                                r$v+r+r+r+r+r+ @L$M$N$O$m$P$Q$n#n#v$r+r+r+r+R$S$T$w$x$N#                                        ",
"                              !#U$K+V$r+r+r+>@W$X$Y$Z$`$ %.%+%N$@%X+r+r+r+r+&@#%N$$%%%!#                                        ",
"                              f@&%*%}@x+=%.@-%;%>%>%,%'%,%)%!%~%w$ ${%r+r+r+r+]@]%^%/%f@                                        ",
"                                f@(%_%_%r$:%:%!#!#!#!#:%!#A@<%o$x$D$/@r+r+r+r+r+C#[%A@                                          ",
"                                    !#!#                    f@!#N#!#9@r+r+r+r+s+}%A@                                            ",
"                                                                      |%r+r+r+v+f@                                              ",
"                                                                      7@v+N+p@1%                                                ",
"                                                                                                                                ",
"                                                                                                                                ",
"                                                                                                                                "};
