/* XPM */
static char * player_xpm[] = {
"64 64 111 2",
"  	c #818181",
". 	c #424242",
"+ 	c #6F6F6F",
"@ 	c #4B4B4B",
"# 	c #3E3E3E",
"$ 	c #070707",
"% 	c #4E4E4E",
"& 	c #565656",
"* 	c #000000",
"= 	c #060606",
"- 	c #242424",
"; 	c #474747",
"> 	c #0D0D0D",
", 	c #161616",
"' 	c #484848",
") 	c #010101",
"! 	c #0F0F0F",
"~ 	c #3D3D3D",
"{ 	c #4A4A4A",
"] 	c #636363",
"^ 	c #505050",
"/ 	c #050505",
"( 	c #393939",
"_ 	c #1B1B1B",
": 	c #4F4F4F",
"< 	c #454545",
"[ 	c #1F1F1F",
"} 	c #020202",
"| 	c #747474",
"1 	c #111111",
"2 	c #2E2E2E",
"3 	c #4D4D4D",
"4 	c #191919",
"5 	c #333333",
"6 	c #464646",
"7 	c #0B0B0B",
"8 	c #6A6A6A",
"9 	c #040404",
"0 	c #2C2C2C",
"a 	c #272727",
"b 	c #3B3B3B",
"c 	c #5C5C5C",
"d 	c #7D7D7D",
"e 	c #131313",
"f 	c #222222",
"g 	c #0E0E0E",
"h 	c #252525",
"i 	c #434343",
"j 	c #141414",
"k 	c #1E1E1E",
"l 	c #202020",
"m 	c #1C1C1C",
"n 	c #373737",
"o 	c #030303",
"p 	c #232323",
"q 	c #363636",
"r 	c #2D2D2D",
"s 	c #494949",
"t 	c #353535",
"u 	c #212121",
"v 	c #323232",
"w 	c #3F3F3F",
"x 	c #535353",
"y 	c #101010",
"z 	c #2F2F2F",
"A 	c #575757",
"B 	c #545454",
"C 	c #555555",
"D 	c #292929",
"E 	c #72706F",
"F 	c #828181",
"G 	c #414141",
"H 	c #343434",
"I 	c #7B7B7B",
"J 	c #818180",
"K 	c #383838",
"L 	c #797979",
"M 	c #828180",
"N 	c #1D1D1D",
"O 	c #656565",
"P 	c #838180",
"Q 	c #7F7F7F",
"R 	c #666666",
"S 	c #0B0500",
"T 	c #707070",
"U 	c #0A0A0A",
"V 	c #040200",
"W 	c #6C6C6C",
"X 	c #080808",
"Y 	c #060200",
"Z 	c #7C7C7C",
"` 	c #010000",
" .	c #606060",
"..	c #808080",
"+.	c #030100",
"@.	c #7E7E7E",
"#.	c #000201",
"$.	c #000C0B",
"%.	c #6E6E6E",
"&.	c #000403",
"*.	c #090909",
"=.	c #0C0C0C",
"-.	c #767676",
";.	c #171717",
">.	c #7A7A7A",
",.	c #4C4C4C",
"'.	c #696969",
").	c #151515",
"!.	c #515151",
"~.	c #3A3A3A",
"{.	c #121212",
"                                                                                                                                ",
"                                                                                                                                ",
"                                                                                                                                ",
"                                                                                                                                ",
"                                                      .     + @                                                                 ",
"                                                    # $ % & * * = - ;                                                           ",
"                                                    > * * * * * * * * , '                                                       ",
"                                                  ' ) * * * * * * * * * * ! ~                                                   ",
"                                                { > * * * * * * * * * * * * * , ]                                               ",
"                                              ^ $ * * * * * * ) * * * * * * * * / (                                             ",
"                                            ' > * * * * ) _ ~ : < [ } * * * * * * * [                                           ",
"                                          | 1 * * * * } 2           3 ! * * * * * * * 4                                         ",
"                                          5 * * * * / 6                 ~ 7 * * * * * * 4                                       ",
"                                        8 9 * * * * 0     ^ a a ^         | 5 9 * * * * * a                                     ",
"                                        b * * * * } |   c a * * a c     d ~ e f g * * * * * 3                                   ",
"                                        h * * * * 1     ^ * * * * ^     i j * * h > * * * * k                                   ",
"                                        l * * * * m     c a * * a c     n o * * j < * * * * *                                   ",
"                                        l * * * * m       ^ a a ^       % p o j ~   $ * * * * @                                 ",
"                                        h * * * * g                       % n i d   k * * * * q                                 ",
"                                        b * * * * ) 3       : :                     a * * * * r                                 ",
"                                        8 > * * * * j     : ! 1 :     | s t         u * * * * 2                                 ",
"                                          ' * * * * * v   8 , ! m f - , ! ! 0     ' o * * * * b                                 ",
"                                            f * * * * } w   6 1 ! ! ! ! ! e & | 0 } * * * * } x                                 ",
"                                            ] > * * * * $ '   @ 4 y e z ~ A ' 1 * * * * * * 2                                   ",
"                                              ' $ * * * * 7 B     % C   ] f * * * * * * ) D                                     ",
"                                                w } * * * * 7 ;       ' > * * * * * * o v                                       ",
"                                                  v ) * * * * * - < f } * * * * * * 1 '                                         ",
"                                                    D * * * * * * * * * * * * * o 0 |                                           ",
"                                                      [ * * * * * * * * * * * j 3                                               ",
"                                                        a * * * * * * * * o v                                                   ",
"                                                        E r ) * * * * * , '                                                     ",
"                                                          y * * * F   G                                                         ",
"                                            H * a I       * * * * J                                                             ",
"                                          K * * * )     L * * * ) / F F M         N * n                                         ",
"                                          * * * * *     O * * * * *   F P   Q 8 ) * * *                                         ",
"                                          R * * * * S   o * * * * *     F T 7 * * * * *                                         ",
"                                            U * * * * V * * * * * 9       * * * * * * 9                                         ",
"                                            W / * * * * * * * * * * &   * * * * * * o                                           ",
"                                              8 X * * * * * * * * * * Y * * * * * / Q                                           ",
"                                                Z l * ` * * * * * * * * * * * o  ...                                            ",
"                                                    Q U +.* * * * * * * * * 4 @.                                                ",
"                                                        ) * * * * * S * j                                                       ",
"                                                        o * * * #.$.%.                                                          ",
"                                                        * * &.* )                                                               ",
"                                                        * * * * *.                                                              ",
"                                                        * * * * =.@.d                                                           ",
"                                                    Z } * * * * o * !                                                           ",
"                                                  Z 9 * * * * * * * * 7                                                         ",
"                                              ..  * * * * * ) * * * * *                                                         ",
"                                            -.7 * * * * * G   $ * * * * Z                                                       ",
"                                        B k * * * * * * 9       X * * * ;.                                                      ",
"                                    ' e * * * * * * * X >.    ..h * * * * @.                                                    ",
"                                  ^ X * * * * * * * j |         4 * * * * 4                                                     ",
"                                  a * * * * * * 9 ,.            -.* * * * * Q                                                   ",
"                                  a * * * * * $ '.                ;.* * * * n                                                   ",
"                                  ^ ).* * * ! !.                  < * * * * ) %.                                                ",
"                                    x ~ ~.@                         = * * * * ,                                                 ",
"                                                                    - * * * * *                                                 ",
"                                                                    ; * * * * }                                                 ",
"                                                                      {.* * * a                                                 ",
"                                                                      C a > H L                                                 ",
"                                                                                                                                ",
"                                                                                                                                ",
"                                                                                                                                "};
