/* XPM */
static char *result[] = {
/* columns rows colors chars-per-pixel */
"64 64 244 2 ",
"   c black",
".  c #010101",
"X  c #020202",
"o  c gray1",
"O  c #040404",
"+  c gray2",
"@  c #060606",
"#  c #070707",
"$  c gray3",
"%  c #090909",
"&  c gray4",
"*  c #0B0B0B",
"=  c #0C0C0C",
"-  c gray5",
";  c #0E0E0E",
":  c gray6",
">  c #101010",
",  c #111111",
"<  c gray7",
"1  c #131313",
"2  c gray8",
"3  c #151515",
"4  c #161616",
"5  c gray9",
"6  c #181818",
"7  c #191919",
"8  c gray10",
"9  c #1B1B1B",
"0  c gray11",
"q  c #1D1D1D",
"w  c #1E1E1E",
"e  c gray12",
"r  c #202020",
"t  c gray13",
"y  c #222222",
"u  c #232323",
"i  c gray14",
"p  c #252525",
"a  c gray15",
"s  c #272727",
"d  c #282828",
"f  c gray16",
"g  c #2A2A2A",
"h  c gray17",
"j  c #2C2C2C",
"k  c #2D2D2D",
"l  c gray18",
"z  c #2F2F2F",
"x  c gray19",
"c  c #313131",
"v  c #323232",
"b  c gray20",
"n  c #343434",
"m  c #353535",
"M  c gray21",
"N  c #373737",
"B  c gray22",
"V  c #393939",
"C  c #3A3A3A",
"Z  c gray23",
"A  c #3C3C3C",
"S  c gray24",
"D  c #3E3E3E",
"F  c #3F3F3F",
"G  c #414141",
"H  c gray26",
"J  c #434343",
"K  c #444444",
"L  c gray27",
"P  c #464646",
"I  c gray28",
"U  c #484848",
"Y  c #494949",
"T  c gray29",
"R  c #4B4B4B",
"E  c #4C4C4C",
"W  c gray30",
"Q  c #4E4E4E",
"!  c gray31",
"~  c #505050",
"^  c #515151",
"/  c gray32",
"(  c #535353",
")  c gray33",
"_  c #555555",
"`  c #565656",
"'  c gray34",
"]  c #585858",
"[  c gray35",
"{  c #5A5A5A",
"}  c #5B5B5B",
"|  c gray36",
" . c #5D5D5D",
".. c gray37",
"X. c #5F5F5F",
"o. c #606060",
"O. c gray38",
"+. c #626262",
"@. c gray39",
"#. c #646464",
"$. c #656565",
"%. c gray40",
"&. c #676767",
"*. c #686868",
"=. c DimGray",
"-. c #6A6A6A",
";. c gray42",
":. c #6C6C6C",
">. c #6D6D6D",
",. c gray43",
"<. c #6F6F6F",
"1. c gray44",
"2. c #717171",
"3. c #727272",
"4. c gray45",
"5. c #747474",
"6. c gray46",
"7. c #777777",
"8. c gray47",
"9. c #797979",
"0. c gray48",
"q. c #7B7B7B",
"w. c #7C7C7C",
"e. c gray49",
"r. c #7E7E7E",
"t. c gray50",
"y. c #808080",
"u. c #818181",
"i. c gray51",
"p. c #848484",
"a. c gray52",
"s. c #868686",
"d. c gray53",
"f. c #888888",
"g. c gray54",
"h. c #8B8B8B",
"j. c gray55",
"k. c #8D8D8D",
"l. c #8E8E8E",
"z. c gray56",
"x. c #909090",
"c. c gray57",
"v. c #939393",
"b. c gray58",
"n. c #959595",
"m. c gray59",
"M. c #979797",
"N. c gray60",
"B. c #9A9A9A",
"V. c #9B9B9B",
"C. c #9D9D9D",
"Z. c gray62",
"A. c #9F9F9F",
"S. c gray63",
"D. c #A2A2A2",
"F. c gray64",
"G. c #A4A4A4",
"H. c #A5A5A5",
"J. c gray65",
"K. c #A9A9A9",
"L. c #AAAAAA",
"P. c gray67",
"I. c #ACACAC",
"U. c gray68",
"Y. c #AEAEAE",
"T. c #AFAFAF",
"R. c gray69",
"E. c gray70",
"W. c #B4B4B4",
"Q. c gray71",
"!. c #B6B6B6",
"~. c #B7B7B7",
"^. c gray72",
"/. c #B9B9B9",
"(. c gray73",
"). c #BBBBBB",
"_. c #BCBCBC",
"`. c gray74",
"'. c gray",
"]. c gray75",
"[. c #C0C0C0",
"{. c #C1C1C1",
"}. c gray76",
"|. c #C3C3C3",
" X c gray77",
".X c #C5C5C5",
"XX c #C6C6C6",
"oX c gray78",
"OX c #C8C8C8",
"+X c gray79",
"@X c #CACACA",
"#X c #CBCBCB",
"$X c gray80",
"%X c #CDCDCD",
"&X c #CECECE",
"*X c gray81",
"=X c #D0D0D0",
"-X c gray82",
";X c #D2D2D2",
":X c LightGray",
">X c gray83",
",X c #D5D5D5",
"<X c gray84",
"1X c #D7D7D7",
"2X c #D8D8D8",
"3X c gray85",
"4X c #DADADA",
"5X c gray86",
"6X c gainsboro",
"7X c #DDDDDD",
"8X c gray87",
"9X c #DFDFDF",
"0X c gray88",
"qX c #E1E1E1",
"wX c #E2E2E2",
"eX c gray89",
"rX c #E4E4E4",
"tX c gray90",
"yX c #E6E6E6",
"uX c #E7E7E7",
"iX c gray91",
"pX c #E9E9E9",
"aX c #EAEAEA",
"sX c gray92",
"dX c #ECECEC",
"fX c gray93",
"gX c #EEEEEE",
"hX c #EFEFEF",
"jX c gray94",
"kX c #F1F1F1",
"lX c gray95",
"zX c #F3F3F3",
"xX c #F4F4F4",
"cX c gray96",
"vX c #F6F6F6",
"bX c gray97",
"nX c #F8F8F8",
"mX c #F9F9F9",
"MX c gray98",
"NX c #FBFBFB",
"BX c gray99",
"VX c #FDFDFD",
"CX c #FEFEFE",
"ZX c white",
/* pixels */
"4       . X o o + @ @ @ + o .       . . . . . . . . . . . . X X o o o o o o o o o o o o o o o X . .   . . X o o o o o X X o & C ",
"o         . X X . . . . . . . . . X O @ @ @ @ @ @ @ @ @ @ + o o o o o o o o o o o o o o o o o X . .   . . X o o o o X X . . X w ",
".       o 1 w w 6 3 3 3 3 4 6 6 0 p l n N N N N N N N M n x f a i i i i i i i i i i i i i i u t 9 3 , 3 9 t u i i i t 7 * X   > ",
".       > J #.&.o.| } | X.+.$.-.2.e.f.x.v.v.v.v.v.v.v.c.k.s.r.7.5.3.3.3.3.3.3.3.3.3.3.3.3.3.3.,.&.O.| O.&.,.3.3.3.3.*.Q u +   = ",
".     . u w.!.|.].4XkXxXxXiX=X#X&X>X3X7X8X8X8X8X8X8X8X7X4X<X-X%X@X@X@X@X@X@X@X@X@X@X@X@X@X@X+XOX X[.`.[. XOX+X@X@XOX!.y.m #   - ",
".     . l B.0XfXCXZXZXZXZXZXZXCXVXVXVXVXCXVXVXVXBXNXNXNXMXmXbXcXcXcXcXcXcXcXcXcXcXcXcXcXcXcXcXcXxXlXlXlXxXcXcXcXcXlX4Xn.V # . > ",
".     . v D.%XbXCXZXZXZXZXZXZXZXZXZXZXZXZXZXZXZXZXZXZXZXZXZXZXZXZXZXZXZXZXZXZXZXZXZXZXZXZXZXZXZXZXZXZXZXZXZXZXZXZXNX0XM.V # . < ",
".     X V V.3X0XxXCXZXZXZXZXZXZXZXZXZXZXZXZXZXZXZXZXZXZXZXZXZXZXZXZXZXZXZXZXZXZXZXZXZXZXZXZXZXZXZXZXZXZXZXZXZXZXZXNX8Xn.B @ . 1 ",
".     # K F.y.y.%XmXZXZXZXZXZXZXZXZXZXZXZXZXZXZXZXZXZXZXZXZXZXZXZXZXZXZXZXZXZXZXZXZXZXZXZXZXZXZXZXZXZXZXZXZXZXZXZXNX8Xn.B @ . 1 ",
"    X - ^ b.c j b.gXZXZXZXZXZXZXZXZXZXZXZXZXZXZXZXZXZXZXZXZXZXZXZXZXZXZXZXZXZXZXZXZXZXZXZXZXZXZXZXZXZXZXZXZXZXZXZXNXqXN.C # . < ",
"    + 5 +.c.8 # ~ ;XVXZXZXZXZXZXZXZXZXZXZXZXZXZXZXZXZXZXZXZXZXZXZXZXZXZXZXZXZXZXZXZXZXZXZXZXZXZXZXZXZXZXZXZXZXZXZXBXrXC.F % . : ",
"  . $ y w.T.7   , D.cXZXZXZXZXZXZXZXcX9X9XcXZXZXZXZXZXZXZXZXZXZXZXZXZXZXZXZXZXZXZXZXZXZXZXZXZXZXZXZXZXZXZXZXZXZXZXVXuXH.P = . & ",
"  X = k v.(.9   + g.;X-XgXZXZXZXZXcXK.G K U.cXZXZXZXZXZXZXZXZXZXZXZXZXZXZXZXZXZXZXZXZXZXZXZXZXZXZXZXZXZXZXZXZXZXZXCXaXU.R -   % ",
"  o : M S.P.%   X o.M r >.qXZXZXZX>XC   . ( 8XZXZXZXZXZXZXZXZXZXZXZXZXZXZXZXZXZXZXZXZXZXZXZXZXZXZXZXZXZXZXZXZXZXZXZXgXE./ >   # ",
"  o > D R.P.O     ,     X <.hXZXnXn.#     I 6XZXZXZXZXZXZXZXZXZXZXZXZXZXZXZXZXZXZXZXZXZXZXZXZXZXZXZXZXZXZXZXZXZXZXZXjX).{ 5 . + ",
"  X : H (.E.@             9 |.NX-XA     $ j.xXZXZXZXZXZXZXZXZXZXZXZXZXZXZXZXZXZXZXZXZXZXZXZXZXZXZXZXZXZXZXZXZXZXZXZXzX'.+.8 . O ",
"  . = K [.}.<             + g.#X} o   . @.wXzXeXtXbXZXZXZXZXZXZXZXZXZXZXZXZXZXZXZXZXZXZXZXZXZXZXZXZXZXZXZXZXZXZXZXZXzX.X=.e X o ",
"    $ P }.5XH               U ! o   . A @XqXv.( O.!.bXZXZXZXZXZXZXZXZXZXZXZXZXZXZXZXZXZXZXZXZXZXZXZXZXZXZXZXZXZXZXZXcXXX,.y o o ",
"    @ Y oXlXG.t .   * +     = X     k E.tXv.r o O ^ eXZXZXZXZXZXZXZXZXZXZXZXZXZXZXZXZXZXZXZXZXZXZXZXZXZXZXZXZXZXZXZXcX+X2.u o o ",
"    + W OXMXjXH.P B i.o.@         $ M.sXK.m $ . . m >XZXZXZXZXZXZXZXZXZXZXZXZXZXZXZXZXZXZXZXZXZXZXZXZXZXZXZXZXZXZXZXcX@X3.u o o ",
"    @ ^ #XMXZXbXqX6XlX&XM       % 5.pX-XE $ 1 ,   e W.MXZXZXZXZXZXZXZXZXZXZXZXZXZXZXZXZXZXZXZXZXZXZXZXZXZXZXZXZXZXZXcX@X3.i o o ",
"    # ` #XvXZXZXZXZXZXcXJ.c ; y y.yXkXl.; . x D X # 7.aXZXZXZXZXZXZXZXZXZXZXZXZXZXZXZXZXZXZXZXZXZXZXZXZXZXZXZXZXZXZXcX@X3.i o o ",
"    # ] %XvXZXZXZXZXZXZXcX<X/.XXaXVX0X_ . . T ` X . P 6XZXZXZXZXZXZXZXZXZXZXZXZXZXZXZXZXZXZXZXZXZXZXZXZXZXZXZXZXZXZXcX@X3.i o o ",
"    # [ %XbXCXZXZXZXZXZXZXZXVXNXVXZX3XF . * y.a.*   s &XZXZXZXZXZXZXZXZXZXZXZXZXZXZXZXZXZXZXZXZXZXZXZXZXZXZXZXZXZXZXcX+X3.u o o ",
"    # [ #XbXBXZXZXZXZXZXZXZXZXZXZXVX@Xg   t 8.O.-   * k.kXZXZXZXZXZXZXZXZXZXZXZXZXZXZXZXZXZXZXZXZXZXZXZXZXZXZXZXZXZXcXOX,.t X X ",
"    # ] +XnXMXZXZXZXZXZXZXZXZXZXZXvXL.q o h d * .     h _.MXZXZXZXZXZXZXZXZXZXZXZXZXZXZXZXZXZXZXZXZXZXZXZXZXZXZXZXZXxX X&.9 . . ",
"    @ ` oXnXBXCXZXZXZXZXZXZXZXZXZXfXg.1 % G h = X     # p.hXZXZXZXZXZXZXZXZXZXZXZXZXZXZXZXZXZXZXZXZXZXZXZXZXZXZXZXZXlX].X.3 . . ",
"    @ )  XbXCXZXZXZXZXZXZXZXZXZXZXsXe.: ; &.z.8.{ u . . ( wXZXZXZXZXZXZXZXZXZXZXZXZXZXZXZXZXZXZXZXZXZXZXZXZXZXZXZXZXlX/.] >     ",
"    @ _ }.bXZXZXZXZXZXZXZXZXZXZXZXsXr., , w.7XpX,X>.X   f ;XZXZXZXZXZXZXZXZXZXZXZXZXZXZXZXZXZXZXZXZXZXZXZXZXZXZXZXZXjX/.' ,   . ",
"    # ]  XvXZXZXZXZXZXZXZXZXZXZXZXhXM.p p M.hXZXvXG., . n 1XZXZXZXZXZXZXZXZXZXZXZXZXZXZXZXZXZXZXZXZXZXZXZXZXZXZXZXZXjX~._ , . o ",
"    & ..OXbXZXZXZXZXZXZXZXZXZXZXZXMX:Xg.g.:XMXZXVX=XZ . T 0XZXZXZXZXZXZXZXZXZXZXZXZXZXZXZXZXZXZXZXZXZXZXZXZXZXZXZXZXhX^._ < . + ",
"    : *.&XmXZXZXZXZXZXZXZXZXZXZXZXZXMXhXhXMXZXZXZXxXK.O.I.cXZXCXBXBXCXZXZXZXZXZXZXZXZXZXZXZXZXZXZXZXZXZXZXZXZXZXZXZXgXE.( < . @ ",
"    2 3.:XMXZXZXZXZXZXZXZXZXZXZXZXZXZXZXZXZXZXZXZXZXcXuXcXZXCXxX0X0XxXCXZXZXZXZXZXZXZXZXZXZXZXZXZXZXZXZXZXZXZXZXZXCXsXU.W > . $ ",
"    5 9.1XNXZXZXZXZXZXZXZXZXZXZXZXZXZXZXZXZXZXZXZXZXZXZXZXZXmX#Xe.i.=XmXZXZXZXZXZXZXZXZXZXZXZXZXZXZXZXZXZXZXZXZXZXVXiXH.L *   * ",
"    8 e.4XNXZXZXZXZXZXZXZXZXZXZXZXZXZXZXZXZXZXZXZXZXZXZXZXZXdXf.a C Y.zXZXZXZXZXZXZXZXZXZXZXZXZXZXZXZXZXZXZXZXZXZXBXwXV.S $ . > ",
"    9 t.4XNXZXZXZXZXZXZXZXZXZXZXZXZXZXZXZXZXZXZXZXZXZXZXZXVX;XY # h Q.bXZXZXZXZXZXZXZXZXZXZXZXZXZXZXZXZXZXZXZXZXZXNX6Xc.N @ . 2 ",
"    9 t.4XNXZXZXZXZXZXZXZXZXZXZXZXZXZXZXZXZXZXZXZXZXZXZXZXvXP.t + P ;XVXZXZXZXZXZXZXZXZXZXZXZXZXZXZXZXZXZXZXZXZXZXmX1Xd.x + . 5 ",
"    9 t.4XNXZXZXZXZXZXZXZXZXZXZXZXZXZXZXZXZXZXZXZXZXZXZXZXfXg.1 & &.qXCXZXZXZXZXZXZXZXZXZXZXZXZXZXZXZXZXZXZXZXZXZXbX-Xr.g o X w ",
"    0 y.4XNXZXZXZXZXZXZXZXZXZXZXZXZXZXZXZXZXZXZXZXZXZXZXZXsXe.: & ^ ~.lXCXZXZXZXZXZXZXZXZXZXZXZXZXZXZXZXZXZXZXZXZXcX%X7.a o X y ",
"    0 u.4XNXZXZXZXZXZXZXZXZXZXZXZXZXZXZXZXZXZXZXZXCXCXZXZXaXw.= o - W &XMXZXZXZXZXZXZXZXZXZXZXZXZXZXZXZXZXZXZXZXZXcX@X5.i o o u ",
"    q i.5XNXZXZXZXZXZXZXZXZXZXZXZXZXZXZXZXZXZXZXZXZXBXCXZXaXq.% .   q !.nXZXZXZXZXZXZXZXZXZXZXZXZXZXZXZXZXZXZXZXZXcX@X3.i o o i ",
"    w i.5XNXZXZXZXZXZXZXZXZXZXZXZXZXZXZXZXZXZXZXZXZXCXCXZXaX7.@   . M #XBXZXZXZXVXbXbXVXZXZXZXZXZXZXZXZXZXZXZXZXZXcX+X2.u o o i ",
"    e y.3XMXZXZXZXZXZXZXZXZXZXZXZXZXZXZXZXZXZXZXZXZXZXZXZXaX:.X   o >.eXmXVXZXBXqXQ.[.pXVXZXZXZXZXZXZXZXZXZXZXZXZXcXXX<.y o o p ",
"    q q.<XmXZXZXZXZXZXZXZXZXZXZXZXZXZXZXZXZXZXZXZXZXZXZXZXpX#..   + -.F.I.'.3XtXf.g R `.bXZXZXZXZXZXZXZXZXZXZXZXZXzXXX:.r X o s ",
"    8 6.-XbXZXZXZXZXZXZXZXZXZXZXZXZXZXZXZXZXZXZXZXZXZXZXZXaX:..     + * = 2 M z.F   1 n.lXZXZXZXZXZXZXZXZXZXZXCXZXzX X-.q . O f ",
"    7 2.%XcXZXZXZXZXZXZXZXZXZXZXZXZXZXZXZXZXZXZXZXZXZXZXZXxXV.*               ! ( + > d.fXZXZXZXZXZXZXZXZXZXZXVXZXzXXX:.r X o s ",
"    7 <.@XcXZXZXZXZXZXZXZXZXZXZXZXZXZXZXZXZXZXZXZXZXZXZXZXVX9X3.1 .   . . X t z. .@ 3 c.hXZXZXZXZXZXZXZXZXZXZXVXZXcXXX<.y o o p ",
"    8 ,.+XcXZXZXZXZXZXZXZXZXZXZXZXZXZXZXZXZXZXZXZXZXZXZXZXZXVXdX_.y.{ O.;.t.^.&XA   w T.nXZXZXZXZXZXZXZXZXZXZXZXZXcX+X2.u o o i ",
"    8 >.+XcXZXZXZXZXZXZXZXZXZXZXZXZXZXZXZXZXZXZXZXZXZXZXZXZXZXZXVXzXyXiXaXhXnX=XV X f  XNXZXZXZXZXZXZXZXZXZXZXZXZXcX@X3.u o o i ",
"    8 >.+XcXZXZXZXZXZXZXZXZXZXZXZXZXZXZXZXZXZXZXZXZXZXZXZXZXZXZXZXZXZXZXZXZXNXoXf X b $XVXZXZXVXmXmXVXZXZXZXZXZXZXcX@X3.i o o i ",
"    8 ,.+XcXZXZXZXZXZXZXZXZXZXZXZXZXZXZXZXZXZXZXZXZXZXZXZXZXZXZXZXZXZXZXZXZXVXOXt   2 B.;X<X>X#X`. XiXVXZXZXZXZXZXcX@X3.i o o i ",
"    8 <.@XcXZXZXZXZXZXZXZXZXZXZXZXZXZXZXZXZXZXZXZXZXZXZXZXZXZXZXZXZXZXZXZXZXZX*Xp   X e f h g s p V Z.zXZXZXZXZXZXcX@X3.i o o i ",
"  . 0 4.&XcXZXZXZXZXZXZXZXZXZXZXZXZXZXZXZXZXZXZXZXZXZXZXZXZXZXZXZXZXZXZXZXZXZXyX$.# o           X : 3.aXZXZXZXZXZXcX@X3.i o o i ",
"  . r w.:XbXZXZXZXZXZXZXZXZXZXZXZXZXZXZXZXZXZXZXZXZXZXZXZXZXZXZXZXZXZXZXZXZXZXMX#X7.` N j h h x L %._.bXZXZXZXZXZXcX@X3.i o o i ",
"  . s f.5XMXZXZXZXZXZXZXZXZXZXZXZXZXZXZXZXZXZXZXZXZXZXZXZXZXZXZXZXZXZXZXZXZXZXZXMXgXtX4X<X<X<X2X6XtXbXZXZXZXZXZXZXcX@X3.u o o i ",
"  . z m.wXVXZXZXZXZXZXZXZXZXZXZXZXZXZXZXZXZXZXZXZXZXZXZXZXZXZXZXZXZXZXZXZXZXZXZXZXZXZXZXZXZXZXZXZXZXZXZXZXZXZXZXZXcX+X1.u o o i ",
"  X n A.pXCXZXZXZXZXZXZXZXZXZXZXZXZXZXZXZXZXZXZXZXZXZXZXZXZXZXZXZXZXZXZXZXZXZXZXZXZXZXZXZXZXZXZXZXZXZXZXZXZXZXZXZXxXXX>.y X o a ",
"  X N D.rXcXcXcXcXcXcXcXcXcXcXcXcXcXcXcXcXcXcXcXcXcXcXcXcXcXcXvXnXMXNXNXNXNXNXNXBXVXCXCXCXCXVXCXZXCXVXBXNXNXNXNXMXhX].$.q X o f ",
"  X m c.{.$X@X@X+X+X+X+X+X+X+X+X+X+X+X+X+X+X+X+X+X+X+X+X+X+X#X*X:X3X6X9X8X8X8X9XwXeXeXwXwXwXwXwXwX9X7X4X1X,X:X:X:X@XA.~ 1 . O h ",
"  X s ..5.5.3.2.1.1.<.,.>.>.>.>.,.,.,.,.,.>.>.>.>.>.>.>.>.,.1.5.w.a.h.k.l.j.g.h.g.k.h.g.d.s.s.s.a.i.r.0.6.2.>.:.<.;.` d @   X y ",
"  . * w y r w w q q 0 9 8 8 8 8 8 8 9 8 8 8 8 8 8 8 8 8 8 8 8 0 r a f f d s p u y y e 0 9 8 8 8 7 7 5 3 1 > ; - : > = o       ; ",
"      . . . . . . . . .           . . .                       . . . . . . . .                                                 X ",
"                                                                                                                                ",
"                                                                                                                              + "
};
